<?xml version="1.0" encoding="UTF-8" standalone="no"?><svg xmlns="http://www.w3.org/2000/svg" xmlns:xlink="http://www.w3.org/1999/xlink" clip-rule="evenodd" stroke-miterlimit="4.00" viewBox="0 0 653 81"><desc>SVG generated by Keynote</desc><defs></defs><g transform="matrix(1.00, 0.00, -0.00, -1.00, 0.0, 81.0)"><image xlink:href="../../F46B07E7-B6BA-4806-951E-D293C58C383F/assets/803F96E46277C19C54CA16488777DF37.png" width="553.00" height="77.00" transform="matrix(1.00, 0.00, -0.00, -1.00, 1.0, 78.0)"></image><text xml:space="preserve" font-family="DINCondensed-Bold" font-weight="bold" font-size="86.0" fill="#747676" transform="matrix(1.00, 0.00, -0.00, -1.00, 4.0, 11.0)">I</text><text xml:space="preserve" font-family="DINCondensed-Bold" font-weight="bold" font-size="86.0" fill="#747676" transform="matrix(1.00, 0.00, -0.00, -1.00, 21.5, 11.0)">n</text><text xml:space="preserve" font-family="DINCondensed-Bold" font-weight="bold" font-size="86.0" fill="#747676" transform="matrix(1.00, 0.00, -0.00, -1.00, 55.0, 11.0)">f</text><text xml:space="preserve" font-family="DINCondensed-Bold" font-weight="bold" font-size="86.0" fill="#747676" transform="matrix(1.00, 0.00, -0.00, -1.00, 74.1, 11.0)">r</text><text xml:space="preserve" font-family="DINCondensed-Bold" font-weight="bold" font-size="86.0" fill="#747676" transform="matrix(1.00, 0.00, -0.00, -1.00, 97.5, 11.0)">a</text><text xml:space="preserve" font-family="DINCondensed-Bold" font-weight="bold" font-size="86.0" fill="#747676" transform="matrix(1.00, 0.00, -0.00, -1.00, 129.3, 11.0)">s</text><text xml:space="preserve" font-family="DINCondensed-Bold" font-weight="bold" font-size="86.0" fill="#747676" transform="matrix(1.00, 0.00, -0.00, -1.00, 159.6, 11.0)">t</text><text xml:space="preserve" font-family="DINCondensed-Bold" font-weight="bold" font-size="86.0" fill="#747676" transform="matrix(1.00, 0.00, -0.00, -1.00, 177.1, 11.0)">r</text><text xml:space="preserve" font-family="DINCondensed-Bold" font-weight="bold" font-size="86.0" fill="#747676" transform="matrix(1.00, 0.00, -0.00, -1.00, 201.0, 11.0)">u</text><text xml:space="preserve" font-family="DINCondensed-Bold" font-weight="bold" font-size="86.0" fill="#747676" transform="matrix(1.00, 0.00, -0.00, -1.00, 234.5, 11.0)">c</text><text xml:space="preserve" font-family="DINCondensed-Bold" font-weight="bold" font-size="86.0" fill="#747676" transform="matrix(1.00, 0.00, -0.00, -1.00, 266.3, 11.0)">t</text><text xml:space="preserve" font-family="DINCondensed-Bold" font-weight="bold" font-size="86.0" fill="#747676" transform="matrix(1.00, 0.00, -0.00, -1.00, 283.8, 11.0)">u</text><text xml:space="preserve" font-family="DINCondensed-Bold" font-weight="bold" font-size="86.0" fill="#747676" transform="matrix(1.00, 0.00, -0.00, -1.00, 317.3, 11.0)">r</text><text xml:space="preserve" font-family="DINCondensed-Bold" font-weight="bold" font-size="86.0" fill="#747676" transform="matrix(1.00, 0.00, -0.00, -1.00, 341.2, 11.0)">e</text><text xml:space="preserve" font-family="DINCondensed-Bold" font-weight="bold" font-size="86.0" fill="#747676" transform="matrix(1.00, 0.00, -0.00, -1.00, 373.0, 11.0)"> </text><text xml:space="preserve" font-family="DINCondensed-Bold" font-weight="bold" font-size="86.0" fill="#747676" transform="matrix(1.00, 0.00, -0.00, -1.00, 389.0, 11.0)">a</text><text xml:space="preserve" font-family="DINCondensed-Bold" font-weight="bold" font-size="86.0" fill="#747676" transform="matrix(1.00, 0.00, -0.00, -1.00, 420.8, 11.0)">s</text><text xml:space="preserve" font-family="DINCondensed-Bold" font-weight="bold" font-size="86.0" fill="#747676" transform="matrix(1.00, 0.00, -0.00, -1.00, 451.1, 11.0)"> </text><text xml:space="preserve" font-family="DINCondensed-Bold" font-weight="bold" font-size="86.0" fill="#747676" transform="matrix(1.00, 0.00, -0.00, -1.00, 467.1, 11.0)">a</text><text xml:space="preserve" font-family="DINCondensed-Bold" font-weight="bold" font-size="86.0" fill="#747676" transform="matrix(1.00, 0.00, -0.00, -1.00, 498.9, 11.0)"> </text><text xml:space="preserve" font-family="DINCondensed-Bold" font-weight="bold" font-size="86.0" fill="#747676" transform="matrix(1.00, 0.00, -0.00, -1.00, 514.9, 11.0)">C</text><image xlink:href="../../F46B07E7-B6BA-4806-951E-D293C58C383F/assets/3CC18461CE805F2244FDDDE4BFD5A1A4.png" width="107.00" height="77.00" transform="matrix(1.00, 0.00, -0.00, -1.00, 545.0, 78.0)"></image><text xml:space="preserve" font-family="DINCondensed-Bold" font-weight="bold" font-size="86.0" fill="#747676" transform="matrix(1.00, 0.00, -0.00, -1.00, 549.9, 11.0)">o</text><text xml:space="preserve" font-family="DINCondensed-Bold" font-weight="bold" font-size="86.0" fill="#747676" transform="matrix(1.00, 0.00, -0.00, -1.00, 581.7, 11.0)">d</text><text xml:space="preserve" font-family="DINCondensed-Bold" font-weight="bold" font-size="86.0" fill="#747676" transform="matrix(1.00, 0.00, -0.00, -1.00, 615.2, 11.0)">e</text></g></svg>