<?xml version="1.0" encoding="UTF-8" standalone="no"?><svg xmlns="http://www.w3.org/2000/svg" xmlns:xlink="http://www.w3.org/1999/xlink" clip-rule="evenodd" stroke-miterlimit="4.00" viewBox="0 0 1778 61"><desc>SVG generated by Keynote</desc><defs></defs><g transform="matrix(1.00, 0.00, -0.00, -1.00, 0.0, 61.0)"><image xlink:href="13952BCBED809CD2ADD68C8B5285B5E7.png" width="1775.00" height="58.00" transform="matrix(1.00, 0.00, -0.00, -1.00, 2.0, 60.0)"></image><text xml:space="preserve" font-family="IowanOldStyle-Roman" font-size="42.7" fill="#5C5C5C" transform="matrix(1.00, 0.00, -0.00, -1.00, 10.0, 22.0)">T</text><text xml:space="preserve" font-family="IowanOldStyle-Roman" font-size="42.7" fill="#5C5C5C" transform="matrix(1.00, 0.00, -0.00, -1.00, 31.4, 22.0)">é</text><text xml:space="preserve" font-family="IowanOldStyle-Roman" font-size="42.7" fill="#5C5C5C" transform="matrix(1.00, 0.00, -0.00, -1.00, 52.2, 22.0)">c</text><text xml:space="preserve" font-family="IowanOldStyle-Roman" font-size="42.7" fill="#5C5C5C" transform="matrix(1.00, 0.00, -0.00, -1.00, 71.3, 22.0)">n</text><text xml:space="preserve" font-family="IowanOldStyle-Roman" font-size="42.7" fill="#5C5C5C" transform="matrix(1.00, 0.00, -0.00, -1.00, 96.2, 22.0)">i</text><text xml:space="preserve" font-family="IowanOldStyle-Roman" font-size="42.7" fill="#5C5C5C" transform="matrix(1.00, 0.00, -0.00, -1.00, 108.9, 22.0)">c</text><text xml:space="preserve" font-family="IowanOldStyle-Roman" font-size="42.7" fill="#5C5C5C" transform="matrix(1.00, 0.00, -0.00, -1.00, 127.9, 22.0)">a</text><text xml:space="preserve" font-family="IowanOldStyle-Roman" font-size="42.7" fill="#5C5C5C" transform="matrix(1.00, 0.00, -0.00, -1.00, 148.5, 22.0)">s</text><text xml:space="preserve" font-family="IowanOldStyle-Roman" font-size="42.7" fill="#5C5C5C" transform="matrix(1.00, 0.00, -0.00, -1.00, 167.4, 22.0)"> </text><text xml:space="preserve" font-family="IowanOldStyle-Roman" font-size="42.7" fill="#5C5C5C" transform="matrix(1.00, 0.00, -0.00, -1.00, 179.2, 22.0)">d</text><text xml:space="preserve" font-family="IowanOldStyle-Roman" font-size="42.7" fill="#5C5C5C" transform="matrix(1.00, 0.00, -0.00, -1.00, 203.2, 22.0)">e</text><text xml:space="preserve" font-family="IowanOldStyle-Roman" font-size="42.7" fill="#5C5C5C" transform="matrix(1.00, 0.00, -0.00, -1.00, 224.0, 22.0)"> </text><text xml:space="preserve" font-family="IowanOldStyle-Roman" font-size="42.7" fill="#5C5C5C" transform="matrix(1.00, 0.00, -0.00, -1.00, 235.9, 22.0)">D</text><text xml:space="preserve" font-family="IowanOldStyle-Roman" font-size="42.7" fill="#5C5C5C" transform="matrix(1.00, 0.00, -0.00, -1.00, 269.2, 22.0)">e</text><text xml:space="preserve" font-family="IowanOldStyle-Roman" font-size="42.7" fill="#5C5C5C" transform="matrix(1.00, 0.00, -0.00, -1.00, 290.0, 22.0)">s</text><text xml:space="preserve" font-family="IowanOldStyle-Roman" font-size="42.7" fill="#5C5C5C" transform="matrix(1.00, 0.00, -0.00, -1.00, 308.9, 22.0)">e</text><text xml:space="preserve" font-family="IowanOldStyle-Roman" font-size="42.7" fill="#5C5C5C" transform="matrix(1.00, 0.00, -0.00, -1.00, 329.7, 22.0)">n</text><text xml:space="preserve" font-family="IowanOldStyle-Roman" font-size="42.7" fill="#5C5C5C" transform="matrix(1.00, 0.00, -0.00, -1.00, 354.6, 22.0)">v</text><text xml:space="preserve" font-family="IowanOldStyle-Roman" font-size="42.7" fill="#5C5C5C" transform="matrix(1.00, 0.00, -0.00, -1.00, 375.6, 22.0)">o</text><text xml:space="preserve" font-family="IowanOldStyle-Roman" font-size="42.7" fill="#5C5C5C" transform="matrix(1.00, 0.00, -0.00, -1.00, 399.1, 22.0)">l</text><text xml:space="preserve" font-family="IowanOldStyle-Roman" font-size="42.7" fill="#5C5C5C" transform="matrix(1.00, 0.00, -0.00, -1.00, 411.6, 22.0)">v</text><text xml:space="preserve" font-family="IowanOldStyle-Roman" font-size="42.7" fill="#5C5C5C" transform="matrix(1.00, 0.00, -0.00, -1.00, 432.5, 22.0)">i</text><text xml:space="preserve" font-family="IowanOldStyle-Roman" font-size="42.7" fill="#5C5C5C" transform="matrix(1.00, 0.00, -0.00, -1.00, 445.2, 22.0)">m</text><text xml:space="preserve" font-family="IowanOldStyle-Roman" font-size="42.7" fill="#5C5C5C" transform="matrix(1.00, 0.00, -0.00, -1.00, 482.7, 22.0)">e</text><text xml:space="preserve" font-family="IowanOldStyle-Roman" font-size="42.7" fill="#5C5C5C" transform="matrix(1.00, 0.00, -0.00, -1.00, 503.6, 22.0)">n</text><text xml:space="preserve" font-family="IowanOldStyle-Roman" font-size="42.7" fill="#5C5C5C" transform="matrix(1.00, 0.00, -0.00, -1.00, 528.5, 22.0)">t</text><text xml:space="preserve" font-family="IowanOldStyle-Roman" font-size="42.7" fill="#5C5C5C" transform="matrix(1.00, 0.00, -0.00, -1.00, 543.8, 22.0)">o</text><text xml:space="preserve" font-family="IowanOldStyle-Roman" font-size="42.7" fill="#5C5C5C" transform="matrix(1.00, 0.00, -0.00, -1.00, 567.3, 22.0)"> </text><text xml:space="preserve" font-family="IowanOldStyle-Roman" font-size="42.7" fill="#5C5C5C" transform="matrix(1.00, 0.00, -0.00, -1.00, 579.2, 22.0)">d</text><text xml:space="preserve" font-family="IowanOldStyle-Roman" font-size="42.7" fill="#5C5C5C" transform="matrix(1.00, 0.00, -0.00, -1.00, 603.2, 22.0)">e</text><text xml:space="preserve" font-family="IowanOldStyle-Roman" font-size="42.7" fill="#5C5C5C" transform="matrix(1.00, 0.00, -0.00, -1.00, 624.0, 22.0)"> </text><text xml:space="preserve" font-family="IowanOldStyle-Roman" font-size="42.7" fill="#5C5C5C" transform="matrix(1.00, 0.00, -0.00, -1.00, 635.8, 22.0)">S</text><text xml:space="preserve" font-family="IowanOldStyle-Roman" font-size="42.7" fill="#5C5C5C" transform="matrix(1.00, 0.00, -0.00, -1.00, 658.9, 22.0)">i</text><text xml:space="preserve" font-family="IowanOldStyle-Roman" font-size="42.7" fill="#5C5C5C" transform="matrix(1.00, 0.00, -0.00, -1.00, 671.6, 22.0)">s</text><text xml:space="preserve" font-family="IowanOldStyle-Roman" font-size="42.7" fill="#5C5C5C" transform="matrix(1.00, 0.00, -0.00, -1.00, 690.5, 22.0)">t</text><text xml:space="preserve" font-family="IowanOldStyle-Roman" font-size="42.7" fill="#5C5C5C" transform="matrix(1.00, 0.00, -0.00, -1.00, 705.8, 22.0)">e</text><text xml:space="preserve" font-family="IowanOldStyle-Roman" font-size="42.7" fill="#5C5C5C" transform="matrix(1.00, 0.00, -0.00, -1.00, 726.6, 22.0)">m</text><text xml:space="preserve" font-family="IowanOldStyle-Roman" font-size="42.7" fill="#5C5C5C" transform="matrix(1.00, 0.00, -0.00, -1.00, 764.2, 22.0)">a</text><text xml:space="preserve" font-family="IowanOldStyle-Roman" font-size="42.7" fill="#5C5C5C" transform="matrix(1.00, 0.00, -0.00, -1.00, 784.7, 22.0)">s</text><text xml:space="preserve" font-family="IowanOldStyle-Roman" font-size="42.7" fill="#5C5C5C" transform="matrix(1.00, 0.00, -0.00, -1.00, 803.6, 22.0)"> </text><text xml:space="preserve" font-family="IowanOldStyle-Roman" font-size="42.7" fill="#5C5C5C" transform="matrix(1.00, 0.00, -0.00, -1.00, 815.5, 22.0)">d</text><text xml:space="preserve" font-family="IowanOldStyle-Roman" font-size="42.7" fill="#5C5C5C" transform="matrix(1.00, 0.00, -0.00, -1.00, 839.5, 22.0)">e</text><text xml:space="preserve" font-family="IowanOldStyle-Roman" font-size="42.7" fill="#5C5C5C" transform="matrix(1.00, 0.00, -0.00, -1.00, 860.3, 22.0)"> </text><text xml:space="preserve" font-family="IowanOldStyle-Roman" font-size="42.7" fill="#5C5C5C" transform="matrix(1.00, 0.00, -0.00, -1.00, 872.1, 22.0)">I</text><text xml:space="preserve" font-family="IowanOldStyle-Roman" font-size="42.7" fill="#5C5C5C" transform="matrix(1.00, 0.00, -0.00, -1.00, 886.6, 22.0)">n</text><text xml:space="preserve" font-family="IowanOldStyle-Roman" font-size="42.7" fill="#5C5C5C" transform="matrix(1.00, 0.00, -0.00, -1.00, 911.5, 22.0)">f</text><text xml:space="preserve" font-family="IowanOldStyle-Roman" font-size="42.7" fill="#5C5C5C" transform="matrix(1.00, 0.00, -0.00, -1.00, 925.2, 22.0)">o</text><text xml:space="preserve" font-family="IowanOldStyle-Roman" font-size="42.7" fill="#5C5C5C" transform="matrix(1.00, 0.00, -0.00, -1.00, 948.7, 22.0)">r</text><text xml:space="preserve" font-family="IowanOldStyle-Roman" font-size="42.7" fill="#5C5C5C" transform="matrix(1.00, 0.00, -0.00, -1.00, 965.3, 22.0)">m</text><text xml:space="preserve" font-family="IowanOldStyle-Roman" font-size="42.7" fill="#5C5C5C" transform="matrix(1.00, 0.00, -0.00, -1.00, 1002.9, 22.0)">a</text><text xml:space="preserve" font-family="IowanOldStyle-Roman" font-size="42.7" fill="#5C5C5C" transform="matrix(1.00, 0.00, -0.00, -1.00, 1023.4, 22.0)">ç</text><text xml:space="preserve" font-family="IowanOldStyle-Roman" font-size="42.7" fill="#5C5C5C" transform="matrix(1.00, 0.00, -0.00, -1.00, 1042.5, 22.0)">ã</text><text xml:space="preserve" font-family="IowanOldStyle-Roman" font-size="42.7" fill="#5C5C5C" transform="matrix(1.00, 0.00, -0.00, -1.00, 1063.0, 22.0)">o</text><text xml:space="preserve" font-family="IowanOldStyle-Roman" font-size="42.7" fill="#5C5C5C" transform="matrix(1.00, 0.00, -0.00, -1.00, 1086.5, 22.0)"> </text><text xml:space="preserve" font-family="IowanOldStyle-Roman" font-size="42.7" fill="#5C5C5C" transform="matrix(1.00, 0.00, -0.00, -1.00, 1098.3, 22.0)">a</text><text xml:space="preserve" font-family="IowanOldStyle-Roman" font-size="42.7" fill="#5C5C5C" transform="matrix(1.00, 0.00, -0.00, -1.00, 1118.9, 22.0)">p</text><text xml:space="preserve" font-family="IowanOldStyle-Roman" font-size="42.7" fill="#5C5C5C" transform="matrix(1.00, 0.00, -0.00, -1.00, 1142.8, 22.0)">l</text><text xml:space="preserve" font-family="IowanOldStyle-Roman" font-size="42.7" fill="#5C5C5C" transform="matrix(1.00, 0.00, -0.00, -1.00, 1155.2, 22.0)">i</text><text xml:space="preserve" font-family="IowanOldStyle-Roman" font-size="42.7" fill="#5C5C5C" transform="matrix(1.00, 0.00, -0.00, -1.00, 1167.9, 22.0)">c</text><text xml:space="preserve" font-family="IowanOldStyle-Roman" font-size="42.7" fill="#5C5C5C" transform="matrix(1.00, 0.00, -0.00, -1.00, 1187.0, 22.0)">a</text><text xml:space="preserve" font-family="IowanOldStyle-Roman" font-size="42.7" fill="#5C5C5C" transform="matrix(1.00, 0.00, -0.00, -1.00, 1207.5, 22.0)">d</text><text xml:space="preserve" font-family="IowanOldStyle-Roman" font-size="42.7" fill="#5C5C5C" transform="matrix(1.00, 0.00, -0.00, -1.00, 1231.5, 22.0)">a</text><text xml:space="preserve" font-family="IowanOldStyle-Roman" font-size="42.7" fill="#5C5C5C" transform="matrix(1.00, 0.00, -0.00, -1.00, 1252.0, 22.0)">s</text><text xml:space="preserve" font-family="IowanOldStyle-Roman" font-size="42.7" fill="#5C5C5C" transform="matrix(1.00, 0.00, -0.00, -1.00, 1270.9, 22.0)"> </text><text xml:space="preserve" font-family="IowanOldStyle-Roman" font-size="42.7" fill="#5C5C5C" transform="matrix(1.00, 0.00, -0.00, -1.00, 1282.8, 22.0)">n</text><text xml:space="preserve" font-family="IowanOldStyle-Roman" font-size="42.7" fill="#5C5C5C" transform="matrix(1.00, 0.00, -0.00, -1.00, 1307.7, 22.0)">o</text><text xml:space="preserve" font-family="IowanOldStyle-Roman" font-size="42.7" fill="#5C5C5C" transform="matrix(1.00, 0.00, -0.00, -1.00, 1331.2, 22.0)"> </text><text xml:space="preserve" font-family="IowanOldStyle-Roman" font-size="42.7" fill="#5C5C5C" transform="matrix(1.00, 0.00, -0.00, -1.00, 1343.0, 22.0)">A</text><text xml:space="preserve" font-family="IowanOldStyle-Roman" font-size="42.7" fill="#5C5C5C" transform="matrix(1.00, 0.00, -0.00, -1.00, 1373.9, 22.0)">m</text><text xml:space="preserve" font-family="IowanOldStyle-Roman" font-size="42.7" fill="#5C5C5C" transform="matrix(1.00, 0.00, -0.00, -1.00, 1411.4, 22.0)">b</text><text xml:space="preserve" font-family="IowanOldStyle-Roman" font-size="42.7" fill="#5C5C5C" transform="matrix(1.00, 0.00, -0.00, -1.00, 1435.2, 22.0)">i</text><text xml:space="preserve" font-family="IowanOldStyle-Roman" font-size="42.7" fill="#5C5C5C" transform="matrix(1.00, 0.00, -0.00, -1.00, 1447.8, 22.0)">e</text><text xml:space="preserve" font-family="IowanOldStyle-Roman" font-size="42.7" fill="#5C5C5C" transform="matrix(1.00, 0.00, -0.00, -1.00, 1468.6, 22.0)">n</text><text xml:space="preserve" font-family="IowanOldStyle-Roman" font-size="42.7" fill="#5C5C5C" transform="matrix(1.00, 0.00, -0.00, -1.00, 1493.6, 22.0)">t</text><text xml:space="preserve" font-family="IowanOldStyle-Roman" font-size="42.7" fill="#5C5C5C" transform="matrix(1.00, 0.00, -0.00, -1.00, 1508.9, 22.0)">e</text><text xml:space="preserve" font-family="IowanOldStyle-Roman" font-size="42.7" fill="#5C5C5C" transform="matrix(1.00, 0.00, -0.00, -1.00, 1529.7, 22.0)"> </text><text xml:space="preserve" font-family="IowanOldStyle-Roman" font-size="42.7" fill="#5C5C5C" transform="matrix(1.00, 0.00, -0.00, -1.00, 1541.6, 22.0)">O</text><text xml:space="preserve" font-family="IowanOldStyle-Roman" font-size="42.7" fill="#5C5C5C" transform="matrix(1.00, 0.00, -0.00, -1.00, 1575.8, 22.0)">p</text><text xml:space="preserve" font-family="IowanOldStyle-Roman" font-size="42.7" fill="#5C5C5C" transform="matrix(1.00, 0.00, -0.00, -1.00, 1599.7, 22.0)">e</text><text xml:space="preserve" font-family="IowanOldStyle-Roman" font-size="42.7" fill="#5C5C5C" transform="matrix(1.00, 0.00, -0.00, -1.00, 1620.5, 22.0)">r</text><text xml:space="preserve" font-family="IowanOldStyle-Roman" font-size="42.7" fill="#5C5C5C" transform="matrix(1.00, 0.00, -0.00, -1.00, 1637.2, 22.0)">a</text><text xml:space="preserve" font-family="IowanOldStyle-Roman" font-size="42.7" fill="#5C5C5C" transform="matrix(1.00, 0.00, -0.00, -1.00, 1657.7, 22.0)">c</text><text xml:space="preserve" font-family="IowanOldStyle-Roman" font-size="42.7" fill="#5C5C5C" transform="matrix(1.00, 0.00, -0.00, -1.00, 1676.7, 22.0)">i</text><text xml:space="preserve" font-family="IowanOldStyle-Roman" font-size="42.7" fill="#5C5C5C" transform="matrix(1.00, 0.00, -0.00, -1.00, 1689.4, 22.0)">o</text><text xml:space="preserve" font-family="IowanOldStyle-Roman" font-size="42.7" fill="#5C5C5C" transform="matrix(1.00, 0.00, -0.00, -1.00, 1712.9, 22.0)">n</text><text xml:space="preserve" font-family="IowanOldStyle-Roman" font-size="42.7" fill="#5C5C5C" transform="matrix(1.00, 0.00, -0.00, -1.00, 1737.8, 22.0)">a</text><text xml:space="preserve" font-family="IowanOldStyle-Roman" font-size="42.7" fill="#5C5C5C" transform="matrix(1.00, 0.00, -0.00, -1.00, 1758.4, 22.0)">l</text></g></svg>