<?xml version="1.0" encoding="UTF-8" standalone="no"?><svg xmlns="http://www.w3.org/2000/svg" xmlns:xlink="http://www.w3.org/1999/xlink" clip-rule="evenodd" stroke-miterlimit="4.00" viewBox="0 0 392 64"><desc>SVG generated by Keynote</desc><defs></defs><g transform="matrix(1.00, 0.00, -0.00, -1.00, 0.0, 64.0)"><image xlink:href="B120E0C83E7DD92DFEBC46F7D57A4996.png" width="390.00" height="60.00" transform="matrix(1.00, 0.00, -0.00, -1.00, 1.0, 62.0)"></image><text xml:space="preserve" font-family="IowanOldStyle-Roman" font-size="44.0" fill="#5C5C5C" transform="matrix(1.00, 0.00, 0.00, -1.00, 8.0, 22.3)">M</text><text xml:space="preserve" font-family="IowanOldStyle-Roman" font-size="44.0" fill="#5C5C5C" transform="matrix(1.00, 0.00, 0.00, -1.00, 48.1, 22.4)">e</text><text xml:space="preserve" font-family="IowanOldStyle-Roman" font-size="44.0" fill="#5C5C5C" transform="matrix(1.00, 0.00, 0.00, -1.00, 69.5, 22.5)">n</text><text xml:space="preserve" font-family="IowanOldStyle-Roman" font-size="44.0" fill="#5C5C5C" transform="matrix(1.00, 0.00, 0.00, -1.00, 95.2, 22.5)">o</text><text xml:space="preserve" font-family="IowanOldStyle-Roman" font-size="44.0" fill="#5C5C5C" transform="matrix(1.00, 0.00, 0.00, -1.00, 119.5, 22.6)">s</text><text xml:space="preserve" font-family="IowanOldStyle-Roman" font-size="44.0" fill="#5C5C5C" transform="matrix(1.00, 0.00, 0.00, -1.00, 138.9, 22.6)"> </text><text xml:space="preserve" font-family="IowanOldStyle-Roman" font-size="44.0" fill="#5C5C5C" transform="matrix(1.00, 0.00, 0.00, -1.00, 151.2, 22.6)">D</text><text xml:space="preserve" font-family="IowanOldStyle-Roman" font-size="44.0" fill="#5C5C5C" transform="matrix(1.00, 0.00, 0.00, -1.00, 185.5, 22.7)">e</text><text xml:space="preserve" font-family="IowanOldStyle-Roman" font-size="44.0" fill="#5C5C5C" transform="matrix(1.00, 0.00, 0.00, -1.00, 207.0, 22.7)">s</text><text xml:space="preserve" font-family="IowanOldStyle-Roman" font-size="44.0" fill="#5C5C5C" transform="matrix(1.00, 0.00, 0.00, -1.00, 226.4, 22.8)">p</text><text xml:space="preserve" font-family="IowanOldStyle-Roman" font-size="44.0" fill="#5C5C5C" transform="matrix(1.00, 0.00, 0.00, -1.00, 251.1, 22.8)">e</text><text xml:space="preserve" font-family="IowanOldStyle-Roman" font-size="44.0" fill="#5C5C5C" transform="matrix(1.00, 0.00, 0.00, -1.00, 272.5, 22.9)">r</text><text xml:space="preserve" font-family="IowanOldStyle-Roman" font-size="44.0" fill="#5C5C5C" transform="matrix(1.00, 0.00, 0.00, -1.00, 289.7, 22.9)">d</text><text xml:space="preserve" font-family="IowanOldStyle-Roman" font-size="44.0" fill="#5C5C5C" transform="matrix(1.00, 0.00, 0.00, -1.00, 314.4, 23.0)">í</text><text xml:space="preserve" font-family="IowanOldStyle-Roman" font-size="44.0" fill="#5C5C5C" transform="matrix(1.00, 0.00, 0.00, -1.00, 327.5, 23.0)">c</text><text xml:space="preserve" font-family="IowanOldStyle-Roman" font-size="44.0" fill="#5C5C5C" transform="matrix(1.00, 0.00, 0.00, -1.00, 347.1, 23.0)">i</text><text xml:space="preserve" font-family="IowanOldStyle-Roman" font-size="44.0" fill="#5C5C5C" transform="matrix(1.00, 0.00, 0.00, -1.00, 360.2, 23.0)">o</text></g></svg>