<?xml version="1.0" encoding="UTF-8" standalone="no"?><svg xmlns="http://www.w3.org/2000/svg" xmlns:xlink="http://www.w3.org/1999/xlink" clip-rule="evenodd" stroke-miterlimit="4.00" viewBox="0 0 322 60"><desc>SVG generated by Keynote</desc><defs></defs><g transform="matrix(1.00, 0.00, -0.00, -1.00, 0.0, 60.0)"><image xlink:href="F77ADDC3539C3C47B51667DB8CE57BC4.png" width="319.00" height="57.00" transform="matrix(1.00, 0.00, -0.00, -1.00, 1.0, 58.0)"></image><text xml:space="preserve" font-family="IowanOldStyle-Roman" font-size="44.0" fill="#5C5C5C" transform="matrix(1.00, 0.00, -0.00, -1.00, 8.0, 19.0)">M</text><text xml:space="preserve" font-family="IowanOldStyle-Roman" font-size="44.0" fill="#5C5C5C" transform="matrix(1.00, 0.00, -0.00, -1.00, 48.1, 19.0)">a</text><text xml:space="preserve" font-family="IowanOldStyle-Roman" font-size="44.0" fill="#5C5C5C" transform="matrix(1.00, 0.00, -0.00, -1.00, 69.2, 19.0)">i</text><text xml:space="preserve" font-family="IowanOldStyle-Roman" font-size="44.0" fill="#5C5C5C" transform="matrix(1.00, 0.00, -0.00, -1.00, 82.3, 19.0)">s</text><text xml:space="preserve" font-family="IowanOldStyle-Roman" font-size="44.0" fill="#5C5C5C" transform="matrix(1.00, 0.00, -0.00, -1.00, 101.8, 19.0)"> </text><text xml:space="preserve" font-family="IowanOldStyle-Roman" font-size="44.0" fill="#5C5C5C" transform="matrix(1.00, 0.00, -0.00, -1.00, 114.0, 19.0)">Q</text><text xml:space="preserve" font-family="IowanOldStyle-Roman" font-size="44.0" fill="#5C5C5C" transform="matrix(1.00, 0.00, -0.00, -1.00, 149.2, 19.0)">u</text><text xml:space="preserve" font-family="IowanOldStyle-Roman" font-size="44.0" fill="#5C5C5C" transform="matrix(1.00, 0.00, -0.00, -1.00, 175.1, 19.0)">a</text><text xml:space="preserve" font-family="IowanOldStyle-Roman" font-size="44.0" fill="#5C5C5C" transform="matrix(1.00, 0.00, -0.00, -1.00, 196.3, 19.0)">l</text><text xml:space="preserve" font-family="IowanOldStyle-Roman" font-size="44.0" fill="#5C5C5C" transform="matrix(1.00, 0.00, -0.00, -1.00, 209.1, 19.0)">i</text><text xml:space="preserve" font-family="IowanOldStyle-Roman" font-size="44.0" fill="#5C5C5C" transform="matrix(1.00, 0.00, -0.00, -1.00, 222.2, 19.0)">d</text><text xml:space="preserve" font-family="IowanOldStyle-Roman" font-size="44.0" fill="#5C5C5C" transform="matrix(1.00, 0.00, -0.00, -1.00, 246.9, 19.0)">a</text><text xml:space="preserve" font-family="IowanOldStyle-Roman" font-size="44.0" fill="#5C5C5C" transform="matrix(1.00, 0.00, -0.00, -1.00, 268.1, 19.0)">d</text><text xml:space="preserve" font-family="IowanOldStyle-Roman" font-size="44.0" fill="#5C5C5C" transform="matrix(1.00, 0.00, -0.00, -1.00, 292.8, 19.0)">e</text></g></svg>