<?xml version="1.0" encoding="UTF-8" standalone="no"?><svg xmlns="http://www.w3.org/2000/svg" xmlns:xlink="http://www.w3.org/1999/xlink" clip-rule="evenodd" stroke-miterlimit="4.00" viewBox="0 0 322 61"><desc>SVG generated by Keynote</desc><defs></defs><g transform="matrix(1.00, 0.00, -0.00, -1.00, 0.0, 61.0)"><image xlink:href="79F2862866409860C8E1199F09F7FFEA.png" width="319.00" height="59.00" transform="matrix(1.00, 0.00, -0.00, -1.00, 1.0, 60.0)"></image><text xml:space="preserve" font-family="IowanOldStyle-Roman" font-size="44.0" fill="#5C5C5C" transform="matrix(1.00, 0.00, -0.00, -1.00, 8.0, 22.0)">M</text><text xml:space="preserve" font-family="IowanOldStyle-Roman" font-size="44.0" fill="#5C5C5C" transform="matrix(1.00, 0.00, -0.00, -1.00, 48.1, 22.0)">a</text><text xml:space="preserve" font-family="IowanOldStyle-Roman" font-size="44.0" fill="#5C5C5C" transform="matrix(1.00, 0.00, -0.00, -1.00, 69.2, 22.0)">i</text><text xml:space="preserve" font-family="IowanOldStyle-Roman" font-size="44.0" fill="#5C5C5C" transform="matrix(1.00, 0.00, -0.00, -1.00, 82.3, 22.0)">s</text><text xml:space="preserve" font-family="IowanOldStyle-Roman" font-size="44.0" fill="#5C5C5C" transform="matrix(1.00, 0.00, -0.00, -1.00, 101.8, 22.0)"> </text><text xml:space="preserve" font-family="IowanOldStyle-Roman" font-size="44.0" fill="#5C5C5C" transform="matrix(1.00, 0.00, -0.00, -1.00, 114.0, 22.0)">S</text><text xml:space="preserve" font-family="IowanOldStyle-Roman" font-size="44.0" fill="#5C5C5C" transform="matrix(1.00, 0.00, -0.00, -1.00, 137.8, 22.0)">e</text><text xml:space="preserve" font-family="IowanOldStyle-Roman" font-size="44.0" fill="#5C5C5C" transform="matrix(1.00, 0.00, -0.00, -1.00, 159.2, 22.0)">g</text><text xml:space="preserve" font-family="IowanOldStyle-Roman" font-size="44.0" fill="#5C5C5C" transform="matrix(1.00, 0.00, -0.00, -1.00, 181.9, 22.0)">u</text><text xml:space="preserve" font-family="IowanOldStyle-Roman" font-size="44.0" fill="#5C5C5C" transform="matrix(1.00, 0.00, -0.00, -1.00, 207.8, 22.0)">r</text><text xml:space="preserve" font-family="IowanOldStyle-Roman" font-size="44.0" fill="#5C5C5C" transform="matrix(1.00, 0.00, -0.00, -1.00, 225.0, 22.0)">a</text><text xml:space="preserve" font-family="IowanOldStyle-Roman" font-size="44.0" fill="#5C5C5C" transform="matrix(1.00, 0.00, -0.00, -1.00, 246.1, 22.0)">n</text><text xml:space="preserve" font-family="IowanOldStyle-Roman" font-size="44.0" fill="#5C5C5C" transform="matrix(1.00, 0.00, -0.00, -1.00, 271.8, 22.0)">รง</text><text xml:space="preserve" font-family="IowanOldStyle-Roman" font-size="44.0" fill="#5C5C5C" transform="matrix(1.00, 0.00, -0.00, -1.00, 291.5, 22.0)">a</text></g></svg>