<?xml version="1.0" encoding="UTF-8" standalone="no"?><svg xmlns="http://www.w3.org/2000/svg" xmlns:xlink="http://www.w3.org/1999/xlink" clip-rule="evenodd" stroke-miterlimit="4.00" viewBox="0 0 1920 1080"><desc>SVG generated by Keynote</desc><defs></defs><g transform="matrix(1.00, 0.00, -0.00, -1.00, 0.0, 1080.0)"><path d="M 0.0 1080.0 L 1920.0 1080.0 L 1920.0 0.0 L 0.0 0.0 Z M 0.0 1080.0 " fill="#FFFFFF"></path><g><clipPath id="clip-287"><path d="M 1.0 1231.0 L 1921.0 1231.0 L 1921.0 -209.0 L 1.0 -209.0 Z M 0.6 1231.4 "></path></clipPath><g clip-path="url(#clip-287)"><image xlink:href="../../E4793BFA-68B6-4966-AC9B-839D55AB8024/assets/10F163892C63AB0C15C0B2852571B1CE.jpeg" width="706.00" height="768.00" transform="matrix(2.73, 0.00, -0.00, -2.73, -3.0, 1398.0)"></image></g></g><path d="M -7.9 479.5 L 1927.9 479.5 L 1927.9 80.2 L -7.9 80.2 Z M -7.9 479.5 " fill="#FFFFFF"></path><path d="M 0.0 0.0 L 1314.8 0.0 " fill="none" stroke="#747676" stroke-width="4.00" stroke-linecap="round" stroke-linejoin="round" stroke-dasharray="0.0, 12.0" transform="matrix(1.00, 0.00, 0.00, -1.00, 303.3, 236.3)"></path><image xlink:href="../../E4793BFA-68B6-4966-AC9B-839D55AB8024/assets/CA4828191E87967A3466B66772257B7D.png" width="1099.00" height="141.00" transform="matrix(1.00, 0.00, -0.00, -1.00, 412.0, 478.0)"></image><text xml:space="preserve" font-family="DINCondensed-Bold" font-weight="bold" font-size="113.9" fill="#5C5C5C" transform="matrix(1.00, 0.00, -0.00, -1.00, 414.0, 372.0)">B</text><text xml:space="preserve" font-family="DINCondensed-Bold" font-weight="bold" font-size="113.9" fill="#5C5C5C" transform="matrix(1.00, 0.00, -0.00, -1.00, 462.5, 372.0)">E</text><text xml:space="preserve" font-family="DINCondensed-Bold" font-weight="bold" font-size="113.9" fill="#5C5C5C" transform="matrix(1.00, 0.00, -0.00, -1.00, 504.7, 372.0)">N</text><text xml:space="preserve" font-family="DINCondensed-Bold" font-weight="bold" font-size="113.9" fill="#5C5C5C" transform="matrix(1.00, 0.00, -0.00, -1.00, 555.2, 372.0)">E</text><text xml:space="preserve" font-family="DINCondensed-Bold" font-weight="bold" font-size="113.9" fill="#5C5C5C" transform="matrix(1.00, 0.00, -0.00, -1.00, 597.4, 372.0)">F</text><text xml:space="preserve" font-family="DINCondensed-Bold" font-weight="bold" font-size="113.9" fill="#5C5C5C" transform="matrix(1.00, 0.00, -0.00, -1.00, 639.5, 372.0)">Í</text><text xml:space="preserve" font-family="DINCondensed-Bold" font-weight="bold" font-size="113.9" fill="#5C5C5C" transform="matrix(1.00, 0.00, -0.00, -1.00, 662.8, 372.0)">C</text><text xml:space="preserve" font-family="DINCondensed-Bold" font-weight="bold" font-size="113.9" fill="#5C5C5C" transform="matrix(1.00, 0.00, -0.00, -1.00, 709.1, 372.0)">I</text><text xml:space="preserve" font-family="DINCondensed-Bold" font-weight="bold" font-size="113.9" fill="#5C5C5C" transform="matrix(1.00, 0.00, -0.00, -1.00, 732.4, 372.0)">O</text><text xml:space="preserve" font-family="DINCondensed-Bold" font-weight="bold" font-size="113.9" fill="#5C5C5C" transform="matrix(1.00, 0.00, -0.00, -1.00, 780.9, 372.0)">S</text><text xml:space="preserve" font-family="DINCondensed-Bold" font-weight="bold" font-size="113.9" fill="#5C5C5C" transform="matrix(1.00, 0.00, -0.00, -1.00, 827.1, 372.0)"> </text><text xml:space="preserve" font-family="DINCondensed-Bold" font-weight="bold" font-size="113.9" fill="#5C5C5C" transform="matrix(1.00, 0.00, -0.00, -1.00, 848.3, 372.0)">D</text><text xml:space="preserve" font-family="DINCondensed-Bold" font-weight="bold" font-size="113.9" fill="#5C5C5C" transform="matrix(1.00, 0.00, -0.00, -1.00, 895.5, 372.0)">A</text><text xml:space="preserve" font-family="DINCondensed-Bold" font-weight="bold" font-size="113.9" fill="#5C5C5C" transform="matrix(1.00, 0.00, -0.00, -1.00, 941.8, 372.0)"> </text><text xml:space="preserve" font-family="DINCondensed-Bold" font-weight="bold" font-size="113.9" fill="#5C5C5C" transform="matrix(1.00, 0.00, -0.00, -1.00, 963.0, 372.0)">A</text><text xml:space="preserve" font-family="DINCondensed-Bold" font-weight="bold" font-size="113.9" fill="#5C5C5C" transform="matrix(1.00, 0.00, -0.00, -1.00, 1009.4, 372.0)">U</text><text xml:space="preserve" font-family="DINCondensed-Bold" font-weight="bold" font-size="113.9" fill="#5C5C5C" transform="matrix(1.00, 0.00, -0.00, -1.00, 1057.9, 372.0)">T</text><text xml:space="preserve" font-family="DINCondensed-Bold" font-weight="bold" font-size="113.9" fill="#5C5C5C" transform="matrix(1.00, 0.00, -0.00, -1.00, 1094.3, 372.0)">O</text><text xml:space="preserve" font-family="DINCondensed-Bold" font-weight="bold" font-size="113.9" fill="#5C5C5C" transform="matrix(1.00, 0.00, -0.00, -1.00, 1142.8, 372.0)">M</text><text xml:space="preserve" font-family="DINCondensed-Bold" font-weight="bold" font-size="113.9" fill="#5C5C5C" transform="matrix(1.00, 0.00, -0.00, -1.00, 1206.2, 372.0)">A</text><text xml:space="preserve" font-family="DINCondensed-Bold" font-weight="bold" font-size="113.9" fill="#5C5C5C" transform="matrix(1.00, 0.00, -0.00, -1.00, 1252.5, 372.0)">Ç</text><text xml:space="preserve" font-family="DINCondensed-Bold" font-weight="bold" font-size="113.9" fill="#5C5C5C" transform="matrix(1.00, 0.00, -0.00, -1.00, 1298.9, 372.0)">Ã</text><text xml:space="preserve" font-family="DINCondensed-Bold" font-weight="bold" font-size="113.9" fill="#5C5C5C" transform="matrix(1.00, 0.00, -0.00, -1.00, 1345.2, 372.0)">O</text><text xml:space="preserve" font-family="DINCondensed-Bold" font-weight="bold" font-size="113.9" fill="#5C5C5C" transform="matrix(1.00, 0.00, -0.00, -1.00, 1393.8, 372.0)"> </text><text xml:space="preserve" font-family="DINCondensed-Bold" font-weight="bold" font-size="113.9" fill="#5C5C5C" transform="matrix(1.00, 0.00, -0.00, -1.00, 1415.0, 372.0)">D</text><text xml:space="preserve" font-family="DINCondensed-Bold" font-weight="bold" font-size="113.9" fill="#5C5C5C" transform="matrix(1.00, 0.00, -0.00, -1.00, 1463.5, 372.0)">E</text><text xml:space="preserve" font-family="DINCondensed-Bold" font-weight="bold" font-size="113.9" fill="#5C5C5C" transform="matrix(1.00, 0.00, -0.00, -1.00, 1505.6, 372.0)"> </text><image xlink:href="../../E4793BFA-68B6-4966-AC9B-839D55AB8024/assets/901C823EB6C950717391D2237B3C4D64.png" width="1301.00" height="97.00" transform="matrix(1.00, 0.00, -0.00, -1.00, 312.0, 345.0)"></image><text xml:space="preserve" font-family="DINCondensed-Bold" font-weight="bold" font-size="113.9" fill="#5C5C5C" transform="matrix(1.00, 0.00, -0.00, -1.00, 314.0, 258.0)">I</text><text xml:space="preserve" font-family="DINCondensed-Bold" font-weight="bold" font-size="113.9" fill="#5C5C5C" transform="matrix(1.00, 0.00, -0.00, -1.00, 337.2, 258.0)">N</text><text xml:space="preserve" font-family="DINCondensed-Bold" font-weight="bold" font-size="113.9" fill="#5C5C5C" transform="matrix(1.00, 0.00, -0.00, -1.00, 387.8, 258.0)">F</text><text xml:space="preserve" font-family="DINCondensed-Bold" font-weight="bold" font-size="113.9" fill="#5C5C5C" transform="matrix(1.00, 0.00, -0.00, -1.00, 430.0, 258.0)">R</text><text xml:space="preserve" font-family="DINCondensed-Bold" font-weight="bold" font-size="113.9" fill="#5C5C5C" transform="matrix(1.00, 0.00, -0.00, -1.00, 478.5, 258.0)">A</text><text xml:space="preserve" font-family="DINCondensed-Bold" font-weight="bold" font-size="113.9" fill="#5C5C5C" transform="matrix(1.00, 0.00, -0.00, -1.00, 524.8, 258.0)">E</text><text xml:space="preserve" font-family="DINCondensed-Bold" font-weight="bold" font-size="113.9" fill="#5C5C5C" transform="matrix(1.00, 0.00, -0.00, -1.00, 567.0, 258.0)">S</text><text xml:space="preserve" font-family="DINCondensed-Bold" font-weight="bold" font-size="113.9" fill="#5C5C5C" transform="matrix(1.00, 0.00, -0.00, -1.00, 613.2, 258.0)">T</text><text xml:space="preserve" font-family="DINCondensed-Bold" font-weight="bold" font-size="113.9" fill="#5C5C5C" transform="matrix(1.00, 0.00, -0.00, -1.00, 651.0, 258.0)">R</text><text xml:space="preserve" font-family="DINCondensed-Bold" font-weight="bold" font-size="113.9" fill="#5C5C5C" transform="matrix(1.00, 0.00, -0.00, -1.00, 699.6, 258.0)">U</text><text xml:space="preserve" font-family="DINCondensed-Bold" font-weight="bold" font-size="113.9" fill="#5C5C5C" transform="matrix(1.00, 0.00, -0.00, -1.00, 748.1, 258.0)">T</text><text xml:space="preserve" font-family="DINCondensed-Bold" font-weight="bold" font-size="113.9" fill="#5C5C5C" transform="matrix(1.00, 0.00, -0.00, -1.00, 785.9, 258.0)">U</text><text xml:space="preserve" font-family="DINCondensed-Bold" font-weight="bold" font-size="113.9" fill="#5C5C5C" transform="matrix(1.00, 0.00, -0.00, -1.00, 834.4, 258.0)">R</text><text xml:space="preserve" font-family="DINCondensed-Bold" font-weight="bold" font-size="113.9" fill="#5C5C5C" transform="matrix(1.00, 0.00, -0.00, -1.00, 882.9, 258.0)">A</text><text xml:space="preserve" font-family="DINCondensed-Bold" font-weight="bold" font-size="113.9" fill="#5C5C5C" transform="matrix(1.00, 0.00, -0.00, -1.00, 929.3, 258.0)"> </text><text xml:space="preserve" font-family="DINCondensed-Bold" font-weight="bold" font-size="113.9" fill="#5C5C5C" transform="matrix(1.00, 0.00, -0.00, -1.00, 950.5, 258.0)">D</text><text xml:space="preserve" font-family="DINCondensed-Bold" font-weight="bold" font-size="113.9" fill="#5C5C5C" transform="matrix(1.00, 0.00, -0.00, -1.00, 999.0, 258.0)">E</text><text xml:space="preserve" font-family="DINCondensed-Bold" font-weight="bold" font-size="113.9" fill="#5C5C5C" transform="matrix(1.00, 0.00, -0.00, -1.00, 1041.1, 258.0)"> </text><text xml:space="preserve" font-family="DINCondensed-Bold" font-weight="bold" font-size="113.9" fill="#5C5C5C" transform="matrix(1.00, 0.00, -0.00, -1.00, 1062.3, 258.0)">T</text><text xml:space="preserve" font-family="DINCondensed-Bold" font-weight="bold" font-size="113.9" fill="#5C5C5C" transform="matrix(1.00, 0.00, -0.00, -1.00, 1100.1, 258.0)">I</text><text xml:space="preserve" font-family="DINCondensed-Bold" font-weight="bold" font-size="113.9" fill="#5C5C5C" transform="matrix(1.00, 0.00, -0.00, -1.00, 1123.4, 258.0)"> </text><text xml:space="preserve" font-family="DINCondensed-Bold" font-weight="bold" font-size="113.9" fill="#5C5C5C" transform="matrix(1.00, 0.00, -0.00, -1.00, 1144.6, 258.0)">C</text><text xml:space="preserve" font-family="DINCondensed-Bold" font-weight="bold" font-size="113.9" fill="#5C5C5C" transform="matrix(1.00, 0.00, -0.00, -1.00, 1190.9, 258.0)">O</text><text xml:space="preserve" font-family="DINCondensed-Bold" font-weight="bold" font-size="113.9" fill="#5C5C5C" transform="matrix(1.00, 0.00, -0.00, -1.00, 1239.4, 258.0)">M</text><text xml:space="preserve" font-family="DINCondensed-Bold" font-weight="bold" font-size="113.9" fill="#5C5C5C" transform="matrix(1.00, 0.00, -0.00, -1.00, 1302.8, 258.0)"> </text><text xml:space="preserve" font-family="DINCondensed-Bold" font-weight="bold" font-size="113.9" fill="#5C5C5C" transform="matrix(1.00, 0.00, -0.00, -1.00, 1324.0, 258.0)">D</text><text xml:space="preserve" font-family="DINCondensed-Bold" font-weight="bold" font-size="113.9" fill="#5C5C5C" transform="matrix(1.00, 0.00, -0.00, -1.00, 1372.5, 258.0)">O</text><text xml:space="preserve" font-family="DINCondensed-Bold" font-weight="bold" font-size="113.9" fill="#5C5C5C" transform="matrix(1.00, 0.00, -0.00, -1.00, 1421.0, 258.0)">C</text><text xml:space="preserve" font-family="DINCondensed-Bold" font-weight="bold" font-size="113.9" fill="#5C5C5C" transform="matrix(1.00, 0.00, -0.00, -1.00, 1467.4, 258.0)">K</text><text xml:space="preserve" font-family="DINCondensed-Bold" font-weight="bold" font-size="113.9" fill="#5C5C5C" transform="matrix(1.00, 0.00, -0.00, -1.00, 1515.9, 258.0)">E</text><text xml:space="preserve" font-family="DINCondensed-Bold" font-weight="bold" font-size="113.9" fill="#5C5C5C" transform="matrix(1.00, 0.00, -0.00, -1.00, 1558.0, 258.0)">R</text><image xlink:href="../../E4793BFA-68B6-4966-AC9B-839D55AB8024/assets/779FFDE4785D228038CE8579D966771B.png" width="524.00" height="55.00" transform="matrix(1.00, 0.00, -0.00, -1.00, 309.0, 229.0)"></image><text xml:space="preserve" font-family="IowanOldStyle-Italic" font-style="italic" font-size="50.2" fill="#737575" transform="matrix(1.00, 0.00, -0.00, -1.00, 314.0, 185.0)">G</text><text xml:space="preserve" font-family="IowanOldStyle-Italic" font-style="italic" font-size="50.2" fill="#737575" transform="matrix(1.00, 0.00, -0.00, -1.00, 348.8, 185.0)">a</text><text xml:space="preserve" font-family="IowanOldStyle-Italic" font-style="italic" font-size="50.2" fill="#737575" transform="matrix(1.00, 0.00, -0.00, -1.00, 372.5, 185.0)">n</text><text xml:space="preserve" font-family="IowanOldStyle-Italic" font-style="italic" font-size="50.2" fill="#737575" transform="matrix(1.00, 0.00, -0.00, -1.00, 397.9, 185.0)">h</text><text xml:space="preserve" font-family="IowanOldStyle-Italic" font-style="italic" font-size="50.2" fill="#737575" transform="matrix(1.00, 0.00, -0.00, -1.00, 422.9, 185.0)">e</text><text xml:space="preserve" font-family="IowanOldStyle-Italic" font-style="italic" font-size="50.2" fill="#737575" transform="matrix(1.00, 0.00, -0.00, -1.00, 442.0, 185.0)"> </text><text xml:space="preserve" font-family="IowanOldStyle-Italic" font-style="italic" font-size="50.2" fill="#737575" transform="matrix(1.00, 0.00, -0.00, -1.00, 453.0, 185.0)">e</text><text xml:space="preserve" font-family="IowanOldStyle-Italic" font-style="italic" font-size="50.2" fill="#737575" transform="matrix(1.00, 0.00, -0.00, -1.00, 472.0, 185.0)">m</text><text xml:space="preserve" font-family="IowanOldStyle-Italic" font-style="italic" font-size="50.2" fill="#737575" transform="matrix(1.00, 0.00, -0.00, -1.00, 508.8, 185.0)"> </text><text xml:space="preserve" font-family="IowanOldStyle-Italic" font-style="italic" font-size="50.2" fill="#737575" transform="matrix(1.00, 0.00, -0.00, -1.00, 519.8, 185.0)">P</text><text xml:space="preserve" font-family="IowanOldStyle-Italic" font-style="italic" font-size="50.2" fill="#737575" transform="matrix(1.00, 0.00, -0.00, -1.00, 548.6, 185.0)">r</text><text xml:space="preserve" font-family="IowanOldStyle-Italic" font-style="italic" font-size="50.2" fill="#737575" transform="matrix(1.00, 0.00, -0.00, -1.00, 565.8, 185.0)">o</text><text xml:space="preserve" font-family="IowanOldStyle-Italic" font-style="italic" font-size="50.2" fill="#737575" transform="matrix(1.00, 0.00, -0.00, -1.00, 588.6, 185.0)">d</text><text xml:space="preserve" font-family="IowanOldStyle-Italic" font-style="italic" font-size="50.2" fill="#737575" transform="matrix(1.00, 0.00, -0.00, -1.00, 613.0, 185.0)">u</text><text xml:space="preserve" font-family="IowanOldStyle-Italic" font-style="italic" font-size="50.2" fill="#737575" transform="matrix(1.00, 0.00, -0.00, -1.00, 638.2, 185.0)">t</text><text xml:space="preserve" font-family="IowanOldStyle-Italic" font-style="italic" font-size="50.2" fill="#737575" transform="matrix(1.00, 0.00, -0.00, -1.00, 655.1, 185.0)">i</text><text xml:space="preserve" font-family="IowanOldStyle-Italic" font-style="italic" font-size="50.2" fill="#737575" transform="matrix(1.00, 0.00, -0.00, -1.00, 668.9, 185.0)">v</text><text xml:space="preserve" font-family="IowanOldStyle-Italic" font-style="italic" font-size="50.2" fill="#737575" transform="matrix(1.00, 0.00, -0.00, -1.00, 691.9, 185.0)">i</text><text xml:space="preserve" font-family="IowanOldStyle-Italic" font-style="italic" font-size="50.2" fill="#737575" transform="matrix(1.00, 0.00, -0.00, -1.00, 705.7, 185.0)">d</text><text xml:space="preserve" font-family="IowanOldStyle-Italic" font-style="italic" font-size="50.2" fill="#737575" transform="matrix(1.00, 0.00, -0.00, -1.00, 730.1, 185.0)">a</text><text xml:space="preserve" font-family="IowanOldStyle-Italic" font-style="italic" font-size="50.2" fill="#737575" transform="matrix(1.00, 0.00, -0.00, -1.00, 753.8, 185.0)">d</text><text xml:space="preserve" font-family="IowanOldStyle-Italic" font-style="italic" font-size="50.2" fill="#737575" transform="matrix(1.00, 0.00, -0.00, -1.00, 778.2, 185.0)">e</text><text xml:space="preserve" font-family="IowanOldStyle-Italic" font-style="italic" font-size="50.2" fill="#737575" transform="matrix(1.00, 0.00, -0.00, -1.00, 797.3, 185.0)"> </text><text xml:space="preserve" font-family="IowanOldStyle-Italic" font-style="italic" font-size="50.2" fill="#737575" transform="matrix(1.00, 0.00, -0.00, -1.00, 808.3, 185.0)">e</text><text xml:space="preserve" font-family="IowanOldStyle-Italic" font-style="italic" font-size="50.2" fill="#737575" transform="matrix(1.00, 0.00, -0.00, -1.00, 827.4, 185.0)"> </text><text xml:space="preserve" font-family="IowanOldStyle-Italic" font-style="italic" font-size="50.2" fill="#737575" transform="matrix(1.00, 0.00, -0.00, -1.00, 838.4, 185.0)"> </text><image xlink:href="../../E4793BFA-68B6-4966-AC9B-839D55AB8024/assets/C198C5450DD0CE4BA6E771B74CBE1035.png" width="526.00" height="63.00" transform="matrix(1.00, 0.00, -0.00, -1.00, 308.0, 174.0)"></image><text xml:space="preserve" font-family="IowanOldStyle-Italic" font-style="italic" font-size="50.2" fill="#737575" transform="matrix(1.00, 0.00, -0.00, -1.00, 313.0, 130.0)">Q</text><text xml:space="preserve" font-family="IowanOldStyle-Italic" font-style="italic" font-size="50.2" fill="#737575" transform="matrix(1.00, 0.00, -0.00, -1.00, 349.7, 130.0)">u</text><text xml:space="preserve" font-family="IowanOldStyle-Italic" font-style="italic" font-size="50.2" fill="#737575" transform="matrix(1.00, 0.00, -0.00, -1.00, 374.9, 130.0)">a</text><text xml:space="preserve" font-family="IowanOldStyle-Italic" font-style="italic" font-size="50.2" fill="#737575" transform="matrix(1.00, 0.00, -0.00, -1.00, 398.6, 130.0)">l</text><text xml:space="preserve" font-family="IowanOldStyle-Italic" font-style="italic" font-size="50.2" fill="#737575" transform="matrix(1.00, 0.00, -0.00, -1.00, 412.1, 130.0)">i</text><text xml:space="preserve" font-family="IowanOldStyle-Italic" font-style="italic" font-size="50.2" fill="#737575" transform="matrix(1.00, 0.00, -0.00, -1.00, 425.9, 130.0)">d</text><text xml:space="preserve" font-family="IowanOldStyle-Italic" font-style="italic" font-size="50.2" fill="#737575" transform="matrix(1.00, 0.00, -0.00, -1.00, 450.3, 130.0)">a</text><text xml:space="preserve" font-family="IowanOldStyle-Italic" font-style="italic" font-size="50.2" fill="#737575" transform="matrix(1.00, 0.00, -0.00, -1.00, 474.1, 130.0)">d</text><text xml:space="preserve" font-family="IowanOldStyle-Italic" font-style="italic" font-size="50.2" fill="#737575" transform="matrix(1.00, 0.00, -0.00, -1.00, 498.5, 130.0)">e</text><text xml:space="preserve" font-family="IowanOldStyle-Italic" font-style="italic" font-size="50.2" fill="#737575" transform="matrix(1.00, 0.00, -0.00, -1.00, 517.5, 130.0)"> </text><text xml:space="preserve" font-family="IowanOldStyle-Italic" font-style="italic" font-size="50.2" fill="#737575" transform="matrix(1.00, 0.00, -0.00, -1.00, 528.5, 130.0)">n</text><text xml:space="preserve" font-family="IowanOldStyle-Italic" font-style="italic" font-size="50.2" fill="#737575" transform="matrix(1.00, 0.00, -0.00, -1.00, 553.9, 130.0)">o</text><text xml:space="preserve" font-family="IowanOldStyle-Italic" font-style="italic" font-size="50.2" fill="#737575" transform="matrix(1.00, 0.00, -0.00, -1.00, 576.7, 130.0)"> </text><text xml:space="preserve" font-family="IowanOldStyle-Italic" font-style="italic" font-size="50.2" fill="#737575" transform="matrix(1.00, 0.00, -0.00, -1.00, 587.7, 130.0)">s</text><text xml:space="preserve" font-family="IowanOldStyle-Italic" font-style="italic" font-size="50.2" fill="#737575" transform="matrix(1.00, 0.00, -0.00, -1.00, 605.5, 130.0)">e</text><text xml:space="preserve" font-family="IowanOldStyle-Italic" font-style="italic" font-size="50.2" fill="#737575" transform="matrix(1.00, 0.00, -0.00, -1.00, 624.5, 130.0)">u</text><text xml:space="preserve" font-family="IowanOldStyle-Italic" font-style="italic" font-size="50.2" fill="#737575" transform="matrix(1.00, 0.00, -0.00, -1.00, 649.8, 130.0)"> </text><text xml:space="preserve" font-family="IowanOldStyle-Italic" font-style="italic" font-size="50.2" fill="#737575" transform="matrix(1.00, 0.00, -0.00, -1.00, 660.8, 130.0)">t</text><text xml:space="preserve" font-family="IowanOldStyle-Italic" font-style="italic" font-size="50.2" fill="#737575" transform="matrix(1.00, 0.00, -0.00, -1.00, 677.7, 130.0)">r</text><text xml:space="preserve" font-family="IowanOldStyle-Italic" font-style="italic" font-size="50.2" fill="#737575" transform="matrix(1.00, 0.00, -0.00, -1.00, 696.2, 130.0)">a</text><text xml:space="preserve" font-family="IowanOldStyle-Italic" font-style="italic" font-size="50.2" fill="#737575" transform="matrix(1.00, 0.00, -0.00, -1.00, 720.0, 130.0)">b</text><text xml:space="preserve" font-family="IowanOldStyle-Italic" font-style="italic" font-size="50.2" fill="#737575" transform="matrix(1.00, 0.00, -0.00, -1.00, 743.8, 130.0)">a</text><text xml:space="preserve" font-family="IowanOldStyle-Italic" font-style="italic" font-size="50.2" fill="#737575" transform="matrix(1.00, 0.00, -0.00, -1.00, 767.5, 130.0)">l</text><text xml:space="preserve" font-family="IowanOldStyle-Italic" font-style="italic" font-size="50.2" fill="#737575" transform="matrix(1.00, 0.00, -0.00, -1.00, 781.0, 130.0)">h</text><text xml:space="preserve" font-family="IowanOldStyle-Italic" font-style="italic" font-size="50.2" fill="#737575" transform="matrix(1.00, 0.00, -0.00, -1.00, 806.1, 130.0)">o</text><image xlink:href="../../E4793BFA-68B6-4966-AC9B-839D55AB8024/assets/11FE2B93887345ADAED79B94D2087171.png" width="572.00" height="60.00" transform="matrix(1.00, 0.00, -0.00, -1.00, 1048.0, 170.0)"></image><text xml:space="preserve" font-family="IowanOldStyle-Italic" font-style="italic" font-size="44.0" fill="#5C5C5C" transform="matrix(1.00, 0.00, -0.00, -1.00, 1055.0, 131.0)">h</text><text xml:space="preserve" font-family="IowanOldStyle-Italic" font-style="italic" font-size="44.0" fill="#5C5C5C" transform="matrix(1.00, 0.00, -0.00, -1.00, 1077.4, 131.0)">t</text><text xml:space="preserve" font-family="IowanOldStyle-Italic" font-style="italic" font-size="44.0" fill="#5C5C5C" transform="matrix(1.00, 0.00, -0.00, -1.00, 1092.7, 131.0)">t</text><text xml:space="preserve" font-family="IowanOldStyle-Italic" font-style="italic" font-size="44.0" fill="#5C5C5C" transform="matrix(1.00, 0.00, -0.00, -1.00, 1108.0, 131.0)">p</text><text xml:space="preserve" font-family="IowanOldStyle-Italic" font-style="italic" font-size="44.0" fill="#5C5C5C" transform="matrix(1.00, 0.00, -0.00, -1.00, 1129.8, 131.0)">:</text><text xml:space="preserve" font-family="IowanOldStyle-Italic" font-style="italic" font-size="44.0" fill="#5C5C5C" transform="matrix(1.00, 0.00, -0.00, -1.00, 1142.4, 131.0)">/</text><text xml:space="preserve" font-family="IowanOldStyle-Italic" font-style="italic" font-size="44.0" fill="#5C5C5C" transform="matrix(1.00, 0.00, -0.00, -1.00, 1158.7, 131.0)">/</text><text xml:space="preserve" font-family="IowanOldStyle-Italic" font-style="italic" font-size="44.0" fill="#5C5C5C" transform="matrix(1.00, 0.00, -0.00, -1.00, 1174.9, 131.0)">j</text><text xml:space="preserve" font-family="IowanOldStyle-Italic" font-style="italic" font-size="44.0" fill="#5C5C5C" transform="matrix(1.00, 0.00, -0.00, -1.00, 1187.8, 131.0)">o</text><text xml:space="preserve" font-family="IowanOldStyle-Italic" font-style="italic" font-size="44.0" fill="#5C5C5C" transform="matrix(1.00, 0.00, -0.00, -1.00, 1208.2, 131.0)">a</text><text xml:space="preserve" font-family="IowanOldStyle-Italic" font-style="italic" font-size="44.0" fill="#5C5C5C" transform="matrix(1.00, 0.00, -0.00, -1.00, 1229.5, 131.0)">o</text><text xml:space="preserve" font-family="IowanOldStyle-Italic" font-style="italic" font-size="44.0" fill="#5C5C5C" transform="matrix(1.00, 0.00, -0.00, -1.00, 1251.1, 131.0)">-</text><text xml:space="preserve" font-family="IowanOldStyle-Italic" font-style="italic" font-size="44.0" fill="#5C5C5C" transform="matrix(1.00, 0.00, -0.00, -1.00, 1265.1, 131.0)">p</text><text xml:space="preserve" font-family="IowanOldStyle-Italic" font-style="italic" font-size="44.0" fill="#5C5C5C" transform="matrix(1.00, 0.00, -0.00, -1.00, 1286.9, 131.0)">a</text><text xml:space="preserve" font-family="IowanOldStyle-Italic" font-style="italic" font-size="44.0" fill="#5C5C5C" transform="matrix(1.00, 0.00, -0.00, -1.00, 1308.1, 131.0)">r</text><text xml:space="preserve" font-family="IowanOldStyle-Italic" font-style="italic" font-size="44.0" fill="#5C5C5C" transform="matrix(1.00, 0.00, -0.00, -1.00, 1324.8, 131.0)">a</text><text xml:space="preserve" font-family="IowanOldStyle-Italic" font-style="italic" font-size="44.0" fill="#5C5C5C" transform="matrix(1.00, 0.00, -0.00, -1.00, 1346.1, 131.0)">n</text><text xml:space="preserve" font-family="IowanOldStyle-Italic" font-style="italic" font-size="44.0" fill="#5C5C5C" transform="matrix(1.00, 0.00, -0.00, -1.00, 1368.8, 131.0)">a</text><text xml:space="preserve" font-family="IowanOldStyle-Italic" font-style="italic" font-size="44.0" fill="#5C5C5C" transform="matrix(1.00, 0.00, -0.00, -1.00, 1390.0, 131.0)">.</text><text xml:space="preserve" font-family="IowanOldStyle-Italic" font-style="italic" font-size="44.0" fill="#5C5C5C" transform="matrix(1.00, 0.00, -0.00, -1.00, 1402.5, 131.0)">c</text><text xml:space="preserve" font-family="IowanOldStyle-Italic" font-style="italic" font-size="44.0" fill="#5C5C5C" transform="matrix(1.00, 0.00, -0.00, -1.00, 1418.8, 131.0)">o</text><text xml:space="preserve" font-family="IowanOldStyle-Italic" font-style="italic" font-size="44.0" fill="#5C5C5C" transform="matrix(1.00, 0.00, -0.00, -1.00, 1439.2, 131.0)">m</text><text xml:space="preserve" font-family="IowanOldStyle-Italic" font-style="italic" font-size="44.0" fill="#5C5C5C" transform="matrix(1.00, 0.00, -0.00, -1.00, 1471.9, 131.0)">.</text><text xml:space="preserve" font-family="IowanOldStyle-Italic" font-style="italic" font-size="44.0" fill="#5C5C5C" transform="matrix(1.00, 0.00, -0.00, -1.00, 1484.4, 131.0)">b</text><text xml:space="preserve" font-family="IowanOldStyle-Italic" font-style="italic" font-size="44.0" fill="#5C5C5C" transform="matrix(1.00, 0.00, -0.00, -1.00, 1505.7, 131.0)">r</text><text xml:space="preserve" font-family="IowanOldStyle-Italic" font-style="italic" font-size="44.0" fill="#5C5C5C" transform="matrix(1.00, 0.00, -0.00, -1.00, 1522.4, 131.0)">/</text><text xml:space="preserve" font-family="IowanOldStyle-Italic" font-style="italic" font-size="44.0" fill="#5C5C5C" transform="matrix(1.00, 0.00, -0.00, -1.00, 1538.6, 131.0)">b</text><text xml:space="preserve" font-family="IowanOldStyle-Italic" font-style="italic" font-size="44.0" fill="#5C5C5C" transform="matrix(1.00, 0.00, -0.00, -1.00, 1560.0, 131.0)">l</text><text xml:space="preserve" font-family="IowanOldStyle-Italic" font-style="italic" font-size="44.0" fill="#5C5C5C" transform="matrix(1.00, 0.00, -0.00, -1.00, 1572.2, 131.0)">o</text><text xml:space="preserve" font-family="IowanOldStyle-Italic" font-style="italic" font-size="44.0" fill="#5C5C5C" transform="matrix(1.00, 0.00, -0.00, -1.00, 1592.7, 131.0)">g</text><image xlink:href="../../E4793BFA-68B6-4966-AC9B-839D55AB8024/assets/7491E90E29CB4A8F02B3852476E26E9E.png" width="560.00" height="5.00" transform="matrix(1.00, 0.00, -0.00, -1.00, 1054.0, 128.0)"></image><g><clipPath id="clip-288"><path d="M 1054.0 123.1 L 1613.3 123.1 L 1613.3 127.3 L 1054.0 127.3 Z M 1054.0 123.1 "></path></clipPath><g clip-path="url(#clip-288)"><path d="M 5.6 56.7 L 563.9 56.7 " fill="none" stroke="#5C5C5C" stroke-width="2.15" stroke-miterlimit="0.00" transform="matrix(1.00, 0.00, 0.00, -1.00, 1049.4, 181.9)"></path></g></g><image xlink:href="../../E4793BFA-68B6-4966-AC9B-839D55AB8024/assets/AA330AD385EBF09A94FF43BBBC35C10E.png" width="543.00" height="83.00" transform="matrix(1.00, 0.00, -0.00, -1.00, 1333.0, 1068.0)"></image><text xml:space="preserve" font-family="IowanOldStyle-Italic" font-style="italic" font-size="66.0" fill="#000000" transform="matrix(1.00, 0.00, -0.00, -1.00, 1338.0, 1012.0)">C</text><text xml:space="preserve" font-family="IowanOldStyle-Italic" font-style="italic" font-size="66.0" fill="#000000" transform="matrix(1.00, 0.00, -0.00, -1.00, 1381.1, 1012.0)">l</text><text xml:space="preserve" font-family="IowanOldStyle-Italic" font-style="italic" font-size="66.0" fill="#000000" transform="matrix(1.00, 0.00, -0.00, -1.00, 1398.8, 1012.0)">i</text><text xml:space="preserve" font-family="IowanOldStyle-Italic" font-style="italic" font-size="66.0" fill="#000000" transform="matrix(1.00, 0.00, -0.00, -1.00, 1417.0, 1012.0)">q</text><text xml:space="preserve" font-family="IowanOldStyle-Italic" font-style="italic" font-size="66.0" fill="#000000" transform="matrix(1.00, 0.00, -0.00, -1.00, 1447.2, 1012.0)">u</text><text xml:space="preserve" font-family="IowanOldStyle-Italic" font-style="italic" font-size="66.0" fill="#000000" transform="matrix(1.00, 0.00, -0.00, -1.00, 1480.4, 1012.0)">e</text><text xml:space="preserve" font-family="IowanOldStyle-Italic" font-style="italic" font-size="66.0" fill="#000000" transform="matrix(1.00, 0.00, -0.00, -1.00, 1505.4, 1012.0)"> </text><text xml:space="preserve" font-family="IowanOldStyle-Italic" font-style="italic" font-size="66.0" fill="#000000" transform="matrix(1.00, 0.00, -0.00, -1.00, 1519.9, 1012.0)">p</text><text xml:space="preserve" font-family="IowanOldStyle-Italic" font-style="italic" font-size="66.0" fill="#000000" transform="matrix(1.00, 0.00, -0.00, -1.00, 1551.9, 1012.0)">a</text><text xml:space="preserve" font-family="IowanOldStyle-Italic" font-style="italic" font-size="66.0" fill="#000000" transform="matrix(1.00, 0.00, -0.00, -1.00, 1583.2, 1012.0)">r</text><text xml:space="preserve" font-family="IowanOldStyle-Italic" font-style="italic" font-size="66.0" fill="#000000" transform="matrix(1.00, 0.00, -0.00, -1.00, 1607.5, 1012.0)">a</text><text xml:space="preserve" font-family="IowanOldStyle-Italic" font-style="italic" font-size="66.0" fill="#000000" transform="matrix(1.00, 0.00, -0.00, -1.00, 1638.8, 1012.0)"> </text><text xml:space="preserve" font-family="IowanOldStyle-Italic" font-style="italic" font-size="66.0" fill="#000000" transform="matrix(1.00, 0.00, -0.00, -1.00, 1653.2, 1012.0)">A</text><text xml:space="preserve" font-family="IowanOldStyle-Italic" font-style="italic" font-size="66.0" fill="#000000" transform="matrix(1.00, 0.00, -0.00, -1.00, 1695.6, 1012.0)">v</text><text xml:space="preserve" font-family="IowanOldStyle-Italic" font-style="italic" font-size="66.0" fill="#000000" transform="matrix(1.00, 0.00, -0.00, -1.00, 1725.8, 1012.0)">a</text><text xml:space="preserve" font-family="IowanOldStyle-Italic" font-style="italic" font-size="66.0" fill="#000000" transform="matrix(1.00, 0.00, -0.00, -1.00, 1757.0, 1012.0)">n</text><text xml:space="preserve" font-family="IowanOldStyle-Italic" font-style="italic" font-size="66.0" fill="#000000" transform="matrix(1.00, 0.00, -0.00, -1.00, 1790.4, 1012.0)">ç</text><text xml:space="preserve" font-family="IowanOldStyle-Italic" font-style="italic" font-size="66.0" fill="#000000" transform="matrix(1.00, 0.00, -0.00, -1.00, 1814.2, 1012.0)">a</text><text xml:space="preserve" font-family="IowanOldStyle-Italic" font-style="italic" font-size="66.0" fill="#000000" transform="matrix(1.00, 0.00, -0.00, -1.00, 1845.4, 1012.0)">r</text><text xml:space="preserve" font-family="IowanOldStyle-Italic" font-style="italic" font-size="66.0" fill="#000000" transform="matrix(1.00, 0.00, -0.00, -1.00, 1869.8, 1012.0)"> </text><image xlink:href="../../E4793BFA-68B6-4966-AC9B-839D55AB8024/assets/D33550F23C31796E1F4579C59DA0AE5A.png" width="470.00" height="67.00" transform="matrix(1.00, 0.00, -0.00, -1.00, 1369.0, 997.0)"></image><text xml:space="preserve" font-family="IowanOldStyle-Italic" font-style="italic" font-size="66.0" fill="#000000" transform="matrix(1.00, 0.00, -0.00, -1.00, 1375.0, 941.0)">o</text><text xml:space="preserve" font-family="IowanOldStyle-Italic" font-style="italic" font-size="66.0" fill="#000000" transform="matrix(1.00, 0.00, -0.00, -1.00, 1405.0, 941.0)">u</text><text xml:space="preserve" font-family="IowanOldStyle-Italic" font-style="italic" font-size="66.0" fill="#000000" transform="matrix(1.00, 0.00, -0.00, -1.00, 1438.2, 941.0)"> </text><text xml:space="preserve" font-family="IowanOldStyle-Italic" font-style="italic" font-size="66.0" fill="#000000" transform="matrix(1.00, 0.00, -0.00, -1.00, 1452.6, 941.0)">u</text><text xml:space="preserve" font-family="IowanOldStyle-Italic" font-style="italic" font-size="66.0" fill="#000000" transform="matrix(1.00, 0.00, -0.00, -1.00, 1485.8, 941.0)">s</text><text xml:space="preserve" font-family="IowanOldStyle-Italic" font-style="italic" font-size="66.0" fill="#000000" transform="matrix(1.00, 0.00, -0.00, -1.00, 1509.3, 941.0)">e</text><text xml:space="preserve" font-family="IowanOldStyle-Italic" font-style="italic" font-size="66.0" fill="#000000" transform="matrix(1.00, 0.00, -0.00, -1.00, 1534.3, 941.0)"> </text><text xml:space="preserve" font-family="IowanOldStyle-Italic" font-style="italic" font-size="66.0" fill="#000000" transform="matrix(1.00, 0.00, -0.00, -1.00, 1548.8, 941.0)">a</text><text xml:space="preserve" font-family="IowanOldStyle-Italic" font-style="italic" font-size="66.0" fill="#000000" transform="matrix(1.00, 0.00, -0.00, -1.00, 1580.0, 941.0)">s</text><text xml:space="preserve" font-family="IowanOldStyle-Italic" font-style="italic" font-size="66.0" fill="#000000" transform="matrix(1.00, 0.00, -0.00, -1.00, 1603.5, 941.0)"> </text><text xml:space="preserve" font-family="IowanOldStyle-Italic" font-style="italic" font-size="66.0" fill="#000000" transform="matrix(1.00, 0.00, -0.00, -1.00, 1618.0, 941.0)">t</text><text xml:space="preserve" font-family="IowanOldStyle-Italic" font-style="italic" font-size="66.0" fill="#000000" transform="matrix(1.00, 0.00, -0.00, -1.00, 1640.3, 941.0)">e</text><text xml:space="preserve" font-family="IowanOldStyle-Italic" font-style="italic" font-size="66.0" fill="#000000" transform="matrix(1.00, 0.00, -0.00, -1.00, 1665.3, 941.0)">c</text><text xml:space="preserve" font-family="IowanOldStyle-Italic" font-style="italic" font-size="66.0" fill="#000000" transform="matrix(1.00, 0.00, -0.00, -1.00, 1689.1, 941.0)">l</text><text xml:space="preserve" font-family="IowanOldStyle-Italic" font-style="italic" font-size="66.0" fill="#000000" transform="matrix(1.00, 0.00, -0.00, -1.00, 1706.9, 941.0)">a</text><text xml:space="preserve" font-family="IowanOldStyle-Italic" font-style="italic" font-size="66.0" fill="#000000" transform="matrix(1.00, 0.00, -0.00, -1.00, 1738.1, 941.0)">s</text><text xml:space="preserve" font-family="IowanOldStyle-Italic" font-style="italic" font-size="66.0" fill="#000000" transform="matrix(1.00, 0.00, -0.00, -1.00, 1761.5, 941.0)"> </text><text xml:space="preserve" font-family="IowanOldStyle-Italic" font-style="italic" font-size="66.0" fill="#000000" transform="matrix(1.00, 0.00, -0.00, -1.00, 1776.0, 941.0)">d</text><text xml:space="preserve" font-family="IowanOldStyle-Italic" font-style="italic" font-size="66.0" fill="#000000" transform="matrix(1.00, 0.00, -0.00, -1.00, 1808.1, 941.0)">e</text><text xml:space="preserve" font-family="IowanOldStyle-Italic" font-style="italic" font-size="66.0" fill="#000000" transform="matrix(1.00, 0.00, -0.00, -1.00, 1833.2, 941.0)"> </text><text xml:space="preserve" font-family="IowanOldStyle-Italic" font-style="italic" font-size="66.0" fill="#000000" transform="matrix(1.00, 0.00, -0.00, -1.00, 1847.7, 941.0)"> </text><image xlink:href="../../E4793BFA-68B6-4966-AC9B-839D55AB8024/assets/44FFBDEFE20AE05B01B31861BA39D1BD.png" width="633.00" height="83.00" transform="matrix(1.00, 0.00, -0.00, -1.00, 1287.0, 926.0)"></image><text xml:space="preserve" font-family="IowanOldStyle-Italic" font-style="italic" font-size="66.0" fill="#000000" transform="matrix(1.00, 0.00, -0.00, -1.00, 1294.0, 870.0)">n</text><text xml:space="preserve" font-family="IowanOldStyle-Italic" font-style="italic" font-size="66.0" fill="#000000" transform="matrix(1.00, 0.00, -0.00, -1.00, 1327.4, 870.0)">a</text><text xml:space="preserve" font-family="IowanOldStyle-Italic" font-style="italic" font-size="66.0" fill="#000000" transform="matrix(1.00, 0.00, -0.00, -1.00, 1358.6, 870.0)">v</text><text xml:space="preserve" font-family="IowanOldStyle-Italic" font-style="italic" font-size="66.0" fill="#000000" transform="matrix(1.00, 0.00, -0.00, -1.00, 1388.8, 870.0)">e</text><text xml:space="preserve" font-family="IowanOldStyle-Italic" font-style="italic" font-size="66.0" fill="#000000" transform="matrix(1.00, 0.00, -0.00, -1.00, 1413.9, 870.0)">g</text><text xml:space="preserve" font-family="IowanOldStyle-Italic" font-style="italic" font-size="66.0" fill="#000000" transform="matrix(1.00, 0.00, -0.00, -1.00, 1444.2, 870.0)">a</text><text xml:space="preserve" font-family="IowanOldStyle-Italic" font-style="italic" font-size="66.0" fill="#000000" transform="matrix(1.00, 0.00, -0.00, -1.00, 1475.4, 870.0)">ç</text><text xml:space="preserve" font-family="IowanOldStyle-Italic" font-style="italic" font-size="66.0" fill="#000000" transform="matrix(1.00, 0.00, -0.00, -1.00, 1499.2, 870.0)">ã</text><text xml:space="preserve" font-family="IowanOldStyle-Italic" font-style="italic" font-size="66.0" fill="#000000" transform="matrix(1.00, 0.00, -0.00, -1.00, 1530.5, 870.0)">o</text><text xml:space="preserve" font-family="IowanOldStyle-Italic" font-style="italic" font-size="66.0" fill="#000000" transform="matrix(1.00, 0.00, -0.00, -1.00, 1560.4, 870.0)">d</text><text xml:space="preserve" font-family="IowanOldStyle-Italic" font-style="italic" font-size="66.0" fill="#000000" transform="matrix(1.00, 0.00, -0.00, -1.00, 1592.6, 870.0)">o</text><text xml:space="preserve" font-family="IowanOldStyle-Italic" font-style="italic" font-size="66.0" fill="#000000" transform="matrix(1.00, 0.00, -0.00, -1.00, 1622.5, 870.0)"> </text><text xml:space="preserve" font-family="IowanOldStyle-Italic" font-style="italic" font-size="66.0" fill="#000000" transform="matrix(1.00, 0.00, -0.00, -1.00, 1637.0, 870.0)">s</text><text xml:space="preserve" font-family="IowanOldStyle-Italic" font-style="italic" font-size="66.0" fill="#000000" transform="matrix(1.00, 0.00, -0.00, -1.00, 1660.5, 870.0)">e</text><text xml:space="preserve" font-family="IowanOldStyle-Italic" font-style="italic" font-size="66.0" fill="#000000" transform="matrix(1.00, 0.00, -0.00, -1.00, 1685.5, 870.0)">u</text><text xml:space="preserve" font-family="IowanOldStyle-Italic" font-style="italic" font-size="66.0" fill="#000000" transform="matrix(1.00, 0.00, -0.00, -1.00, 1718.7, 870.0)"> </text><text xml:space="preserve" font-family="IowanOldStyle-Italic" font-style="italic" font-size="66.0" fill="#000000" transform="matrix(1.00, 0.00, -0.00, -1.00, 1733.2, 870.0)">t</text><text xml:space="preserve" font-family="IowanOldStyle-Italic" font-style="italic" font-size="66.0" fill="#000000" transform="matrix(1.00, 0.00, -0.00, -1.00, 1755.5, 870.0)">e</text><text xml:space="preserve" font-family="IowanOldStyle-Italic" font-style="italic" font-size="66.0" fill="#000000" transform="matrix(1.00, 0.00, -0.00, -1.00, 1780.6, 870.0)">c</text><text xml:space="preserve" font-family="IowanOldStyle-Italic" font-style="italic" font-size="66.0" fill="#000000" transform="matrix(1.00, 0.00, -0.00, -1.00, 1804.4, 870.0)">l</text><text xml:space="preserve" font-family="IowanOldStyle-Italic" font-style="italic" font-size="66.0" fill="#000000" transform="matrix(1.00, 0.00, -0.00, -1.00, 1822.1, 870.0)">a</text><text xml:space="preserve" font-family="IowanOldStyle-Italic" font-style="italic" font-size="66.0" fill="#000000" transform="matrix(1.00, 0.00, -0.00, -1.00, 1853.3, 870.0)">d</text><text xml:space="preserve" font-family="IowanOldStyle-Italic" font-style="italic" font-size="66.0" fill="#000000" transform="matrix(1.00, 0.00, -0.00, -1.00, 1885.5, 870.0)">o</text><g><clipPath id="clip-289"><path d="M 1352.0 832.0 L 1857.0 832.0 L 1857.0 534.0 L 1352.0 534.0 Z M 1352.2 831.7 "></path></clipPath><g clip-path="url(#clip-289)"><image xlink:href="../../E4793BFA-68B6-4966-AC9B-839D55AB8024/assets/3DDD77FD5D6C79E7876288D234E6D6C0.png" width="132.00" height="93.00" transform="matrix(3.89, 0.00, -0.00, -3.89, 1347.0, 864.0)"></image></g></g><image xlink:href="../../E4793BFA-68B6-4966-AC9B-839D55AB8024/assets/638865C82D1F798FE95E2095313E7A0B.png" width="532.00" height="334.00" transform="matrix(1.00, 0.00, -0.00, 1.00, 1338.2, 506.5)"></image></g></svg>