<?xml version="1.0" encoding="UTF-8" standalone="no"?><svg xmlns="http://www.w3.org/2000/svg" xmlns:xlink="http://www.w3.org/1999/xlink" clip-rule="evenodd" stroke-miterlimit="4.00" viewBox="0 0 542 121"><desc>SVG generated by Keynote</desc><defs></defs><g transform="matrix(1.00, 0.00, -0.00, -1.00, 0.0, 121.0)"><image xlink:href="779FFDE4785D228038CE8579D966771B.png" width="524.00" height="55.00" transform="matrix(1.00, 0.00, -0.00, -1.00, 3.0, 119.0)"></image><text xml:space="preserve" font-family="IowanOldStyle-Italic" font-style="italic" font-size="50.2" fill="#737575" transform="matrix(1.00, 0.00, -0.00, -1.00, 8.0, 75.0)">G</text><text xml:space="preserve" font-family="IowanOldStyle-Italic" font-style="italic" font-size="50.2" fill="#737575" transform="matrix(1.00, 0.00, -0.00, -1.00, 42.8, 75.0)">a</text><text xml:space="preserve" font-family="IowanOldStyle-Italic" font-style="italic" font-size="50.2" fill="#737575" transform="matrix(1.00, 0.00, -0.00, -1.00, 66.5, 75.0)">n</text><text xml:space="preserve" font-family="IowanOldStyle-Italic" font-style="italic" font-size="50.2" fill="#737575" transform="matrix(1.00, 0.00, -0.00, -1.00, 91.9, 75.0)">h</text><text xml:space="preserve" font-family="IowanOldStyle-Italic" font-style="italic" font-size="50.2" fill="#737575" transform="matrix(1.00, 0.00, -0.00, -1.00, 116.9, 75.0)">e</text><text xml:space="preserve" font-family="IowanOldStyle-Italic" font-style="italic" font-size="50.2" fill="#737575" transform="matrix(1.00, 0.00, -0.00, -1.00, 136.0, 75.0)"> </text><text xml:space="preserve" font-family="IowanOldStyle-Italic" font-style="italic" font-size="50.2" fill="#737575" transform="matrix(1.00, 0.00, -0.00, -1.00, 147.0, 75.0)">e</text><text xml:space="preserve" font-family="IowanOldStyle-Italic" font-style="italic" font-size="50.2" fill="#737575" transform="matrix(1.00, 0.00, -0.00, -1.00, 166.0, 75.0)">m</text><text xml:space="preserve" font-family="IowanOldStyle-Italic" font-style="italic" font-size="50.2" fill="#737575" transform="matrix(1.00, 0.00, -0.00, -1.00, 202.8, 75.0)"> </text><text xml:space="preserve" font-family="IowanOldStyle-Italic" font-style="italic" font-size="50.2" fill="#737575" transform="matrix(1.00, 0.00, -0.00, -1.00, 213.8, 75.0)">P</text><text xml:space="preserve" font-family="IowanOldStyle-Italic" font-style="italic" font-size="50.2" fill="#737575" transform="matrix(1.00, 0.00, -0.00, -1.00, 242.6, 75.0)">r</text><text xml:space="preserve" font-family="IowanOldStyle-Italic" font-style="italic" font-size="50.2" fill="#737575" transform="matrix(1.00, 0.00, -0.00, -1.00, 259.8, 75.0)">o</text><text xml:space="preserve" font-family="IowanOldStyle-Italic" font-style="italic" font-size="50.2" fill="#737575" transform="matrix(1.00, 0.00, -0.00, -1.00, 282.6, 75.0)">d</text><text xml:space="preserve" font-family="IowanOldStyle-Italic" font-style="italic" font-size="50.2" fill="#737575" transform="matrix(1.00, 0.00, -0.00, -1.00, 307.0, 75.0)">u</text><text xml:space="preserve" font-family="IowanOldStyle-Italic" font-style="italic" font-size="50.2" fill="#737575" transform="matrix(1.00, 0.00, -0.00, -1.00, 332.2, 75.0)">t</text><text xml:space="preserve" font-family="IowanOldStyle-Italic" font-style="italic" font-size="50.2" fill="#737575" transform="matrix(1.00, 0.00, -0.00, -1.00, 349.1, 75.0)">i</text><text xml:space="preserve" font-family="IowanOldStyle-Italic" font-style="italic" font-size="50.2" fill="#737575" transform="matrix(1.00, 0.00, -0.00, -1.00, 362.9, 75.0)">v</text><text xml:space="preserve" font-family="IowanOldStyle-Italic" font-style="italic" font-size="50.2" fill="#737575" transform="matrix(1.00, 0.00, -0.00, -1.00, 385.9, 75.0)">i</text><text xml:space="preserve" font-family="IowanOldStyle-Italic" font-style="italic" font-size="50.2" fill="#737575" transform="matrix(1.00, 0.00, -0.00, -1.00, 399.7, 75.0)">d</text><text xml:space="preserve" font-family="IowanOldStyle-Italic" font-style="italic" font-size="50.2" fill="#737575" transform="matrix(1.00, 0.00, -0.00, -1.00, 424.1, 75.0)">a</text><text xml:space="preserve" font-family="IowanOldStyle-Italic" font-style="italic" font-size="50.2" fill="#737575" transform="matrix(1.00, 0.00, -0.00, -1.00, 447.8, 75.0)">d</text><text xml:space="preserve" font-family="IowanOldStyle-Italic" font-style="italic" font-size="50.2" fill="#737575" transform="matrix(1.00, 0.00, -0.00, -1.00, 472.2, 75.0)">e</text><text xml:space="preserve" font-family="IowanOldStyle-Italic" font-style="italic" font-size="50.2" fill="#737575" transform="matrix(1.00, 0.00, -0.00, -1.00, 491.3, 75.0)"> </text><text xml:space="preserve" font-family="IowanOldStyle-Italic" font-style="italic" font-size="50.2" fill="#737575" transform="matrix(1.00, 0.00, -0.00, -1.00, 502.3, 75.0)">e</text><text xml:space="preserve" font-family="IowanOldStyle-Italic" font-style="italic" font-size="50.2" fill="#737575" transform="matrix(1.00, 0.00, -0.00, -1.00, 521.4, 75.0)"> </text><text xml:space="preserve" font-family="IowanOldStyle-Italic" font-style="italic" font-size="50.2" fill="#737575" transform="matrix(1.00, 0.00, -0.00, -1.00, 532.4, 75.0)"> </text><image xlink:href="C198C5450DD0CE4BA6E771B74CBE1035.png" width="526.00" height="63.00" transform="matrix(1.00, 0.00, -0.00, -1.00, 2.0, 64.0)"></image><text xml:space="preserve" font-family="IowanOldStyle-Italic" font-style="italic" font-size="50.2" fill="#737575" transform="matrix(1.00, 0.00, -0.00, -1.00, 7.0, 20.0)">Q</text><text xml:space="preserve" font-family="IowanOldStyle-Italic" font-style="italic" font-size="50.2" fill="#737575" transform="matrix(1.00, 0.00, -0.00, -1.00, 43.7, 20.0)">u</text><text xml:space="preserve" font-family="IowanOldStyle-Italic" font-style="italic" font-size="50.2" fill="#737575" transform="matrix(1.00, 0.00, -0.00, -1.00, 68.9, 20.0)">a</text><text xml:space="preserve" font-family="IowanOldStyle-Italic" font-style="italic" font-size="50.2" fill="#737575" transform="matrix(1.00, 0.00, -0.00, -1.00, 92.6, 20.0)">l</text><text xml:space="preserve" font-family="IowanOldStyle-Italic" font-style="italic" font-size="50.2" fill="#737575" transform="matrix(1.00, 0.00, -0.00, -1.00, 106.1, 20.0)">i</text><text xml:space="preserve" font-family="IowanOldStyle-Italic" font-style="italic" font-size="50.2" fill="#737575" transform="matrix(1.00, 0.00, -0.00, -1.00, 119.9, 20.0)">d</text><text xml:space="preserve" font-family="IowanOldStyle-Italic" font-style="italic" font-size="50.2" fill="#737575" transform="matrix(1.00, 0.00, -0.00, -1.00, 144.3, 20.0)">a</text><text xml:space="preserve" font-family="IowanOldStyle-Italic" font-style="italic" font-size="50.2" fill="#737575" transform="matrix(1.00, 0.00, -0.00, -1.00, 168.1, 20.0)">d</text><text xml:space="preserve" font-family="IowanOldStyle-Italic" font-style="italic" font-size="50.2" fill="#737575" transform="matrix(1.00, 0.00, -0.00, -1.00, 192.5, 20.0)">e</text><text xml:space="preserve" font-family="IowanOldStyle-Italic" font-style="italic" font-size="50.2" fill="#737575" transform="matrix(1.00, 0.00, -0.00, -1.00, 211.5, 20.0)"> </text><text xml:space="preserve" font-family="IowanOldStyle-Italic" font-style="italic" font-size="50.2" fill="#737575" transform="matrix(1.00, 0.00, -0.00, -1.00, 222.5, 20.0)">n</text><text xml:space="preserve" font-family="IowanOldStyle-Italic" font-style="italic" font-size="50.2" fill="#737575" transform="matrix(1.00, 0.00, -0.00, -1.00, 247.9, 20.0)">o</text><text xml:space="preserve" font-family="IowanOldStyle-Italic" font-style="italic" font-size="50.2" fill="#737575" transform="matrix(1.00, 0.00, -0.00, -1.00, 270.7, 20.0)"> </text><text xml:space="preserve" font-family="IowanOldStyle-Italic" font-style="italic" font-size="50.2" fill="#737575" transform="matrix(1.00, 0.00, -0.00, -1.00, 281.7, 20.0)">s</text><text xml:space="preserve" font-family="IowanOldStyle-Italic" font-style="italic" font-size="50.2" fill="#737575" transform="matrix(1.00, 0.00, -0.00, -1.00, 299.5, 20.0)">e</text><text xml:space="preserve" font-family="IowanOldStyle-Italic" font-style="italic" font-size="50.2" fill="#737575" transform="matrix(1.00, 0.00, -0.00, -1.00, 318.5, 20.0)">u</text><text xml:space="preserve" font-family="IowanOldStyle-Italic" font-style="italic" font-size="50.2" fill="#737575" transform="matrix(1.00, 0.00, -0.00, -1.00, 343.8, 20.0)"> </text><text xml:space="preserve" font-family="IowanOldStyle-Italic" font-style="italic" font-size="50.2" fill="#737575" transform="matrix(1.00, 0.00, -0.00, -1.00, 354.8, 20.0)">t</text><text xml:space="preserve" font-family="IowanOldStyle-Italic" font-style="italic" font-size="50.2" fill="#737575" transform="matrix(1.00, 0.00, -0.00, -1.00, 371.7, 20.0)">r</text><text xml:space="preserve" font-family="IowanOldStyle-Italic" font-style="italic" font-size="50.2" fill="#737575" transform="matrix(1.00, 0.00, -0.00, -1.00, 390.2, 20.0)">a</text><text xml:space="preserve" font-family="IowanOldStyle-Italic" font-style="italic" font-size="50.2" fill="#737575" transform="matrix(1.00, 0.00, -0.00, -1.00, 414.0, 20.0)">b</text><text xml:space="preserve" font-family="IowanOldStyle-Italic" font-style="italic" font-size="50.2" fill="#737575" transform="matrix(1.00, 0.00, -0.00, -1.00, 437.8, 20.0)">a</text><text xml:space="preserve" font-family="IowanOldStyle-Italic" font-style="italic" font-size="50.2" fill="#737575" transform="matrix(1.00, 0.00, -0.00, -1.00, 461.5, 20.0)">l</text><text xml:space="preserve" font-family="IowanOldStyle-Italic" font-style="italic" font-size="50.2" fill="#737575" transform="matrix(1.00, 0.00, -0.00, -1.00, 475.0, 20.0)">h</text><text xml:space="preserve" font-family="IowanOldStyle-Italic" font-style="italic" font-size="50.2" fill="#737575" transform="matrix(1.00, 0.00, -0.00, -1.00, 500.1, 20.0)">o</text></g></svg>