<?xml version="1.0" encoding="UTF-8" standalone="no"?><svg xmlns="http://www.w3.org/2000/svg" xmlns:xlink="http://www.w3.org/1999/xlink" clip-rule="evenodd" stroke-miterlimit="4.00" viewBox="0 0 1920 1080"><desc>SVG generated by Keynote</desc><defs></defs><g transform="matrix(1.00, 0.00, -0.00, -1.00, 0.0, 1080.0)"><path d="M 0.0 1080.0 L 1920.0 1080.0 L 1920.0 0.0 L 0.0 0.0 Z M 0.0 1080.0 " fill="#FFFFFF"></path><path d="M 1076.8 1069.9 L 1912.4 1069.9 L 1912.4 918.1 L 1076.8 918.1 Z M 1076.8 1069.9 " fill="#FFFFFF"></path><image xlink:href="../../E4793BFA-68B6-4966-AC9B-839D55AB8024/assets/6805D3FD6E710A9365DF74CB3AD9C4D0.png" width="841.00" height="150.00" transform="matrix(1.00, 0.00, -0.00, -1.00, 1107.9, 1033.4)" opacity="0.75"></image><text xml:space="preserve" font-family="DINCondensed-Bold" font-weight="bold" font-size="60.0" fill="#605C68" transform="matrix(1.00, 0.00, -0.00, -1.00, 1234.0, 981.0)">h</text><text xml:space="preserve" font-family="DINCondensed-Bold" font-weight="bold" font-size="60.0" fill="#605C68" transform="matrix(1.00, 0.00, -0.00, -1.00, 1257.3, 981.0)">t</text><text xml:space="preserve" font-family="DINCondensed-Bold" font-weight="bold" font-size="60.0" fill="#605C68" transform="matrix(1.00, 0.00, -0.00, -1.00, 1269.6, 981.0)">t</text><text xml:space="preserve" font-family="DINCondensed-Bold" font-weight="bold" font-size="60.0" fill="#605C68" transform="matrix(1.00, 0.00, -0.00, -1.00, 1281.8, 981.0)">p</text><text xml:space="preserve" font-family="DINCondensed-Bold" font-weight="bold" font-size="60.0" fill="#605C68" transform="matrix(1.00, 0.00, -0.00, -1.00, 1305.2, 981.0)">:</text><text xml:space="preserve" font-family="DINCondensed-Bold" font-weight="bold" font-size="60.0" fill="#605C68" transform="matrix(1.00, 0.00, -0.00, -1.00, 1316.3, 981.0)">/</text><text xml:space="preserve" font-family="DINCondensed-Bold" font-weight="bold" font-size="60.0" fill="#605C68" transform="matrix(1.00, 0.00, -0.00, -1.00, 1329.6, 981.0)">/</text><text xml:space="preserve" font-family="DINCondensed-Bold" font-weight="bold" font-size="60.0" fill="#605C68" transform="matrix(1.00, 0.00, -0.00, -1.00, 1343.0, 981.0)">j</text><text xml:space="preserve" font-family="DINCondensed-Bold" font-weight="bold" font-size="60.0" fill="#605C68" transform="matrix(1.00, 0.00, -0.00, -1.00, 1354.1, 981.0)">o</text><text xml:space="preserve" font-family="DINCondensed-Bold" font-weight="bold" font-size="60.0" fill="#605C68" transform="matrix(1.00, 0.00, -0.00, -1.00, 1376.3, 981.0)">a</text><text xml:space="preserve" font-family="DINCondensed-Bold" font-weight="bold" font-size="60.0" fill="#605C68" transform="matrix(1.00, 0.00, -0.00, -1.00, 1398.5, 981.0)">o</text><text xml:space="preserve" font-family="DINCondensed-Bold" font-weight="bold" font-size="60.0" fill="#605C68" transform="matrix(1.00, 0.00, -0.00, -1.00, 1420.7, 981.0)">-</text><text xml:space="preserve" font-family="DINCondensed-Bold" font-weight="bold" font-size="60.0" fill="#605C68" transform="matrix(1.00, 0.00, -0.00, -1.00, 1444.1, 981.0)">p</text><text xml:space="preserve" font-family="DINCondensed-Bold" font-weight="bold" font-size="60.0" fill="#605C68" transform="matrix(1.00, 0.00, -0.00, -1.00, 1467.4, 981.0)">a</text><text xml:space="preserve" font-family="DINCondensed-Bold" font-weight="bold" font-size="60.0" fill="#605C68" transform="matrix(1.00, 0.00, -0.00, -1.00, 1489.6, 981.0)">r</text><text xml:space="preserve" font-family="DINCondensed-Bold" font-weight="bold" font-size="60.0" fill="#605C68" transform="matrix(1.00, 0.00, -0.00, -1.00, 1505.9, 981.0)">a</text><text xml:space="preserve" font-family="DINCondensed-Bold" font-weight="bold" font-size="60.0" fill="#605C68" transform="matrix(1.00, 0.00, -0.00, -1.00, 1528.1, 981.0)">n</text><text xml:space="preserve" font-family="DINCondensed-Bold" font-weight="bold" font-size="60.0" fill="#605C68" transform="matrix(1.00, 0.00, -0.00, -1.00, 1551.5, 981.0)">a</text><text xml:space="preserve" font-family="DINCondensed-Bold" font-weight="bold" font-size="60.0" fill="#605C68" transform="matrix(1.00, 0.00, -0.00, -1.00, 1573.7, 981.0)">.</text><text xml:space="preserve" font-family="DINCondensed-Bold" font-weight="bold" font-size="60.0" fill="#605C68" transform="matrix(1.00, 0.00, -0.00, -1.00, 1584.8, 981.0)">c</text><text xml:space="preserve" font-family="DINCondensed-Bold" font-weight="bold" font-size="60.0" fill="#605C68" transform="matrix(1.00, 0.00, -0.00, -1.00, 1607.0, 981.0)">o</text><text xml:space="preserve" font-family="DINCondensed-Bold" font-weight="bold" font-size="60.0" fill="#605C68" transform="matrix(1.00, 0.00, -0.00, -1.00, 1629.2, 981.0)">m</text><text xml:space="preserve" font-family="DINCondensed-Bold" font-weight="bold" font-size="60.0" fill="#605C68" transform="matrix(1.00, 0.00, -0.00, -1.00, 1664.7, 981.0)">.</text><text xml:space="preserve" font-family="DINCondensed-Bold" font-weight="bold" font-size="60.0" fill="#605C68" transform="matrix(1.00, 0.00, -0.00, -1.00, 1675.9, 981.0)">b</text><text xml:space="preserve" font-family="DINCondensed-Bold" font-weight="bold" font-size="60.0" fill="#605C68" transform="matrix(1.00, 0.00, -0.00, -1.00, 1699.2, 981.0)">r</text><text xml:space="preserve" font-family="DINCondensed-Bold" font-weight="bold" font-size="60.0" fill="#605C68" transform="matrix(1.00, 0.00, -0.00, -1.00, 1715.9, 981.0)">/</text><text xml:space="preserve" font-family="DINCondensed-Bold" font-weight="bold" font-size="60.0" fill="#605C68" transform="matrix(1.00, 0.00, -0.00, -1.00, 1729.2, 981.0)">b</text><text xml:space="preserve" font-family="DINCondensed-Bold" font-weight="bold" font-size="60.0" fill="#605C68" transform="matrix(1.00, 0.00, -0.00, -1.00, 1752.6, 981.0)">l</text><text xml:space="preserve" font-family="DINCondensed-Bold" font-weight="bold" font-size="60.0" fill="#605C68" transform="matrix(1.00, 0.00, -0.00, -1.00, 1763.7, 981.0)">o</text><text xml:space="preserve" font-family="DINCondensed-Bold" font-weight="bold" font-size="60.0" fill="#605C68" transform="matrix(1.00, 0.00, -0.00, -1.00, 1785.9, 981.0)">g</text><text xml:space="preserve" font-family="DINCondensed-Bold" font-weight="bold" font-size="60.0" fill="#605C68" transform="matrix(1.00, 0.00, -0.00, -1.00, 1809.3, 981.0)">/</text><path d="M 0.0 0.0 L 1898.4 0.0 " fill="none" stroke="#747676" stroke-width="4.00" stroke-linecap="round" stroke-linejoin="round" stroke-dasharray="0.0, 12.0" transform="matrix(1.00, 0.00, 0.00, -1.00, 10.8, 905.6)"></path><image xlink:href="../../FBC87DBD-E56F-4646-A7E0-17099DF8CF5F/assets/990806D64BCA10C78831EA853023B683.png" width="672.00" height="96.00" transform="matrix(1.00, 0.00, -0.00, -1.00, 40.0, 1043.0)"></image><text xml:space="preserve" font-family="DINCondensed-Bold" font-weight="bold" font-size="86.0" fill="#747676" transform="matrix(1.00, 0.00, -0.00, -1.00, 31.0, 976.0)"> </text><text xml:space="preserve" font-family="DINCondensed-Bold" font-weight="bold" font-size="86.0" fill="#747676" transform="matrix(1.00, 0.00, -0.00, -1.00, 47.0, 976.0)">A</text><text xml:space="preserve" font-family="DINCondensed-Bold" font-weight="bold" font-size="86.0" fill="#747676" transform="matrix(1.00, 0.00, -0.00, -1.00, 82.0, 976.0)">d</text><text xml:space="preserve" font-family="DINCondensed-Bold" font-weight="bold" font-size="86.0" fill="#747676" transform="matrix(1.00, 0.00, -0.00, -1.00, 115.5, 976.0)">o</text><text xml:space="preserve" font-family="DINCondensed-Bold" font-weight="bold" font-size="86.0" fill="#747676" transform="matrix(1.00, 0.00, -0.00, -1.00, 147.3, 976.0)">ç</text><text xml:space="preserve" font-family="DINCondensed-Bold" font-weight="bold" font-size="86.0" fill="#747676" transform="matrix(1.00, 0.00, -0.00, -1.00, 179.1, 976.0)">ã</text><text xml:space="preserve" font-family="DINCondensed-Bold" font-weight="bold" font-size="86.0" fill="#747676" transform="matrix(1.00, 0.00, -0.00, -1.00, 210.9, 976.0)">o</text><text xml:space="preserve" font-family="DINCondensed-Bold" font-weight="bold" font-size="86.0" fill="#747676" transform="matrix(1.00, 0.00, -0.00, -1.00, 242.7, 976.0)"> </text><text xml:space="preserve" font-family="DINCondensed-Bold" font-weight="bold" font-size="86.0" fill="#747676" transform="matrix(1.00, 0.00, -0.00, -1.00, 258.7, 976.0)">d</text><text xml:space="preserve" font-family="DINCondensed-Bold" font-weight="bold" font-size="86.0" fill="#747676" transform="matrix(1.00, 0.00, -0.00, -1.00, 292.2, 976.0)">o</text><text xml:space="preserve" font-family="DINCondensed-Bold" font-weight="bold" font-size="86.0" fill="#747676" transform="matrix(1.00, 0.00, -0.00, -1.00, 324.0, 976.0)"> </text><text xml:space="preserve" font-family="DINCondensed-Bold" font-weight="bold" font-size="86.0" fill="#747676" transform="matrix(1.00, 0.00, -0.00, -1.00, 340.0, 976.0)">D</text><text xml:space="preserve" font-family="DINCondensed-Bold" font-weight="bold" font-size="86.0" fill="#747676" transform="matrix(1.00, 0.00, -0.00, -1.00, 376.6, 976.0)">o</text><text xml:space="preserve" font-family="DINCondensed-Bold" font-weight="bold" font-size="86.0" fill="#747676" transform="matrix(1.00, 0.00, -0.00, -1.00, 408.5, 976.0)">c</text><text xml:space="preserve" font-family="DINCondensed-Bold" font-weight="bold" font-size="86.0" fill="#747676" transform="matrix(1.00, 0.00, -0.00, -1.00, 439.2, 976.0)">k</text><text xml:space="preserve" font-family="DINCondensed-Bold" font-weight="bold" font-size="86.0" fill="#747676" transform="matrix(1.00, 0.00, -0.00, -1.00, 471.7, 976.0)">e</text><text xml:space="preserve" font-family="DINCondensed-Bold" font-weight="bold" font-size="86.0" fill="#747676" transform="matrix(1.00, 0.00, -0.00, -1.00, 503.5, 976.0)">r</text><text xml:space="preserve" font-family="DINCondensed-Bold" font-weight="bold" font-size="86.0" fill="#747676" transform="matrix(1.00, 0.00, -0.00, -1.00, 527.4, 976.0)"> </text><text xml:space="preserve" font-family="DINCondensed-Bold" font-weight="bold" font-size="86.0" fill="#747676" transform="matrix(1.00, 0.00, -0.00, -1.00, 543.4, 976.0)">p</text><text xml:space="preserve" font-family="DINCondensed-Bold" font-weight="bold" font-size="86.0" fill="#747676" transform="matrix(1.00, 0.00, -0.00, -1.00, 576.8, 976.0)">e</text><text xml:space="preserve" font-family="DINCondensed-Bold" font-weight="bold" font-size="86.0" fill="#747676" transform="matrix(1.00, 0.00, -0.00, -1.00, 608.7, 976.0)">l</text><text xml:space="preserve" font-family="DINCondensed-Bold" font-weight="bold" font-size="86.0" fill="#747676" transform="matrix(1.00, 0.00, -0.00, -1.00, 624.7, 976.0)">a</text><text xml:space="preserve" font-family="DINCondensed-Bold" font-weight="bold" font-size="86.0" fill="#747676" transform="matrix(1.00, 0.00, -0.00, -1.00, 656.5, 976.0)"> </text><text xml:space="preserve" font-family="DINCondensed-Bold" font-weight="bold" font-size="86.0" fill="#747676" transform="matrix(1.00, 0.00, -0.00, -1.00, 672.5, 976.0)">C</text><image xlink:href="../../FBC87DBD-E56F-4646-A7E0-17099DF8CF5F/assets/A21C67885A1F25B97791E19C634A4299.png" width="305.00" height="77.00" transform="matrix(1.00, 0.00, -0.00, -1.00, 703.0, 1043.0)"></image><text xml:space="preserve" font-family="DINCondensed-Bold" font-weight="bold" font-size="86.0" fill="#747676" transform="matrix(1.00, 0.00, -0.00, -1.00, 707.5, 976.0)">o</text><text xml:space="preserve" font-family="DINCondensed-Bold" font-weight="bold" font-size="86.0" fill="#747676" transform="matrix(1.00, 0.00, -0.00, -1.00, 739.3, 976.0)">m</text><text xml:space="preserve" font-family="DINCondensed-Bold" font-weight="bold" font-size="86.0" fill="#747676" transform="matrix(1.00, 0.00, -0.00, -1.00, 790.2, 976.0)">u</text><text xml:space="preserve" font-family="DINCondensed-Bold" font-weight="bold" font-size="86.0" fill="#747676" transform="matrix(1.00, 0.00, -0.00, -1.00, 823.7, 976.0)">n</text><text xml:space="preserve" font-family="DINCondensed-Bold" font-weight="bold" font-size="86.0" fill="#747676" transform="matrix(1.00, 0.00, -0.00, -1.00, 857.1, 976.0)">i</text><text xml:space="preserve" font-family="DINCondensed-Bold" font-weight="bold" font-size="86.0" fill="#747676" transform="matrix(1.00, 0.00, -0.00, -1.00, 873.1, 976.0)">d</text><text xml:space="preserve" font-family="DINCondensed-Bold" font-weight="bold" font-size="86.0" fill="#747676" transform="matrix(1.00, 0.00, -0.00, -1.00, 906.6, 976.0)">a</text><text xml:space="preserve" font-family="DINCondensed-Bold" font-weight="bold" font-size="86.0" fill="#747676" transform="matrix(1.00, 0.00, -0.00, -1.00, 938.4, 976.0)">d</text><text xml:space="preserve" font-family="DINCondensed-Bold" font-weight="bold" font-size="86.0" fill="#747676" transform="matrix(1.00, 0.00, -0.00, -1.00, 971.8, 976.0)">e</text><image xlink:href="../../DE5B4011-7978-4E63-BF58-FDEC8BC2296E/assets/0AED7D7848D585CF82952309ED08F121.png" width="39.00" height="38.00" transform="matrix(1.00, 0.00, -0.00, -1.00, 32.0, 849.0)"></image><text xml:space="preserve" font-family="ZapfDingbatsITC" font-size="33.0" fill="#929000" transform="matrix(1.00, 0.00, -0.00, -1.00, 38.3, 820.7)">❖</text><image xlink:href="../../C5C0C42A-2EBE-4C67-B271-771999DD9523/assets/2819CA695CDD8CF035C5B16018A414C2.png" width="974.00" height="60.00" transform="matrix(1.00, 0.00, -0.00, -1.00, 84.0, 855.0)"></image><text xml:space="preserve" font-family="IowanOldStyle-Roman" font-size="44.0" fill="#5C5C5C" transform="matrix(1.00, 0.00, -0.00, -1.00, 89.0, 816.0)">O</text><text xml:space="preserve" font-family="IowanOldStyle-Roman" font-size="44.0" fill="#5C5C5C" transform="matrix(1.00, 0.00, -0.00, -1.00, 124.3, 816.0)"> </text><text xml:space="preserve" font-family="IowanOldStyle-Roman" font-size="44.0" fill="#5C5C5C" transform="matrix(1.00, 0.00, -0.00, -1.00, 136.5, 816.0)">q</text><text xml:space="preserve" font-family="IowanOldStyle-Roman" font-size="44.0" fill="#5C5C5C" transform="matrix(1.00, 0.00, -0.00, -1.00, 161.0, 816.0)">u</text><text xml:space="preserve" font-family="IowanOldStyle-Roman" font-size="44.0" fill="#5C5C5C" transform="matrix(1.00, 0.00, -0.00, -1.00, 186.9, 816.0)">e</text><text xml:space="preserve" font-family="IowanOldStyle-Roman" font-size="44.0" fill="#5C5C5C" transform="matrix(1.00, 0.00, -0.00, -1.00, 208.4, 816.0)"> </text><text xml:space="preserve" font-family="IowanOldStyle-Roman" font-size="44.0" fill="#5C5C5C" transform="matrix(1.00, 0.00, -0.00, -1.00, 220.6, 816.0)">i</text><text xml:space="preserve" font-family="IowanOldStyle-Roman" font-size="44.0" fill="#5C5C5C" transform="matrix(1.00, 0.00, -0.00, -1.00, 233.6, 816.0)">s</text><text xml:space="preserve" font-family="IowanOldStyle-Roman" font-size="44.0" fill="#5C5C5C" transform="matrix(1.00, 0.00, -0.00, -1.00, 253.1, 816.0)">s</text><text xml:space="preserve" font-family="IowanOldStyle-Roman" font-size="44.0" fill="#5C5C5C" transform="matrix(1.00, 0.00, -0.00, -1.00, 272.6, 816.0)">o</text><text xml:space="preserve" font-family="IowanOldStyle-Roman" font-size="44.0" fill="#5C5C5C" transform="matrix(1.00, 0.00, -0.00, -1.00, 296.8, 816.0)"> </text><text xml:space="preserve" font-family="IowanOldStyle-Roman" font-size="44.0" fill="#5C5C5C" transform="matrix(1.00, 0.00, -0.00, -1.00, 309.0, 816.0)">s</text><text xml:space="preserve" font-family="IowanOldStyle-Roman" font-size="44.0" fill="#5C5C5C" transform="matrix(1.00, 0.00, -0.00, -1.00, 328.5, 816.0)">i</text><text xml:space="preserve" font-family="IowanOldStyle-Roman" font-size="44.0" fill="#5C5C5C" transform="matrix(1.00, 0.00, -0.00, -1.00, 341.6, 816.0)">g</text><text xml:space="preserve" font-family="IowanOldStyle-Roman" font-size="44.0" fill="#5C5C5C" transform="matrix(1.00, 0.00, -0.00, -1.00, 364.3, 816.0)">n</text><text xml:space="preserve" font-family="IowanOldStyle-Roman" font-size="44.0" fill="#5C5C5C" transform="matrix(1.00, 0.00, -0.00, -1.00, 390.0, 816.0)">i</text><text xml:space="preserve" font-family="IowanOldStyle-Roman" font-size="44.0" fill="#5C5C5C" transform="matrix(1.00, 0.00, -0.00, -1.00, 403.0, 816.0)">ﬁ</text><text xml:space="preserve" font-family="IowanOldStyle-Roman" font-size="44.0" fill="#5C5C5C" transform="matrix(1.00, 0.00, -0.00, -1.00, 429.0, 816.0)">c</text><text xml:space="preserve" font-family="IowanOldStyle-Roman" font-size="44.0" fill="#5C5C5C" transform="matrix(1.00, 0.00, -0.00, -1.00, 448.6, 816.0)">a</text><text xml:space="preserve" font-family="IowanOldStyle-Roman" font-size="44.0" fill="#5C5C5C" transform="matrix(1.00, 0.00, -0.00, -1.00, 469.8, 816.0)"> </text><text xml:space="preserve" font-family="IowanOldStyle-Roman" font-size="44.0" fill="#5C5C5C" transform="matrix(1.00, 0.00, -0.00, -1.00, 482.0, 816.0)">p</text><text xml:space="preserve" font-family="IowanOldStyle-Roman" font-size="44.0" fill="#5C5C5C" transform="matrix(1.00, 0.00, -0.00, -1.00, 506.7, 816.0)">a</text><text xml:space="preserve" font-family="IowanOldStyle-Roman" font-size="44.0" fill="#5C5C5C" transform="matrix(1.00, 0.00, -0.00, -1.00, 527.8, 816.0)">r</text><text xml:space="preserve" font-family="IowanOldStyle-Roman" font-size="44.0" fill="#5C5C5C" transform="matrix(1.00, 0.00, -0.00, -1.00, 545.0, 816.0)">a</text><text xml:space="preserve" font-family="IowanOldStyle-Roman" font-size="44.0" fill="#5C5C5C" transform="matrix(1.00, 0.00, -0.00, -1.00, 566.2, 816.0)"> </text><text xml:space="preserve" font-family="IowanOldStyle-Roman" font-size="44.0" fill="#5C5C5C" transform="matrix(1.00, 0.00, -0.00, -1.00, 578.4, 816.0)">n</text><text xml:space="preserve" font-family="IowanOldStyle-Roman" font-size="44.0" fill="#5C5C5C" transform="matrix(1.00, 0.00, -0.00, -1.00, 604.1, 816.0)">ó</text><text xml:space="preserve" font-family="IowanOldStyle-Roman" font-size="44.0" fill="#5C5C5C" transform="matrix(1.00, 0.00, -0.00, -1.00, 628.3, 816.0)">s</text><text xml:space="preserve" font-family="IowanOldStyle-Roman" font-size="44.0" fill="#5C5C5C" transform="matrix(1.00, 0.00, -0.00, -1.00, 647.8, 816.0)"> </text><text xml:space="preserve" font-family="IowanOldStyle-Roman" font-size="44.0" fill="#5C5C5C" transform="matrix(1.00, 0.00, -0.00, -1.00, 660.0, 816.0)">p</text><text xml:space="preserve" font-family="IowanOldStyle-Roman" font-size="44.0" fill="#5C5C5C" transform="matrix(1.00, 0.00, -0.00, -1.00, 684.6, 816.0)">r</text><text xml:space="preserve" font-family="IowanOldStyle-Roman" font-size="44.0" fill="#5C5C5C" transform="matrix(1.00, 0.00, -0.00, -1.00, 701.8, 816.0)">o</text><text xml:space="preserve" font-family="IowanOldStyle-Roman" font-size="44.0" fill="#5C5C5C" transform="matrix(1.00, 0.00, -0.00, -1.00, 726.0, 816.0)">ﬁ</text><text xml:space="preserve" font-family="IowanOldStyle-Roman" font-size="44.0" fill="#5C5C5C" transform="matrix(1.00, 0.00, -0.00, -1.00, 752.0, 816.0)">s</text><text xml:space="preserve" font-family="IowanOldStyle-Roman" font-size="44.0" fill="#5C5C5C" transform="matrix(1.00, 0.00, -0.00, -1.00, 771.5, 816.0)">s</text><text xml:space="preserve" font-family="IowanOldStyle-Roman" font-size="44.0" fill="#5C5C5C" transform="matrix(1.00, 0.00, -0.00, -1.00, 790.9, 816.0)">i</text><text xml:space="preserve" font-family="IowanOldStyle-Roman" font-size="44.0" fill="#5C5C5C" transform="matrix(1.00, 0.00, -0.00, -1.00, 804.0, 816.0)">o</text><text xml:space="preserve" font-family="IowanOldStyle-Roman" font-size="44.0" fill="#5C5C5C" transform="matrix(1.00, 0.00, -0.00, -1.00, 828.2, 816.0)">n</text><text xml:space="preserve" font-family="IowanOldStyle-Roman" font-size="44.0" fill="#5C5C5C" transform="matrix(1.00, 0.00, -0.00, -1.00, 853.9, 816.0)">a</text><text xml:space="preserve" font-family="IowanOldStyle-Roman" font-size="44.0" fill="#5C5C5C" transform="matrix(1.00, 0.00, -0.00, -1.00, 875.1, 816.0)">i</text><text xml:space="preserve" font-family="IowanOldStyle-Roman" font-size="44.0" fill="#5C5C5C" transform="matrix(1.00, 0.00, -0.00, -1.00, 888.1, 816.0)">s</text><text xml:space="preserve" font-family="IowanOldStyle-Roman" font-size="44.0" fill="#5C5C5C" transform="matrix(1.00, 0.00, -0.00, -1.00, 907.6, 816.0)"> </text><text xml:space="preserve" font-family="IowanOldStyle-Roman" font-size="44.0" fill="#5C5C5C" transform="matrix(1.00, 0.00, -0.00, -1.00, 919.8, 816.0)">d</text><text xml:space="preserve" font-family="IowanOldStyle-Roman" font-size="44.0" fill="#5C5C5C" transform="matrix(1.00, 0.00, -0.00, -1.00, 944.6, 816.0)">e</text><text xml:space="preserve" font-family="IowanOldStyle-Roman" font-size="44.0" fill="#5C5C5C" transform="matrix(1.00, 0.00, -0.00, -1.00, 966.0, 816.0)"> </text><text xml:space="preserve" font-family="IowanOldStyle-Roman" font-size="44.0" fill="#5C5C5C" transform="matrix(1.00, 0.00, -0.00, -1.00, 978.2, 816.0)">T</text><text xml:space="preserve" font-family="IowanOldStyle-Roman" font-size="44.0" fill="#5C5C5C" transform="matrix(1.00, 0.00, -0.00, -1.00, 1006.0, 816.0)">I</text><text xml:space="preserve" font-family="IowanOldStyle-Roman" font-size="44.0" fill="#5C5C5C" transform="matrix(1.00, 0.00, -0.00, -1.00, 1020.9, 816.0)"> </text><text xml:space="preserve" font-family="IowanOldStyle-Roman" font-size="44.0" fill="#5C5C5C" transform="matrix(1.00, 0.00, -0.00, -1.00, 1033.2, 816.0)">?</text><image xlink:href="../../C5C0C42A-2EBE-4C67-B271-771999DD9523/assets/F268C2EEC1421D0F414A0B466742FF5C.png" width="376.00" height="53.00" transform="matrix(1.00, 0.00, -0.00, -1.00, 160.0, 646.0)"></image><text xml:space="preserve" font-family="IowanOldStyle-Roman" font-size="50.1" fill="#5C5C5C" transform="matrix(1.00, 0.00, -0.00, -1.00, 166.0, 603.0)">I</text><text xml:space="preserve" font-family="IowanOldStyle-Roman" font-size="50.1" fill="#5C5C5C" transform="matrix(1.00, 0.00, -0.00, -1.00, 183.0, 603.0)">s</text><text xml:space="preserve" font-family="IowanOldStyle-Roman" font-size="50.1" fill="#5C5C5C" transform="matrix(1.00, 0.00, -0.00, -1.00, 205.2, 603.0)">s</text><text xml:space="preserve" font-family="IowanOldStyle-Roman" font-size="50.1" fill="#5C5C5C" transform="matrix(1.00, 0.00, -0.00, -1.00, 227.3, 603.0)">o</text><text xml:space="preserve" font-family="IowanOldStyle-Roman" font-size="50.1" fill="#5C5C5C" transform="matrix(1.00, 0.00, -0.00, -1.00, 254.9, 603.0)"> </text><text xml:space="preserve" font-family="IowanOldStyle-Roman" font-size="50.1" fill="#5C5C5C" transform="matrix(1.00, 0.00, -0.00, -1.00, 268.8, 603.0)">a</text><text xml:space="preserve" font-family="IowanOldStyle-Roman" font-size="50.1" fill="#5C5C5C" transform="matrix(1.00, 0.00, -0.00, -1.00, 292.8, 603.0)">b</text><text xml:space="preserve" font-family="IowanOldStyle-Roman" font-size="50.1" fill="#5C5C5C" transform="matrix(1.00, 0.00, -0.00, -1.00, 320.7, 603.0)">r</text><text xml:space="preserve" font-family="IowanOldStyle-Roman" font-size="50.1" fill="#5C5C5C" transform="matrix(1.00, 0.00, -0.00, -1.00, 340.2, 603.0)">e</text><text xml:space="preserve" font-family="IowanOldStyle-Roman" font-size="50.1" fill="#5C5C5C" transform="matrix(1.00, 0.00, -0.00, -1.00, 364.6, 603.0)"> </text><text xml:space="preserve" font-family="IowanOldStyle-Roman" font-size="50.1" fill="#5C5C5C" transform="matrix(1.00, 0.00, -0.00, -1.00, 378.5, 603.0)">m</text><text xml:space="preserve" font-family="IowanOldStyle-Roman" font-size="50.1" fill="#5C5C5C" transform="matrix(1.00, 0.00, -0.00, -1.00, 422.6, 603.0)">u</text><text xml:space="preserve" font-family="IowanOldStyle-Roman" font-size="50.1" fill="#5C5C5C" transform="matrix(1.00, 0.00, -0.00, -1.00, 452.0, 603.0)">i</text><text xml:space="preserve" font-family="IowanOldStyle-Roman" font-size="50.1" fill="#5C5C5C" transform="matrix(1.00, 0.00, -0.00, -1.00, 466.8, 603.0)">t</text><text xml:space="preserve" font-family="IowanOldStyle-Roman" font-size="50.1" fill="#5C5C5C" transform="matrix(1.00, 0.00, -0.00, -1.00, 484.8, 603.0)">a</text><text xml:space="preserve" font-family="IowanOldStyle-Roman" font-size="50.1" fill="#5C5C5C" transform="matrix(1.00, 0.00, -0.00, -1.00, 508.9, 603.0)">s</text><text xml:space="preserve" font-family="IowanOldStyle-Roman" font-size="50.1" fill="#5C5C5C" transform="matrix(1.00, 0.00, -0.00, -1.00, 531.1, 603.0)"> </text><image xlink:href="../../C5C0C42A-2EBE-4C67-B271-771999DD9523/assets/07A8B303788B1B3A8B60A0561FBFF752.png" width="332.00" height="65.00" transform="matrix(1.00, 0.00, -0.00, -1.00, 182.0, 578.0)"></image><text xml:space="preserve" font-family="IowanOldStyle-Roman" font-size="50.1" fill="#5C5C5C" transform="matrix(1.00, 0.00, -0.00, -1.00, 188.0, 535.0)">o</text><text xml:space="preserve" font-family="IowanOldStyle-Roman" font-size="50.1" fill="#5C5C5C" transform="matrix(1.00, 0.00, -0.00, -1.00, 215.6, 535.0)">p</text><text xml:space="preserve" font-family="IowanOldStyle-Roman" font-size="50.1" fill="#5C5C5C" transform="matrix(1.00, 0.00, -0.00, -1.00, 243.6, 535.0)">o</text><text xml:space="preserve" font-family="IowanOldStyle-Roman" font-size="50.1" fill="#5C5C5C" transform="matrix(1.00, 0.00, -0.00, -1.00, 271.1, 535.0)">r</text><text xml:space="preserve" font-family="IowanOldStyle-Roman" font-size="50.1" fill="#5C5C5C" transform="matrix(1.00, 0.00, -0.00, -1.00, 290.7, 535.0)">t</text><text xml:space="preserve" font-family="IowanOldStyle-Roman" font-size="50.1" fill="#5C5C5C" transform="matrix(1.00, 0.00, -0.00, -1.00, 308.7, 535.0)">u</text><text xml:space="preserve" font-family="IowanOldStyle-Roman" font-size="50.1" fill="#5C5C5C" transform="matrix(1.00, 0.00, -0.00, -1.00, 338.1, 535.0)">n</text><text xml:space="preserve" font-family="IowanOldStyle-Roman" font-size="50.1" fill="#5C5C5C" transform="matrix(1.00, 0.00, -0.00, -1.00, 367.3, 535.0)">i</text><text xml:space="preserve" font-family="IowanOldStyle-Roman" font-size="50.1" fill="#5C5C5C" transform="matrix(1.00, 0.00, -0.00, -1.00, 382.2, 535.0)">d</text><text xml:space="preserve" font-family="IowanOldStyle-Roman" font-size="50.1" fill="#5C5C5C" transform="matrix(1.00, 0.00, -0.00, -1.00, 410.3, 535.0)">a</text><text xml:space="preserve" font-family="IowanOldStyle-Roman" font-size="50.1" fill="#5C5C5C" transform="matrix(1.00, 0.00, -0.00, -1.00, 434.4, 535.0)">d</text><text xml:space="preserve" font-family="IowanOldStyle-Roman" font-size="50.1" fill="#5C5C5C" transform="matrix(1.00, 0.00, -0.00, -1.00, 462.5, 535.0)">e</text><text xml:space="preserve" font-family="IowanOldStyle-Roman" font-size="50.1" fill="#5C5C5C" transform="matrix(1.00, 0.00, -0.00, -1.00, 486.9, 535.0)">s</text><text xml:space="preserve" font-family="IowanOldStyle-Roman" font-size="50.1" fill="#5C5C5C" transform="matrix(1.00, 0.00, -0.00, -1.00, 509.1, 535.0)"> </text><image xlink:href="../../C5C0C42A-2EBE-4C67-B271-771999DD9523/assets/ECE1391FD12C70883A386D430B2838B6.png" width="347.00" height="56.00" transform="matrix(1.00, 0.00, -0.00, -1.00, 174.0, 501.0)"></image><text xml:space="preserve" font-family="IowanOldStyle-Roman" font-size="50.1" fill="#5C5C5C" transform="matrix(1.00, 0.00, -0.00, -1.00, 181.0, 467.0)">p</text><text xml:space="preserve" font-family="IowanOldStyle-Roman" font-size="50.1" fill="#5C5C5C" transform="matrix(1.00, 0.00, -0.00, -1.00, 209.0, 467.0)">a</text><text xml:space="preserve" font-family="IowanOldStyle-Roman" font-size="50.1" fill="#5C5C5C" transform="matrix(1.00, 0.00, -0.00, -1.00, 233.1, 467.0)">r</text><text xml:space="preserve" font-family="IowanOldStyle-Roman" font-size="50.1" fill="#5C5C5C" transform="matrix(1.00, 0.00, -0.00, -1.00, 252.6, 467.0)">a</text><text xml:space="preserve" font-family="IowanOldStyle-Roman" font-size="50.1" fill="#5C5C5C" transform="matrix(1.00, 0.00, -0.00, -1.00, 276.7, 467.0)"> </text><text xml:space="preserve" font-family="IowanOldStyle-Roman" font-size="50.1" fill="#5C5C5C" transform="matrix(1.00, 0.00, -0.00, -1.00, 290.6, 467.0)">o</text><text xml:space="preserve" font-family="IowanOldStyle-Roman" font-size="50.1" fill="#5C5C5C" transform="matrix(1.00, 0.00, -0.00, -1.00, 318.2, 467.0)">s</text><text xml:space="preserve" font-family="IowanOldStyle-Roman" font-size="50.1" fill="#5C5C5C" transform="matrix(1.00, 0.00, -0.00, -1.00, 340.3, 467.0)"> </text><text xml:space="preserve" font-family="IowanOldStyle-Roman" font-size="50.1" fill="#5C5C5C" transform="matrix(1.00, 0.00, -0.00, -1.00, 354.2, 467.0)">e</text><text xml:space="preserve" font-family="IowanOldStyle-Roman" font-size="50.1" fill="#5C5C5C" transform="matrix(1.00, 0.00, -0.00, -1.00, 377.7, 467.0)">x</text><text xml:space="preserve" font-family="IowanOldStyle-Roman" font-size="50.1" fill="#5C5C5C" transform="matrix(1.00, 0.00, -0.00, -1.00, 404.2, 467.0)">p</text><text xml:space="preserve" font-family="IowanOldStyle-Roman" font-size="50.1" fill="#5C5C5C" transform="matrix(1.00, 0.00, -0.00, -1.00, 432.3, 467.0)">e</text><text xml:space="preserve" font-family="IowanOldStyle-Roman" font-size="50.1" fill="#5C5C5C" transform="matrix(1.00, 0.00, -0.00, -1.00, 456.7, 467.0)">r</text><text xml:space="preserve" font-family="IowanOldStyle-Roman" font-size="50.1" fill="#5C5C5C" transform="matrix(1.00, 0.00, -0.00, -1.00, 476.2, 467.0)">t</text><text xml:space="preserve" font-family="IowanOldStyle-Roman" font-size="50.1" fill="#5C5C5C" transform="matrix(1.00, 0.00, -0.00, -1.00, 494.2, 467.0)">s</text><text xml:space="preserve" font-family="IowanOldStyle-Roman" font-size="50.1" fill="#5C5C5C" transform="matrix(1.00, 0.00, -0.00, -1.00, 516.4, 467.0)"> </text><image xlink:href="../../C5C0C42A-2EBE-4C67-B271-771999DD9523/assets/F10CF388EC2F692E08C9AB083043850F.png" width="235.00" height="52.00" transform="matrix(1.00, 0.00, -0.00, -1.00, 231.0, 441.0)"></image><text xml:space="preserve" font-family="IowanOldStyle-Roman" font-size="50.1" fill="#5C5C5C" transform="matrix(1.00, 0.00, -0.00, -1.00, 237.0, 399.0)">e</text><text xml:space="preserve" font-family="IowanOldStyle-Roman" font-size="50.1" fill="#5C5C5C" transform="matrix(1.00, 0.00, -0.00, -1.00, 261.4, 399.0)">m</text><text xml:space="preserve" font-family="IowanOldStyle-Roman" font-size="50.1" fill="#5C5C5C" transform="matrix(1.00, 0.00, -0.00, -1.00, 305.4, 399.0)"> </text><text xml:space="preserve" font-family="IowanOldStyle-Roman" font-size="50.1" fill="#5C5C5C" transform="matrix(1.00, 0.00, -0.00, -1.00, 319.3, 399.0)">L</text><text xml:space="preserve" font-family="IowanOldStyle-Roman" font-size="50.1" fill="#5C5C5C" transform="matrix(1.00, 0.00, -0.00, -1.00, 347.9, 399.0)">i</text><text xml:space="preserve" font-family="IowanOldStyle-Roman" font-size="50.1" fill="#5C5C5C" transform="matrix(1.00, 0.00, -0.00, -1.00, 362.8, 399.0)">n</text><text xml:space="preserve" font-family="IowanOldStyle-Roman" font-size="50.1" fill="#5C5C5C" transform="matrix(1.00, 0.00, -0.00, -1.00, 392.0, 399.0)">u</text><text xml:space="preserve" font-family="IowanOldStyle-Roman" font-size="50.1" fill="#5C5C5C" transform="matrix(1.00, 0.00, -0.00, -1.00, 421.4, 399.0)">x</text><text xml:space="preserve" font-family="IowanOldStyle-Roman" font-size="50.1" fill="#5C5C5C" transform="matrix(1.00, 0.00, -0.00, -1.00, 447.9, 399.0)">.</text><text xml:space="preserve" font-family="IowanOldStyle-Roman" font-size="50.1" fill="#5C5C5C" transform="matrix(1.00, 0.00, -0.00, -1.00, 461.8, 399.0)"> </text><image xlink:href="../../C5C0C42A-2EBE-4C67-B271-771999DD9523/assets/BABCF18246D77C559EC934A323448382.png" width="331.00" height="152.00" transform="matrix(2.65, 0.00, -0.00, -2.66, 815.0, 646.0)"></image><image xlink:href="../../C5C0C42A-2EBE-4C67-B271-771999DD9523/assets/B56FEFDF0ABACA49F8F80AD87A4B3A11.png" width="906.00" height="440.00" transform="matrix(1.00, 0.00, -0.00, 1.00, 801.0, 215.0)"></image></g></svg>