<?xml version="1.0" encoding="UTF-8" standalone="no"?><svg xmlns="http://www.w3.org/2000/svg" xmlns:xlink="http://www.w3.org/1999/xlink" clip-rule="evenodd" stroke-miterlimit="4.00" viewBox="0 0 381 260"><desc>SVG generated by Keynote</desc><defs></defs><g transform="matrix(1.00, 0.00, -0.00, -1.00, 0.0, 260.0)"><image xlink:href="F268C2EEC1421D0F414A0B466742FF5C.png" width="376.00" height="53.00" transform="matrix(1.00, 0.00, -0.00, -1.00, 0.0, 258.0)"></image><text xml:space="preserve" font-family="IowanOldStyle-Roman" font-size="50.1" fill="#5C5C5C" transform="matrix(1.00, 0.00, -0.00, -1.00, 6.0, 215.0)">I</text><text xml:space="preserve" font-family="IowanOldStyle-Roman" font-size="50.1" fill="#5C5C5C" transform="matrix(1.00, 0.00, -0.00, -1.00, 23.0, 215.0)">s</text><text xml:space="preserve" font-family="IowanOldStyle-Roman" font-size="50.1" fill="#5C5C5C" transform="matrix(1.00, 0.00, -0.00, -1.00, 45.2, 215.0)">s</text><text xml:space="preserve" font-family="IowanOldStyle-Roman" font-size="50.1" fill="#5C5C5C" transform="matrix(1.00, 0.00, -0.00, -1.00, 67.3, 215.0)">o</text><text xml:space="preserve" font-family="IowanOldStyle-Roman" font-size="50.1" fill="#5C5C5C" transform="matrix(1.00, 0.00, -0.00, -1.00, 94.9, 215.0)"> </text><text xml:space="preserve" font-family="IowanOldStyle-Roman" font-size="50.1" fill="#5C5C5C" transform="matrix(1.00, 0.00, -0.00, -1.00, 108.8, 215.0)">a</text><text xml:space="preserve" font-family="IowanOldStyle-Roman" font-size="50.1" fill="#5C5C5C" transform="matrix(1.00, 0.00, -0.00, -1.00, 132.8, 215.0)">b</text><text xml:space="preserve" font-family="IowanOldStyle-Roman" font-size="50.1" fill="#5C5C5C" transform="matrix(1.00, 0.00, -0.00, -1.00, 160.7, 215.0)">r</text><text xml:space="preserve" font-family="IowanOldStyle-Roman" font-size="50.1" fill="#5C5C5C" transform="matrix(1.00, 0.00, -0.00, -1.00, 180.2, 215.0)">e</text><text xml:space="preserve" font-family="IowanOldStyle-Roman" font-size="50.1" fill="#5C5C5C" transform="matrix(1.00, 0.00, -0.00, -1.00, 204.6, 215.0)"> </text><text xml:space="preserve" font-family="IowanOldStyle-Roman" font-size="50.1" fill="#5C5C5C" transform="matrix(1.00, 0.00, -0.00, -1.00, 218.5, 215.0)">m</text><text xml:space="preserve" font-family="IowanOldStyle-Roman" font-size="50.1" fill="#5C5C5C" transform="matrix(1.00, 0.00, -0.00, -1.00, 262.6, 215.0)">u</text><text xml:space="preserve" font-family="IowanOldStyle-Roman" font-size="50.1" fill="#5C5C5C" transform="matrix(1.00, 0.00, -0.00, -1.00, 292.0, 215.0)">i</text><text xml:space="preserve" font-family="IowanOldStyle-Roman" font-size="50.1" fill="#5C5C5C" transform="matrix(1.00, 0.00, -0.00, -1.00, 306.8, 215.0)">t</text><text xml:space="preserve" font-family="IowanOldStyle-Roman" font-size="50.1" fill="#5C5C5C" transform="matrix(1.00, 0.00, -0.00, -1.00, 324.8, 215.0)">a</text><text xml:space="preserve" font-family="IowanOldStyle-Roman" font-size="50.1" fill="#5C5C5C" transform="matrix(1.00, 0.00, -0.00, -1.00, 348.9, 215.0)">s</text><text xml:space="preserve" font-family="IowanOldStyle-Roman" font-size="50.1" fill="#5C5C5C" transform="matrix(1.00, 0.00, -0.00, -1.00, 371.1, 215.0)"> </text><image xlink:href="07A8B303788B1B3A8B60A0561FBFF752.png" width="332.00" height="65.00" transform="matrix(1.00, 0.00, -0.00, -1.00, 22.0, 190.0)"></image><text xml:space="preserve" font-family="IowanOldStyle-Roman" font-size="50.1" fill="#5C5C5C" transform="matrix(1.00, 0.00, -0.00, -1.00, 28.0, 147.0)">o</text><text xml:space="preserve" font-family="IowanOldStyle-Roman" font-size="50.1" fill="#5C5C5C" transform="matrix(1.00, 0.00, -0.00, -1.00, 55.6, 147.0)">p</text><text xml:space="preserve" font-family="IowanOldStyle-Roman" font-size="50.1" fill="#5C5C5C" transform="matrix(1.00, 0.00, -0.00, -1.00, 83.6, 147.0)">o</text><text xml:space="preserve" font-family="IowanOldStyle-Roman" font-size="50.1" fill="#5C5C5C" transform="matrix(1.00, 0.00, -0.00, -1.00, 111.1, 147.0)">r</text><text xml:space="preserve" font-family="IowanOldStyle-Roman" font-size="50.1" fill="#5C5C5C" transform="matrix(1.00, 0.00, -0.00, -1.00, 130.7, 147.0)">t</text><text xml:space="preserve" font-family="IowanOldStyle-Roman" font-size="50.1" fill="#5C5C5C" transform="matrix(1.00, 0.00, -0.00, -1.00, 148.7, 147.0)">u</text><text xml:space="preserve" font-family="IowanOldStyle-Roman" font-size="50.1" fill="#5C5C5C" transform="matrix(1.00, 0.00, -0.00, -1.00, 178.1, 147.0)">n</text><text xml:space="preserve" font-family="IowanOldStyle-Roman" font-size="50.1" fill="#5C5C5C" transform="matrix(1.00, 0.00, -0.00, -1.00, 207.3, 147.0)">i</text><text xml:space="preserve" font-family="IowanOldStyle-Roman" font-size="50.1" fill="#5C5C5C" transform="matrix(1.00, 0.00, -0.00, -1.00, 222.2, 147.0)">d</text><text xml:space="preserve" font-family="IowanOldStyle-Roman" font-size="50.1" fill="#5C5C5C" transform="matrix(1.00, 0.00, -0.00, -1.00, 250.3, 147.0)">a</text><text xml:space="preserve" font-family="IowanOldStyle-Roman" font-size="50.1" fill="#5C5C5C" transform="matrix(1.00, 0.00, -0.00, -1.00, 274.4, 147.0)">d</text><text xml:space="preserve" font-family="IowanOldStyle-Roman" font-size="50.1" fill="#5C5C5C" transform="matrix(1.00, 0.00, -0.00, -1.00, 302.5, 147.0)">e</text><text xml:space="preserve" font-family="IowanOldStyle-Roman" font-size="50.1" fill="#5C5C5C" transform="matrix(1.00, 0.00, -0.00, -1.00, 326.9, 147.0)">s</text><text xml:space="preserve" font-family="IowanOldStyle-Roman" font-size="50.1" fill="#5C5C5C" transform="matrix(1.00, 0.00, -0.00, -1.00, 349.1, 147.0)"> </text><image xlink:href="ECE1391FD12C70883A386D430B2838B6.png" width="347.00" height="56.00" transform="matrix(1.00, 0.00, -0.00, -1.00, 14.0, 113.0)"></image><text xml:space="preserve" font-family="IowanOldStyle-Roman" font-size="50.1" fill="#5C5C5C" transform="matrix(1.00, 0.00, -0.00, -1.00, 21.0, 79.0)">p</text><text xml:space="preserve" font-family="IowanOldStyle-Roman" font-size="50.1" fill="#5C5C5C" transform="matrix(1.00, 0.00, -0.00, -1.00, 49.0, 79.0)">a</text><text xml:space="preserve" font-family="IowanOldStyle-Roman" font-size="50.1" fill="#5C5C5C" transform="matrix(1.00, 0.00, -0.00, -1.00, 73.1, 79.0)">r</text><text xml:space="preserve" font-family="IowanOldStyle-Roman" font-size="50.1" fill="#5C5C5C" transform="matrix(1.00, 0.00, -0.00, -1.00, 92.6, 79.0)">a</text><text xml:space="preserve" font-family="IowanOldStyle-Roman" font-size="50.1" fill="#5C5C5C" transform="matrix(1.00, 0.00, -0.00, -1.00, 116.7, 79.0)"> </text><text xml:space="preserve" font-family="IowanOldStyle-Roman" font-size="50.1" fill="#5C5C5C" transform="matrix(1.00, 0.00, -0.00, -1.00, 130.6, 79.0)">o</text><text xml:space="preserve" font-family="IowanOldStyle-Roman" font-size="50.1" fill="#5C5C5C" transform="matrix(1.00, 0.00, -0.00, -1.00, 158.2, 79.0)">s</text><text xml:space="preserve" font-family="IowanOldStyle-Roman" font-size="50.1" fill="#5C5C5C" transform="matrix(1.00, 0.00, -0.00, -1.00, 180.3, 79.0)"> </text><text xml:space="preserve" font-family="IowanOldStyle-Roman" font-size="50.1" fill="#5C5C5C" transform="matrix(1.00, 0.00, -0.00, -1.00, 194.2, 79.0)">e</text><text xml:space="preserve" font-family="IowanOldStyle-Roman" font-size="50.1" fill="#5C5C5C" transform="matrix(1.00, 0.00, -0.00, -1.00, 217.7, 79.0)">x</text><text xml:space="preserve" font-family="IowanOldStyle-Roman" font-size="50.1" fill="#5C5C5C" transform="matrix(1.00, 0.00, -0.00, -1.00, 244.2, 79.0)">p</text><text xml:space="preserve" font-family="IowanOldStyle-Roman" font-size="50.1" fill="#5C5C5C" transform="matrix(1.00, 0.00, -0.00, -1.00, 272.3, 79.0)">e</text><text xml:space="preserve" font-family="IowanOldStyle-Roman" font-size="50.1" fill="#5C5C5C" transform="matrix(1.00, 0.00, -0.00, -1.00, 296.7, 79.0)">r</text><text xml:space="preserve" font-family="IowanOldStyle-Roman" font-size="50.1" fill="#5C5C5C" transform="matrix(1.00, 0.00, -0.00, -1.00, 316.2, 79.0)">t</text><text xml:space="preserve" font-family="IowanOldStyle-Roman" font-size="50.1" fill="#5C5C5C" transform="matrix(1.00, 0.00, -0.00, -1.00, 334.2, 79.0)">s</text><text xml:space="preserve" font-family="IowanOldStyle-Roman" font-size="50.1" fill="#5C5C5C" transform="matrix(1.00, 0.00, -0.00, -1.00, 356.4, 79.0)"> </text><image xlink:href="F10CF388EC2F692E08C9AB083043850F.png" width="235.00" height="52.00" transform="matrix(1.00, 0.00, -0.00, -1.00, 71.0, 53.0)"></image><text xml:space="preserve" font-family="IowanOldStyle-Roman" font-size="50.1" fill="#5C5C5C" transform="matrix(1.00, 0.00, -0.00, -1.00, 77.0, 11.0)">e</text><text xml:space="preserve" font-family="IowanOldStyle-Roman" font-size="50.1" fill="#5C5C5C" transform="matrix(1.00, 0.00, -0.00, -1.00, 101.4, 11.0)">m</text><text xml:space="preserve" font-family="IowanOldStyle-Roman" font-size="50.1" fill="#5C5C5C" transform="matrix(1.00, 0.00, -0.00, -1.00, 145.4, 11.0)"> </text><text xml:space="preserve" font-family="IowanOldStyle-Roman" font-size="50.1" fill="#5C5C5C" transform="matrix(1.00, 0.00, -0.00, -1.00, 159.3, 11.0)">L</text><text xml:space="preserve" font-family="IowanOldStyle-Roman" font-size="50.1" fill="#5C5C5C" transform="matrix(1.00, 0.00, -0.00, -1.00, 187.9, 11.0)">i</text><text xml:space="preserve" font-family="IowanOldStyle-Roman" font-size="50.1" fill="#5C5C5C" transform="matrix(1.00, 0.00, -0.00, -1.00, 202.8, 11.0)">n</text><text xml:space="preserve" font-family="IowanOldStyle-Roman" font-size="50.1" fill="#5C5C5C" transform="matrix(1.00, 0.00, -0.00, -1.00, 232.0, 11.0)">u</text><text xml:space="preserve" font-family="IowanOldStyle-Roman" font-size="50.1" fill="#5C5C5C" transform="matrix(1.00, 0.00, -0.00, -1.00, 261.4, 11.0)">x</text><text xml:space="preserve" font-family="IowanOldStyle-Roman" font-size="50.1" fill="#5C5C5C" transform="matrix(1.00, 0.00, -0.00, -1.00, 287.9, 11.0)">.</text><text xml:space="preserve" font-family="IowanOldStyle-Roman" font-size="50.1" fill="#5C5C5C" transform="matrix(1.00, 0.00, -0.00, -1.00, 301.8, 11.0)"> </text></g></svg>