<?xml version="1.0" encoding="UTF-8" standalone="no"?><svg xmlns="http://www.w3.org/2000/svg" xmlns:xlink="http://www.w3.org/1999/xlink" clip-rule="evenodd" stroke-miterlimit="4.00" viewBox="0 0 1480 110"><desc>SVG generated by Keynote</desc><defs></defs><g transform="matrix(1.00, 0.00, -0.00, -1.00, 0.0, 110.0)"><text xml:space="preserve" font-family="IowanOldStyle-Italic" font-style="italic" font-size="80.0" fill="#804D28" transform="matrix(1.00, 0.00, -0.00, -1.00, 0.0, 27.0)">h</text><text xml:space="preserve" font-family="IowanOldStyle-Italic" font-style="italic" font-size="80.0" fill="#804D28" transform="matrix(1.00, 0.00, -0.00, -1.00, 40.7, 27.0)">t</text><text xml:space="preserve" font-family="IowanOldStyle-Italic" font-style="italic" font-size="80.0" fill="#804D28" transform="matrix(1.00, 0.00, -0.00, -1.00, 68.6, 27.0)">t</text><text xml:space="preserve" font-family="IowanOldStyle-Italic" font-style="italic" font-size="80.0" fill="#804D28" transform="matrix(1.00, 0.00, -0.00, -1.00, 96.4, 27.0)">p</text><text xml:space="preserve" font-family="IowanOldStyle-Italic" font-style="italic" font-size="80.0" fill="#804D28" transform="matrix(1.00, 0.00, -0.00, -1.00, 136.0, 27.0)">:</text><text xml:space="preserve" font-family="IowanOldStyle-Italic" font-style="italic" font-size="80.0" fill="#804D28" transform="matrix(1.00, 0.00, -0.00, -1.00, 159.0, 27.0)">/</text><text xml:space="preserve" font-family="IowanOldStyle-Italic" font-style="italic" font-size="80.0" fill="#804D28" transform="matrix(1.00, 0.00, -0.00, -1.00, 188.5, 27.0)">/</text><text xml:space="preserve" font-family="IowanOldStyle-Italic" font-style="italic" font-size="80.0" fill="#804D28" transform="matrix(1.00, 0.00, -0.00, -1.00, 218.0, 27.0)">j</text><text xml:space="preserve" font-family="IowanOldStyle-Italic" font-style="italic" font-size="80.0" fill="#804D28" transform="matrix(1.00, 0.00, -0.00, -1.00, 241.5, 27.0)">o</text><text xml:space="preserve" font-family="IowanOldStyle-Italic" font-style="italic" font-size="80.0" fill="#804D28" transform="matrix(1.00, 0.00, -0.00, -1.00, 278.6, 27.0)">a</text><text xml:space="preserve" font-family="IowanOldStyle-Italic" font-style="italic" font-size="80.0" fill="#804D28" transform="matrix(1.00, 0.00, -0.00, -1.00, 317.3, 27.0)">o</text><text xml:space="preserve" font-family="IowanOldStyle-Italic" font-style="italic" font-size="80.0" fill="#804D28" transform="matrix(1.00, 0.00, -0.00, -1.00, 356.6, 27.0)">-</text><text xml:space="preserve" font-family="IowanOldStyle-Italic" font-style="italic" font-size="80.0" fill="#804D28" transform="matrix(1.00, 0.00, -0.00, -1.00, 382.0, 27.0)">p</text><text xml:space="preserve" font-family="IowanOldStyle-Italic" font-style="italic" font-size="80.0" fill="#804D28" transform="matrix(1.00, 0.00, -0.00, -1.00, 421.6, 27.0)">a</text><text xml:space="preserve" font-family="IowanOldStyle-Italic" font-style="italic" font-size="80.0" fill="#804D28" transform="matrix(1.00, 0.00, -0.00, -1.00, 460.2, 27.0)">r</text><text xml:space="preserve" font-family="IowanOldStyle-Italic" font-style="italic" font-size="80.0" fill="#804D28" transform="matrix(1.00, 0.00, -0.00, -1.00, 490.6, 27.0)">a</text><text xml:space="preserve" font-family="IowanOldStyle-Italic" font-style="italic" font-size="80.0" fill="#804D28" transform="matrix(1.00, 0.00, -0.00, -1.00, 529.2, 27.0)">n</text><text xml:space="preserve" font-family="IowanOldStyle-Italic" font-style="italic" font-size="80.0" fill="#804D28" transform="matrix(1.00, 0.00, -0.00, -1.00, 570.5, 27.0)">a</text><text xml:space="preserve" font-family="IowanOldStyle-Italic" font-style="italic" font-size="80.0" fill="#804D28" transform="matrix(1.00, 0.00, -0.00, -1.00, 609.1, 27.0)">.</text><text xml:space="preserve" font-family="IowanOldStyle-Italic" font-style="italic" font-size="80.0" fill="#804D28" transform="matrix(1.00, 0.00, -0.00, -1.00, 631.8, 27.0)">c</text><text xml:space="preserve" font-family="IowanOldStyle-Italic" font-style="italic" font-size="80.0" fill="#804D28" transform="matrix(1.00, 0.00, -0.00, -1.00, 661.4, 27.0)">o</text><text xml:space="preserve" font-family="IowanOldStyle-Italic" font-style="italic" font-size="80.0" fill="#804D28" transform="matrix(1.00, 0.00, -0.00, -1.00, 698.6, 27.0)">m</text><text xml:space="preserve" font-family="IowanOldStyle-Italic" font-style="italic" font-size="80.0" fill="#804D28" transform="matrix(1.00, 0.00, -0.00, -1.00, 758.0, 27.0)">.</text><text xml:space="preserve" font-family="IowanOldStyle-Italic" font-style="italic" font-size="80.0" fill="#804D28" transform="matrix(1.00, 0.00, -0.00, -1.00, 780.6, 27.0)">b</text><text xml:space="preserve" font-family="IowanOldStyle-Italic" font-style="italic" font-size="80.0" fill="#804D28" transform="matrix(1.00, 0.00, -0.00, -1.00, 819.4, 27.0)">r</text><text xml:space="preserve" font-family="IowanOldStyle-Italic" font-style="italic" font-size="80.0" fill="#804D28" transform="matrix(1.00, 0.00, -0.00, -1.00, 849.8, 27.0)">/</text><text xml:space="preserve" font-family="IowanOldStyle-Italic" font-style="italic" font-size="80.0" fill="#804D28" transform="matrix(1.00, 0.00, -0.00, -1.00, 879.3, 27.0)">b</text><text xml:space="preserve" font-family="IowanOldStyle-Italic" font-style="italic" font-size="80.0" fill="#804D28" transform="matrix(1.00, 0.00, -0.00, -1.00, 918.1, 27.0)">l</text><text xml:space="preserve" font-family="IowanOldStyle-Italic" font-style="italic" font-size="80.0" fill="#804D28" transform="matrix(1.00, 0.00, -0.00, -1.00, 940.4, 27.0)">o</text><text xml:space="preserve" font-family="IowanOldStyle-Italic" font-style="italic" font-size="80.0" fill="#804D28" transform="matrix(1.00, 0.00, -0.00, -1.00, 977.5, 27.0)">g</text><text xml:space="preserve" font-family="IowanOldStyle-Italic" font-style="italic" font-size="80.0" fill="#804D28" transform="matrix(1.00, 0.00, -0.00, -1.00, 1015.1, 27.0)">/</text><text xml:space="preserve" font-family="IowanOldStyle-Italic" font-style="italic" font-size="80.0" fill="#804D28" transform="matrix(1.00, 0.00, -0.00, -1.00, 1044.6, 27.0)">c</text><text xml:space="preserve" font-family="IowanOldStyle-Italic" font-style="italic" font-size="80.0" fill="#804D28" transform="matrix(1.00, 0.00, -0.00, -1.00, 1074.2, 27.0)">u</text><text xml:space="preserve" font-family="IowanOldStyle-Italic" font-style="italic" font-size="80.0" fill="#804D28" transform="matrix(1.00, 0.00, -0.00, -1.00, 1115.3, 27.0)">r</text><text xml:space="preserve" font-family="IowanOldStyle-Italic" font-style="italic" font-size="80.0" fill="#804D28" transform="matrix(1.00, 0.00, -0.00, -1.00, 1145.6, 27.0)">s</text><text xml:space="preserve" font-family="IowanOldStyle-Italic" font-style="italic" font-size="80.0" fill="#804D28" transform="matrix(1.00, 0.00, -0.00, -1.00, 1174.8, 27.0)">o</text><text xml:space="preserve" font-family="IowanOldStyle-Italic" font-style="italic" font-size="80.0" fill="#804D28" transform="matrix(1.00, 0.00, -0.00, -1.00, 1214.2, 27.0)">-</text><text xml:space="preserve" font-family="IowanOldStyle-Italic" font-style="italic" font-size="80.0" fill="#804D28" transform="matrix(1.00, 0.00, -0.00, -1.00, 1239.5, 27.0)">d</text><text xml:space="preserve" font-family="IowanOldStyle-Italic" font-style="italic" font-size="80.0" fill="#804D28" transform="matrix(1.00, 0.00, -0.00, -1.00, 1279.3, 27.0)">o</text><text xml:space="preserve" font-family="IowanOldStyle-Italic" font-style="italic" font-size="80.0" fill="#804D28" transform="matrix(1.00, 0.00, -0.00, -1.00, 1316.4, 27.0)">c</text><text xml:space="preserve" font-family="IowanOldStyle-Italic" font-style="italic" font-size="80.0" fill="#804D28" transform="matrix(1.00, 0.00, -0.00, -1.00, 1346.1, 27.0)">k</text><text xml:space="preserve" font-family="IowanOldStyle-Italic" font-style="italic" font-size="80.0" fill="#804D28" transform="matrix(1.00, 0.00, -0.00, -1.00, 1386.2, 27.0)">e</text><text xml:space="preserve" font-family="IowanOldStyle-Italic" font-style="italic" font-size="80.0" fill="#804D28" transform="matrix(1.00, 0.00, -0.00, -1.00, 1417.4, 27.0)">r</text><text xml:space="preserve" font-family="IowanOldStyle-Italic" font-style="italic" font-size="80.0" fill="#804D28" transform="matrix(1.00, 0.00, -0.00, -1.00, 1447.7, 27.0)">/</text><g><clipPath id="clip-337"><path d="M -0.6 13.7 L 1477.6 13.7 L 1477.6 19.6 L -0.6 19.6 Z M -0.6 13.7 "></path></clipPath><g clip-path="url(#clip-337)"><path d="M 6.1 98.4 L 1483.3 98.4 " fill="none" stroke="#804D28" stroke-width="3.91" stroke-miterlimit="0.00" transform="matrix(1.00, 0.00, 0.00, -1.00, -5.7, 115.1)"></path></g></g></g></svg>