<?xml version="1.0" encoding="UTF-8" standalone="no"?><svg xmlns="http://www.w3.org/2000/svg" xmlns:xlink="http://www.w3.org/1999/xlink" clip-rule="evenodd" stroke-miterlimit="4.00" viewBox="0 0 765 63"><desc>SVG generated by Keynote</desc><defs></defs><g transform="matrix(1.00, 0.00, -0.00, -1.00, 0.0, 63.0)"><image xlink:href="8BE42E3AC769D8F96E85313977A0A64C.png" width="259.00" height="49.00" transform="matrix(1.00, 0.00, -0.00, -1.00, 1.0, 61.0)"></image><text xml:space="preserve" font-family="IowanOldStyle-Roman" font-size="44.0" fill="#5C5C5C" transform="matrix(1.00, 0.00, -0.00, -1.00, 7.0, 22.0)">C</text><text xml:space="preserve" font-family="IowanOldStyle-Roman" font-size="44.0" fill="#5C5C5C" transform="matrix(1.00, 0.00, -0.00, -1.00, 38.1, 22.0)">o</text><text xml:space="preserve" font-family="IowanOldStyle-Roman" font-size="44.0" fill="#5C5C5C" transform="matrix(1.00, 0.00, -0.00, -1.00, 62.3, 22.0)">d</text><text xml:space="preserve" font-family="IowanOldStyle-Roman" font-size="44.0" fill="#5C5C5C" transform="matrix(1.00, 0.00, -0.00, -1.00, 87.1, 22.0)">i</text><text xml:space="preserve" font-family="IowanOldStyle-Roman" font-size="44.0" fill="#5C5C5C" transform="matrix(1.00, 0.00, -0.00, -1.00, 100.1, 22.0)">ï¬</text><text xml:space="preserve" font-family="IowanOldStyle-Roman" font-size="44.0" fill="#5C5C5C" transform="matrix(1.00, 0.00, -0.00, -1.00, 126.1, 22.0)">c</text><text xml:space="preserve" font-family="IowanOldStyle-Roman" font-size="44.0" fill="#5C5C5C" transform="matrix(1.00, 0.00, -0.00, -1.00, 145.7, 22.0)">a</text><text xml:space="preserve" font-family="IowanOldStyle-Roman" font-size="44.0" fill="#5C5C5C" transform="matrix(1.00, 0.00, -0.00, -1.00, 166.9, 22.0)">d</text><text xml:space="preserve" font-family="IowanOldStyle-Roman" font-size="44.0" fill="#5C5C5C" transform="matrix(1.00, 0.00, -0.00, -1.00, 191.6, 22.0)">o</text><text xml:space="preserve" font-family="IowanOldStyle-Roman" font-size="44.0" fill="#5C5C5C" transform="matrix(1.00, 0.00, -0.00, -1.00, 215.8, 22.0)"> </text><text xml:space="preserve" font-family="IowanOldStyle-Roman" font-size="44.0" fill="#5C5C5C" transform="matrix(1.00, 0.00, -0.00, -1.00, 228.0, 22.0)">n</text><image xlink:href="9378B55F29604251C47072AC037CEB34.png" width="516.00" height="60.00" transform="matrix(1.00, 0.00, -0.00, -1.00, 248.0, 61.0)"></image><text xml:space="preserve" font-family="IowanOldStyle-Roman" font-size="44.0" fill="#5C5C5C" transform="matrix(1.00, 0.00, -0.00, -1.00, 253.8, 22.0)">a</text><text xml:space="preserve" font-family="IowanOldStyle-Roman" font-size="44.0" fill="#5C5C5C" transform="matrix(1.00, 0.00, -0.00, -1.00, 275.0, 22.0)"> </text><text xml:space="preserve" font-family="IowanOldStyle-Roman" font-size="44.0" fill="#5C5C5C" transform="matrix(1.00, 0.00, -0.00, -1.00, 287.2, 22.0)">l</text><text xml:space="preserve" font-family="IowanOldStyle-Roman" font-size="44.0" fill="#5C5C5C" transform="matrix(1.00, 0.00, -0.00, -1.00, 300.0, 22.0)">i</text><text xml:space="preserve" font-family="IowanOldStyle-Roman" font-size="44.0" fill="#5C5C5C" transform="matrix(1.00, 0.00, -0.00, -1.00, 313.1, 22.0)">n</text><text xml:space="preserve" font-family="IowanOldStyle-Roman" font-size="44.0" fill="#5C5C5C" transform="matrix(1.00, 0.00, -0.00, -1.00, 338.8, 22.0)">g</text><text xml:space="preserve" font-family="IowanOldStyle-Roman" font-size="44.0" fill="#5C5C5C" transform="matrix(1.00, 0.00, -0.00, -1.00, 361.5, 22.0)">u</text><text xml:space="preserve" font-family="IowanOldStyle-Roman" font-size="44.0" fill="#5C5C5C" transform="matrix(1.00, 0.00, -0.00, -1.00, 387.3, 22.0)">a</text><text xml:space="preserve" font-family="IowanOldStyle-Roman" font-size="44.0" fill="#5C5C5C" transform="matrix(1.00, 0.00, -0.00, -1.00, 408.5, 22.0)">g</text><text xml:space="preserve" font-family="IowanOldStyle-Roman" font-size="44.0" fill="#5C5C5C" transform="matrix(1.00, 0.00, -0.00, -1.00, 431.2, 22.0)">e</text><text xml:space="preserve" font-family="IowanOldStyle-Roman" font-size="44.0" fill="#5C5C5C" transform="matrix(1.00, 0.00, -0.00, -1.00, 452.7, 22.0)">m</text><text xml:space="preserve" font-family="IowanOldStyle-Roman" font-size="44.0" fill="#5C5C5C" transform="matrix(1.00, 0.00, -0.00, -1.00, 491.4, 22.0)"> </text><text xml:space="preserve" font-family="IowanOldStyle-Roman" font-size="44.0" fill="#5C5C5C" transform="matrix(1.00, 0.00, -0.00, -1.00, 503.6, 22.0)">G</text><text xml:space="preserve" font-family="IowanOldStyle-Roman" font-size="44.0" fill="#5C5C5C" transform="matrix(1.00, 0.00, -0.00, -1.00, 536.3, 22.0)">o</text><text xml:space="preserve" font-family="IowanOldStyle-Roman" font-size="44.0" fill="#5C5C5C" transform="matrix(1.00, 0.00, -0.00, -1.00, 560.5, 22.0)"> </text><text xml:space="preserve" font-family="IowanOldStyle-Roman" font-size="44.0" fill="#5C5C5C" transform="matrix(1.00, 0.00, -0.00, -1.00, 572.7, 22.0)">(</text><text xml:space="preserve" font-family="IowanOldStyle-Roman" font-size="44.0" fill="#5C5C5C" transform="matrix(1.00, 0.00, -0.00, -1.00, 591.1, 22.0)">G</text><text xml:space="preserve" font-family="IowanOldStyle-Roman" font-size="44.0" fill="#5C5C5C" transform="matrix(1.00, 0.00, -0.00, -1.00, 623.8, 22.0)">o</text><text xml:space="preserve" font-family="IowanOldStyle-Roman" font-size="44.0" fill="#5C5C5C" transform="matrix(1.00, 0.00, -0.00, -1.00, 648.0, 22.0)">L</text><text xml:space="preserve" font-family="IowanOldStyle-Roman" font-size="44.0" fill="#5C5C5C" transform="matrix(1.00, 0.00, -0.00, -1.00, 674.0, 22.0)">a</text><text xml:space="preserve" font-family="IowanOldStyle-Roman" font-size="44.0" fill="#5C5C5C" transform="matrix(1.00, 0.00, -0.00, -1.00, 695.2, 22.0)">n</text><text xml:space="preserve" font-family="IowanOldStyle-Roman" font-size="44.0" fill="#5C5C5C" transform="matrix(1.00, 0.00, -0.00, -1.00, 720.8, 22.0)">g</text><text xml:space="preserve" font-family="IowanOldStyle-Roman" font-size="44.0" fill="#5C5C5C" transform="matrix(1.00, 0.00, -0.00, -1.00, 743.6, 22.0)">)</text></g></svg>