<?xml version="1.0" encoding="UTF-8" standalone="no"?><svg xmlns="http://www.w3.org/2000/svg" xmlns:xlink="http://www.w3.org/1999/xlink" clip-rule="evenodd" stroke-miterlimit="4.00" viewBox="0 0 1272 859"><desc>SVG generated by Keynote</desc><defs></defs><g transform="matrix(1.00, 0.00, -0.00, -1.00, 0.0, 859.0)"><g><clipPath id="clip-298"><path d="M 0.2 0.1 L 1271.5 0.1 L 1271.5 846.1 L 0.2 846.1 Z M 0.2 0.1 "></path></clipPath><g clip-path="url(#clip-298)"><image xlink:href="101D9759C0E9C78CD7B4837DA10CE086.png" width="275.00" height="183.00" transform="matrix(4.63, 0.00, -0.00, -4.62, 0.0, 846.0)"></image></g></g><g><clipPath id="clip-299"><path d="M 120.2 731.8 L 1031.6 731.8 L 1031.6 858.6 L 120.2 858.6 Z M 120.2 731.8 "></path></clipPath><g clip-path="url(#clip-299)"><image xlink:href="8F6D98F3352E6E1BC6EBDCBAE9A2A0D2.png" width="909.00" height="125.00" transform="matrix(1.00, 0.00, -0.00, -1.00, 121.2, 857.6)" opacity="0.50"></image></g></g><g><clipPath id="clip-300"><path d="M 115.1 741.8 L 1036.7 741.8 L 1036.7 865.7 L 115.1 865.7 Z M 115.1 741.8 "></path></clipPath><g clip-path="url(#clip-300)"><text xml:space="preserve" font-family="IowanOldStyle-Roman" font-size="55.0" fill="#75D5FF" transform="matrix(1.00, 0.00, -0.00, -1.00, 348.0, 790.0)">C</text><text xml:space="preserve" font-family="IowanOldStyle-Roman" font-size="55.0" fill="#75D5FF" transform="matrix(1.00, 0.00, -0.00, -1.00, 386.9, 790.0)">o</text><text xml:space="preserve" font-family="IowanOldStyle-Roman" font-size="55.0" fill="#75D5FF" transform="matrix(1.00, 0.00, -0.00, -1.00, 417.2, 790.0)">m</text><text xml:space="preserve" font-family="IowanOldStyle-Roman" font-size="55.0" fill="#75D5FF" transform="matrix(1.00, 0.00, -0.00, -1.00, 465.6, 790.0)"> </text><text xml:space="preserve" font-family="IowanOldStyle-Roman" font-size="55.0" fill="#75D5FF" transform="matrix(1.00, 0.00, -0.00, -1.00, 480.8, 790.0)">L</text><text xml:space="preserve" font-family="IowanOldStyle-Roman" font-size="55.0" fill="#75D5FF" transform="matrix(1.00, 0.00, -0.00, -1.00, 512.3, 790.0)">i</text><text xml:space="preserve" font-family="IowanOldStyle-Roman" font-size="55.0" fill="#75D5FF" transform="matrix(1.00, 0.00, -0.00, -1.00, 528.6, 790.0)">n</text><text xml:space="preserve" font-family="IowanOldStyle-Roman" font-size="55.0" fill="#75D5FF" transform="matrix(1.00, 0.00, -0.00, -1.00, 560.7, 790.0)">u</text><text xml:space="preserve" font-family="IowanOldStyle-Roman" font-size="55.0" fill="#75D5FF" transform="matrix(1.00, 0.00, -0.00, -1.00, 593.0, 790.0)">x</text><text xml:space="preserve" font-family="IowanOldStyle-Roman" font-size="55.0" fill="#75D5FF" transform="matrix(1.00, 0.00, -0.00, -1.00, 622.2, 790.0)"> </text><text xml:space="preserve" font-family="IowanOldStyle-Roman" font-size="55.0" fill="#75D5FF" transform="matrix(1.00, 0.00, -0.00, -1.00, 637.4, 790.0)">e</text><text xml:space="preserve" font-family="IowanOldStyle-Roman" font-size="55.0" fill="#75D5FF" transform="matrix(1.00, 0.00, -0.00, -1.00, 664.2, 790.0)"> </text><text xml:space="preserve" font-family="IowanOldStyle-Roman" font-size="55.0" fill="#75D5FF" transform="matrix(1.00, 0.00, -0.00, -1.00, 679.5, 790.0)">D</text><text xml:space="preserve" font-family="IowanOldStyle-Roman" font-size="55.0" fill="#75D5FF" transform="matrix(1.00, 0.00, -0.00, -1.00, 722.4, 790.0)">o</text><text xml:space="preserve" font-family="IowanOldStyle-Roman" font-size="55.0" fill="#75D5FF" transform="matrix(1.00, 0.00, -0.00, -1.00, 752.7, 790.0)">c</text><text xml:space="preserve" font-family="IowanOldStyle-Roman" font-size="55.0" fill="#75D5FF" transform="matrix(1.00, 0.00, -0.00, -1.00, 777.3, 790.0)">k</text><text xml:space="preserve" font-family="IowanOldStyle-Roman" font-size="55.0" fill="#75D5FF" transform="matrix(1.00, 0.00, -0.00, -1.00, 805.6, 790.0)">e</text><text xml:space="preserve" font-family="IowanOldStyle-Roman" font-size="55.0" fill="#75D5FF" transform="matrix(1.00, 0.00, -0.00, -1.00, 832.4, 790.0)">r</text></g></g></g></svg>