<?xml version="1.0" encoding="UTF-8" standalone="no"?><svg xmlns="http://www.w3.org/2000/svg" xmlns:xlink="http://www.w3.org/1999/xlink" clip-rule="evenodd" stroke-miterlimit="4.00" viewBox="0 0 274 149"><desc>SVG generated by Keynote</desc><defs></defs><g transform="matrix(1.00, 0.00, -0.00, -1.00, 0.0, 149.0)"><image xlink:href="FB08F008A69DE55AF2D74393011DADE4.png" width="249.00" height="121.00" transform="matrix(1.00, 0.00, -0.00, -1.00, 9.0, 139.0)"></image><text xml:space="preserve" font-family="IowanOldStyle-Roman" font-size="60.0" fill="#5C5C5C" transform="matrix(0.96, 0.28, 0.28, -0.96, 21.8, 25.8)">S</text><text xml:space="preserve" font-family="IowanOldStyle-Roman" font-size="60.0" fill="#5C5C5C" transform="matrix(0.96, 0.28, 0.28, -0.96, 52.9, 35.0)">o</text><text xml:space="preserve" font-family="IowanOldStyle-Roman" font-size="60.0" fill="#5C5C5C" transform="matrix(0.96, 0.28, 0.28, -0.96, 84.6, 44.4)">l</text><text xml:space="preserve" font-family="IowanOldStyle-Roman" font-size="60.0" fill="#5C5C5C" transform="matrix(0.96, 0.28, 0.28, -0.96, 101.4, 49.4)">u</text><text xml:space="preserve" font-family="IowanOldStyle-Roman" font-size="60.0" fill="#5C5C5C" transform="matrix(0.96, 0.28, 0.28, -0.96, 135.2, 59.4)">รง</text><text xml:space="preserve" font-family="IowanOldStyle-Roman" font-size="60.0" fill="#5C5C5C" transform="matrix(0.96, 0.28, 0.28, -0.96, 160.9, 67.1)">รฃ</text><text xml:space="preserve" font-family="IowanOldStyle-Roman" font-size="60.0" fill="#5C5C5C" transform="matrix(0.96, 0.28, 0.28, -0.96, 188.5, 75.3)">o</text><text xml:space="preserve" font-family="IowanOldStyle-Roman" font-size="60.0" fill="#5C5C5C" transform="matrix(0.96, 0.28, 0.28, -0.96, 220.2, 84.7)"> </text><text xml:space="preserve" font-family="IowanOldStyle-Roman" font-size="60.0" fill="#5C5C5C" transform="matrix(0.96, 0.28, 0.28, -0.96, 236.2, 89.4)">?</text></g></svg>