<?xml version="1.0" encoding="UTF-8" standalone="no"?><svg xmlns="http://www.w3.org/2000/svg" xmlns:xlink="http://www.w3.org/1999/xlink" clip-rule="evenodd" stroke-miterlimit="4.00" viewBox="0 0 559 81"><desc>SVG generated by Keynote</desc><defs></defs><g transform="matrix(1.00, 0.00, -0.00, -1.00, 0.0, 81.0)"><image xlink:href="../../4014240A-EA08-4876-A69B-E8F3A0126C3A/assets/8F3A1B983AB865E8839C0419F5227487.png" width="557.00" height="77.00" transform="matrix(1.00, 0.00, -0.00, -1.00, 1.0, 78.0)"></image><text xml:space="preserve" font-family="DINCondensed-Bold" font-weight="bold" font-size="86.0" fill="#747676" transform="matrix(1.00, 0.00, -0.00, -1.00, 5.0, 11.0)">O</text><text xml:space="preserve" font-family="DINCondensed-Bold" font-weight="bold" font-size="86.0" fill="#747676" transform="matrix(1.00, 0.00, -0.00, -1.00, 41.6, 11.0)"> </text><text xml:space="preserve" font-family="DINCondensed-Bold" font-weight="bold" font-size="86.0" fill="#747676" transform="matrix(1.00, 0.00, -0.00, -1.00, 57.6, 11.0)">V</text><text xml:space="preserve" font-family="DINCondensed-Bold" font-weight="bold" font-size="86.0" fill="#747676" transform="matrix(1.00, 0.00, -0.00, -1.00, 89.5, 11.0)">a</text><text xml:space="preserve" font-family="DINCondensed-Bold" font-weight="bold" font-size="86.0" fill="#747676" transform="matrix(1.00, 0.00, -0.00, -1.00, 121.3, 11.0)">l</text><text xml:space="preserve" font-family="DINCondensed-Bold" font-weight="bold" font-size="86.0" fill="#747676" transform="matrix(1.00, 0.00, -0.00, -1.00, 137.3, 11.0)">o</text><text xml:space="preserve" font-family="DINCondensed-Bold" font-weight="bold" font-size="86.0" fill="#747676" transform="matrix(1.00, 0.00, -0.00, -1.00, 169.1, 11.0)">r</text><text xml:space="preserve" font-family="DINCondensed-Bold" font-weight="bold" font-size="86.0" fill="#747676" transform="matrix(1.00, 0.00, -0.00, -1.00, 193.0, 11.0)"> </text><text xml:space="preserve" font-family="DINCondensed-Bold" font-weight="bold" font-size="86.0" fill="#747676" transform="matrix(1.00, 0.00, -0.00, -1.00, 209.0, 11.0)">d</text><text xml:space="preserve" font-family="DINCondensed-Bold" font-weight="bold" font-size="86.0" fill="#747676" transform="matrix(1.00, 0.00, -0.00, -1.00, 242.4, 11.0)">e</text><text xml:space="preserve" font-family="DINCondensed-Bold" font-weight="bold" font-size="86.0" fill="#747676" transform="matrix(1.00, 0.00, -0.00, -1.00, 274.3, 11.0)"> </text><text xml:space="preserve" font-family="DINCondensed-Bold" font-weight="bold" font-size="86.0" fill="#747676" transform="matrix(1.00, 0.00, -0.00, -1.00, 290.3, 11.0)">u</text><text xml:space="preserve" font-family="DINCondensed-Bold" font-weight="bold" font-size="86.0" fill="#747676" transform="matrix(1.00, 0.00, -0.00, -1.00, 323.7, 11.0)">m</text><text xml:space="preserve" font-family="DINCondensed-Bold" font-weight="bold" font-size="86.0" fill="#747676" transform="matrix(1.00, 0.00, -0.00, -1.00, 374.6, 11.0)">a</text><text xml:space="preserve" font-family="DINCondensed-Bold" font-weight="bold" font-size="86.0" fill="#747676" transform="matrix(1.00, 0.00, -0.00, -1.00, 406.4, 11.0)"> </text><text xml:space="preserve" font-family="DINCondensed-Bold" font-weight="bold" font-size="86.0" fill="#747676" transform="matrix(1.00, 0.00, -0.00, -1.00, 422.4, 11.0)">I</text><text xml:space="preserve" font-family="DINCondensed-Bold" font-weight="bold" font-size="86.0" fill="#747676" transform="matrix(1.00, 0.00, -0.00, -1.00, 440.0, 11.0)">d</text><text xml:space="preserve" font-family="DINCondensed-Bold" font-weight="bold" font-size="86.0" fill="#747676" transform="matrix(1.00, 0.00, -0.00, -1.00, 473.4, 11.0)">é</text><text xml:space="preserve" font-family="DINCondensed-Bold" font-weight="bold" font-size="86.0" fill="#747676" transform="matrix(1.00, 0.00, -0.00, -1.00, 505.3, 11.0)">i</text><text xml:space="preserve" font-family="DINCondensed-Bold" font-weight="bold" font-size="86.0" fill="#747676" transform="matrix(1.00, 0.00, -0.00, -1.00, 521.3, 11.0)">a</text></g></svg>