<?xml version="1.0" encoding="UTF-8" standalone="no"?><svg xmlns="http://www.w3.org/2000/svg" xmlns:xlink="http://www.w3.org/1999/xlink" clip-rule="evenodd" stroke-miterlimit="4.00" viewBox="0 0 256 61"><desc>SVG generated by Keynote</desc><defs></defs><g transform="matrix(1.00, 0.00, -0.00, -1.00, 0.0, 61.0)"><image xlink:href="5492AA07B38D9CF7DDB56DAF116C2053.png" width="254.00" height="58.00" transform="matrix(1.00, 0.00, -0.00, -1.00, 1.0, 60.0)"></image><text xml:space="preserve" font-family="IowanOldStyle-Roman" font-size="44.0" fill="#5C5C5C" transform="matrix(1.00, 0.00, -0.00, -1.00, 7.0, 21.0)">C</text><text xml:space="preserve" font-family="IowanOldStyle-Roman" font-size="44.0" fill="#5C5C5C" transform="matrix(1.00, 0.00, -0.00, -1.00, 38.1, 21.0)">o</text><text xml:space="preserve" font-family="IowanOldStyle-Roman" font-size="44.0" fill="#5C5C5C" transform="matrix(1.00, 0.00, -0.00, -1.00, 62.3, 21.0)">l</text><text xml:space="preserve" font-family="IowanOldStyle-Roman" font-size="44.0" fill="#5C5C5C" transform="matrix(1.00, 0.00, -0.00, -1.00, 75.2, 21.0)">a</text><text xml:space="preserve" font-family="IowanOldStyle-Roman" font-size="44.0" fill="#5C5C5C" transform="matrix(1.00, 0.00, -0.00, -1.00, 96.3, 21.0)">b</text><text xml:space="preserve" font-family="IowanOldStyle-Roman" font-size="44.0" fill="#5C5C5C" transform="matrix(1.00, 0.00, -0.00, -1.00, 120.8, 21.0)">o</text><text xml:space="preserve" font-family="IowanOldStyle-Roman" font-size="44.0" fill="#5C5C5C" transform="matrix(1.00, 0.00, -0.00, -1.00, 145.0, 21.0)">r</text><text xml:space="preserve" font-family="IowanOldStyle-Roman" font-size="44.0" fill="#5C5C5C" transform="matrix(1.00, 0.00, -0.00, -1.00, 162.2, 21.0)">a</text><text xml:space="preserve" font-family="IowanOldStyle-Roman" font-size="44.0" fill="#5C5C5C" transform="matrix(1.00, 0.00, -0.00, -1.00, 183.4, 21.0)">รง</text><text xml:space="preserve" font-family="IowanOldStyle-Roman" font-size="44.0" fill="#5C5C5C" transform="matrix(1.00, 0.00, -0.00, -1.00, 203.0, 21.0)">รฃ</text><text xml:space="preserve" font-family="IowanOldStyle-Roman" font-size="44.0" fill="#5C5C5C" transform="matrix(1.00, 0.00, -0.00, -1.00, 224.2, 21.0)">o</text></g></svg>