<?xml version="1.0" encoding="UTF-8" standalone="no"?><svg xmlns="http://www.w3.org/2000/svg" xmlns:xlink="http://www.w3.org/1999/xlink" clip-rule="evenodd" stroke-miterlimit="4.00" viewBox="0 0 1920 1080"><desc>SVG generated by Keynote</desc><defs></defs><g transform="matrix(1.00, 0.00, -0.00, -1.00, 0.0, 1080.0)"><path d="M 0.0 1080.0 L 1920.0 1080.0 L 1920.0 0.0 L 0.0 0.0 Z M 0.0 1080.0 " fill="#FFFFFF"></path><path d="M 1076.8 1069.9 L 1912.4 1069.9 L 1912.4 918.1 L 1076.8 918.1 Z M 1076.8 1069.9 " fill="#FFFFFF"></path><image xlink:href="../../E4793BFA-68B6-4966-AC9B-839D55AB8024/assets/6805D3FD6E710A9365DF74CB3AD9C4D0.png" width="841.00" height="150.00" transform="matrix(1.00, 0.00, -0.00, -1.00, 1107.9, 1033.4)" opacity="0.75"></image><text xml:space="preserve" font-family="DINCondensed-Bold" font-weight="bold" font-size="60.0" fill="#605C68" transform="matrix(1.00, 0.00, -0.00, -1.00, 1234.0, 981.0)">h</text><text xml:space="preserve" font-family="DINCondensed-Bold" font-weight="bold" font-size="60.0" fill="#605C68" transform="matrix(1.00, 0.00, -0.00, -1.00, 1257.3, 981.0)">t</text><text xml:space="preserve" font-family="DINCondensed-Bold" font-weight="bold" font-size="60.0" fill="#605C68" transform="matrix(1.00, 0.00, -0.00, -1.00, 1269.6, 981.0)">t</text><text xml:space="preserve" font-family="DINCondensed-Bold" font-weight="bold" font-size="60.0" fill="#605C68" transform="matrix(1.00, 0.00, -0.00, -1.00, 1281.8, 981.0)">p</text><text xml:space="preserve" font-family="DINCondensed-Bold" font-weight="bold" font-size="60.0" fill="#605C68" transform="matrix(1.00, 0.00, -0.00, -1.00, 1305.2, 981.0)">:</text><text xml:space="preserve" font-family="DINCondensed-Bold" font-weight="bold" font-size="60.0" fill="#605C68" transform="matrix(1.00, 0.00, -0.00, -1.00, 1316.3, 981.0)">/</text><text xml:space="preserve" font-family="DINCondensed-Bold" font-weight="bold" font-size="60.0" fill="#605C68" transform="matrix(1.00, 0.00, -0.00, -1.00, 1329.6, 981.0)">/</text><text xml:space="preserve" font-family="DINCondensed-Bold" font-weight="bold" font-size="60.0" fill="#605C68" transform="matrix(1.00, 0.00, -0.00, -1.00, 1343.0, 981.0)">j</text><text xml:space="preserve" font-family="DINCondensed-Bold" font-weight="bold" font-size="60.0" fill="#605C68" transform="matrix(1.00, 0.00, -0.00, -1.00, 1354.1, 981.0)">o</text><text xml:space="preserve" font-family="DINCondensed-Bold" font-weight="bold" font-size="60.0" fill="#605C68" transform="matrix(1.00, 0.00, -0.00, -1.00, 1376.3, 981.0)">a</text><text xml:space="preserve" font-family="DINCondensed-Bold" font-weight="bold" font-size="60.0" fill="#605C68" transform="matrix(1.00, 0.00, -0.00, -1.00, 1398.5, 981.0)">o</text><text xml:space="preserve" font-family="DINCondensed-Bold" font-weight="bold" font-size="60.0" fill="#605C68" transform="matrix(1.00, 0.00, -0.00, -1.00, 1420.7, 981.0)">-</text><text xml:space="preserve" font-family="DINCondensed-Bold" font-weight="bold" font-size="60.0" fill="#605C68" transform="matrix(1.00, 0.00, -0.00, -1.00, 1444.1, 981.0)">p</text><text xml:space="preserve" font-family="DINCondensed-Bold" font-weight="bold" font-size="60.0" fill="#605C68" transform="matrix(1.00, 0.00, -0.00, -1.00, 1467.4, 981.0)">a</text><text xml:space="preserve" font-family="DINCondensed-Bold" font-weight="bold" font-size="60.0" fill="#605C68" transform="matrix(1.00, 0.00, -0.00, -1.00, 1489.6, 981.0)">r</text><text xml:space="preserve" font-family="DINCondensed-Bold" font-weight="bold" font-size="60.0" fill="#605C68" transform="matrix(1.00, 0.00, -0.00, -1.00, 1505.9, 981.0)">a</text><text xml:space="preserve" font-family="DINCondensed-Bold" font-weight="bold" font-size="60.0" fill="#605C68" transform="matrix(1.00, 0.00, -0.00, -1.00, 1528.1, 981.0)">n</text><text xml:space="preserve" font-family="DINCondensed-Bold" font-weight="bold" font-size="60.0" fill="#605C68" transform="matrix(1.00, 0.00, -0.00, -1.00, 1551.5, 981.0)">a</text><text xml:space="preserve" font-family="DINCondensed-Bold" font-weight="bold" font-size="60.0" fill="#605C68" transform="matrix(1.00, 0.00, -0.00, -1.00, 1573.7, 981.0)">.</text><text xml:space="preserve" font-family="DINCondensed-Bold" font-weight="bold" font-size="60.0" fill="#605C68" transform="matrix(1.00, 0.00, -0.00, -1.00, 1584.8, 981.0)">c</text><text xml:space="preserve" font-family="DINCondensed-Bold" font-weight="bold" font-size="60.0" fill="#605C68" transform="matrix(1.00, 0.00, -0.00, -1.00, 1607.0, 981.0)">o</text><text xml:space="preserve" font-family="DINCondensed-Bold" font-weight="bold" font-size="60.0" fill="#605C68" transform="matrix(1.00, 0.00, -0.00, -1.00, 1629.2, 981.0)">m</text><text xml:space="preserve" font-family="DINCondensed-Bold" font-weight="bold" font-size="60.0" fill="#605C68" transform="matrix(1.00, 0.00, -0.00, -1.00, 1664.7, 981.0)">.</text><text xml:space="preserve" font-family="DINCondensed-Bold" font-weight="bold" font-size="60.0" fill="#605C68" transform="matrix(1.00, 0.00, -0.00, -1.00, 1675.9, 981.0)">b</text><text xml:space="preserve" font-family="DINCondensed-Bold" font-weight="bold" font-size="60.0" fill="#605C68" transform="matrix(1.00, 0.00, -0.00, -1.00, 1699.2, 981.0)">r</text><text xml:space="preserve" font-family="DINCondensed-Bold" font-weight="bold" font-size="60.0" fill="#605C68" transform="matrix(1.00, 0.00, -0.00, -1.00, 1715.9, 981.0)">/</text><text xml:space="preserve" font-family="DINCondensed-Bold" font-weight="bold" font-size="60.0" fill="#605C68" transform="matrix(1.00, 0.00, -0.00, -1.00, 1729.2, 981.0)">b</text><text xml:space="preserve" font-family="DINCondensed-Bold" font-weight="bold" font-size="60.0" fill="#605C68" transform="matrix(1.00, 0.00, -0.00, -1.00, 1752.6, 981.0)">l</text><text xml:space="preserve" font-family="DINCondensed-Bold" font-weight="bold" font-size="60.0" fill="#605C68" transform="matrix(1.00, 0.00, -0.00, -1.00, 1763.7, 981.0)">o</text><text xml:space="preserve" font-family="DINCondensed-Bold" font-weight="bold" font-size="60.0" fill="#605C68" transform="matrix(1.00, 0.00, -0.00, -1.00, 1785.9, 981.0)">g</text><text xml:space="preserve" font-family="DINCondensed-Bold" font-weight="bold" font-size="60.0" fill="#605C68" transform="matrix(1.00, 0.00, -0.00, -1.00, 1809.3, 981.0)">/</text><path d="M 0.0 0.0 L 1898.4 0.0 " fill="none" stroke="#747676" stroke-width="4.00" stroke-linecap="round" stroke-linejoin="round" stroke-dasharray="0.0, 12.0" transform="matrix(1.00, 0.00, 0.00, -1.00, 10.8, 905.6)"></path><image xlink:href="../../D9ECEF43-FC1D-44E1-8C4D-DC3078115321/assets/91CA1044F9484EAB655B25FBFE690083.png" width="538.00" height="77.00" transform="matrix(1.00, 0.00, -0.00, -1.00, 28.0, 1043.0)"></image><text xml:space="preserve" font-family="DINCondensed-Bold" font-weight="bold" font-size="86.0" fill="#747676" transform="matrix(1.00, 0.00, -0.00, -1.00, 31.0, 976.0)">D</text><text xml:space="preserve" font-family="DINCondensed-Bold" font-weight="bold" font-size="86.0" fill="#747676" transform="matrix(1.00, 0.00, -0.00, -1.00, 67.6, 976.0)">o</text><text xml:space="preserve" font-family="DINCondensed-Bold" font-weight="bold" font-size="86.0" fill="#747676" transform="matrix(1.00, 0.00, -0.00, -1.00, 99.5, 976.0)">c</text><text xml:space="preserve" font-family="DINCondensed-Bold" font-weight="bold" font-size="86.0" fill="#747676" transform="matrix(1.00, 0.00, -0.00, -1.00, 130.2, 976.0)">k</text><text xml:space="preserve" font-family="DINCondensed-Bold" font-weight="bold" font-size="86.0" fill="#747676" transform="matrix(1.00, 0.00, -0.00, -1.00, 162.7, 976.0)">e</text><text xml:space="preserve" font-family="DINCondensed-Bold" font-weight="bold" font-size="86.0" fill="#747676" transform="matrix(1.00, 0.00, -0.00, -1.00, 194.5, 976.0)">r</text><text xml:space="preserve" font-family="DINCondensed-Bold" font-weight="bold" font-size="86.0" fill="#747676" transform="matrix(1.00, 0.00, -0.00, -1.00, 218.4, 976.0)"> </text><text xml:space="preserve" font-family="DINCondensed-Bold" font-weight="bold" font-size="86.0" fill="#747676" transform="matrix(1.00, 0.00, -0.00, -1.00, 234.4, 976.0)">e</text><text xml:space="preserve" font-family="DINCondensed-Bold" font-weight="bold" font-size="86.0" fill="#747676" transform="matrix(1.00, 0.00, -0.00, -1.00, 266.2, 976.0)"> </text><text xml:space="preserve" font-family="DINCondensed-Bold" font-weight="bold" font-size="86.0" fill="#747676" transform="matrix(1.00, 0.00, -0.00, -1.00, 282.2, 976.0)">o</text><text xml:space="preserve" font-family="DINCondensed-Bold" font-weight="bold" font-size="86.0" fill="#747676" transform="matrix(1.00, 0.00, -0.00, -1.00, 314.0, 976.0)"> </text><text xml:space="preserve" font-family="DINCondensed-Bold" font-weight="bold" font-size="86.0" fill="#747676" transform="matrix(1.00, 0.00, -0.00, -1.00, 330.0, 976.0)">M</text><text xml:space="preserve" font-family="DINCondensed-Bold" font-weight="bold" font-size="86.0" fill="#747676" transform="matrix(1.00, 0.00, -0.00, -1.00, 377.8, 976.0)">e</text><text xml:space="preserve" font-family="DINCondensed-Bold" font-weight="bold" font-size="86.0" fill="#747676" transform="matrix(1.00, 0.00, -0.00, -1.00, 409.7, 976.0)">r</text><text xml:space="preserve" font-family="DINCondensed-Bold" font-weight="bold" font-size="86.0" fill="#747676" transform="matrix(1.00, 0.00, -0.00, -1.00, 432.5, 976.0)">c</text><text xml:space="preserve" font-family="DINCondensed-Bold" font-weight="bold" font-size="86.0" fill="#747676" transform="matrix(1.00, 0.00, -0.00, -1.00, 464.4, 976.0)">a</text><text xml:space="preserve" font-family="DINCondensed-Bold" font-weight="bold" font-size="86.0" fill="#747676" transform="matrix(1.00, 0.00, -0.00, -1.00, 496.2, 976.0)">d</text><text xml:space="preserve" font-family="DINCondensed-Bold" font-weight="bold" font-size="86.0" fill="#747676" transform="matrix(1.00, 0.00, -0.00, -1.00, 529.6, 976.0)">o</text><text xml:space="preserve" font-family="DINCondensed-Bold" font-weight="bold" font-size="86.0" fill="#747676" transform="matrix(1.00, 0.00, -0.00, -1.00, 561.4, 976.0)"> </text><image xlink:href="../../21AD16C7-8610-437E-9157-FC2442D804B1/assets/1F3B1D56C938478523CBE8B7DFB8B301.png" width="469.00" height="232.00" transform="matrix(1.00, 0.00, -0.00, -1.00, 83.0, 579.0)"></image><text xml:space="preserve" font-family="IowanOldStyle-Roman" font-size="44.0" fill="#5C5C5C" transform="matrix(0.92, 0.40, 0.40, -0.92, 100.5, 356.0)">R</text><text xml:space="preserve" font-family="IowanOldStyle-Roman" font-size="44.0" fill="#5C5C5C" transform="matrix(0.92, 0.40, 0.40, -0.92, 127.8, 367.9)">e</text><text xml:space="preserve" font-family="IowanOldStyle-Roman" font-size="44.0" fill="#5C5C5C" transform="matrix(0.92, 0.40, 0.40, -0.92, 147.4, 376.5)">s</text><text xml:space="preserve" font-family="IowanOldStyle-Roman" font-size="44.0" fill="#5C5C5C" transform="matrix(0.92, 0.40, 0.40, -0.92, 165.3, 384.3)">u</text><text xml:space="preserve" font-family="IowanOldStyle-Roman" font-size="44.0" fill="#5C5C5C" transform="matrix(0.92, 0.40, 0.40, -0.92, 189.0, 394.7)">l</text><text xml:space="preserve" font-family="IowanOldStyle-Roman" font-size="44.0" fill="#5C5C5C" transform="matrix(0.92, 0.40, 0.40, -0.92, 200.8, 399.8)">t</text><text xml:space="preserve" font-family="IowanOldStyle-Roman" font-size="44.0" fill="#5C5C5C" transform="matrix(0.92, 0.40, 0.40, -0.92, 215.3, 406.1)">a</text><text xml:space="preserve" font-family="IowanOldStyle-Roman" font-size="44.0" fill="#5C5C5C" transform="matrix(0.92, 0.40, 0.40, -0.92, 234.7, 414.6)">d</text><text xml:space="preserve" font-family="IowanOldStyle-Roman" font-size="44.0" fill="#5C5C5C" transform="matrix(0.92, 0.40, 0.40, -0.92, 257.3, 424.5)">o</text><text xml:space="preserve" font-family="IowanOldStyle-Roman" font-size="44.0" fill="#5C5C5C" transform="matrix(0.92, 0.40, 0.40, -0.92, 279.5, 434.2)"> </text><text xml:space="preserve" font-family="IowanOldStyle-Roman" font-size="44.0" fill="#5C5C5C" transform="matrix(0.92, 0.40, 0.40, -0.92, 290.7, 439.1)">G</text><text xml:space="preserve" font-family="IowanOldStyle-Roman" font-size="44.0" fill="#5C5C5C" transform="matrix(0.92, 0.40, 0.40, -0.92, 320.6, 452.2)">o</text><text xml:space="preserve" font-family="IowanOldStyle-Roman" font-size="44.0" fill="#5C5C5C" transform="matrix(0.92, 0.40, 0.40, -0.92, 342.8, 461.9)">o</text><text xml:space="preserve" font-family="IowanOldStyle-Roman" font-size="44.0" fill="#5C5C5C" transform="matrix(0.92, 0.40, 0.40, -0.92, 365.0, 471.6)">g</text><text xml:space="preserve" font-family="IowanOldStyle-Roman" font-size="44.0" fill="#5C5C5C" transform="matrix(0.92, 0.40, 0.40, -0.92, 385.9, 480.7)">l</text><text xml:space="preserve" font-family="IowanOldStyle-Roman" font-size="44.0" fill="#5C5C5C" transform="matrix(0.92, 0.40, 0.40, -0.92, 397.6, 485.8)">e</text><text xml:space="preserve" font-family="IowanOldStyle-Roman" font-size="44.0" fill="#5C5C5C" transform="matrix(0.92, 0.40, 0.40, -0.92, 417.3, 494.4)"> </text><text xml:space="preserve" font-family="IowanOldStyle-Roman" font-size="44.0" fill="#5C5C5C" transform="matrix(0.92, 0.40, 0.40, -0.92, 428.5, 499.3)">T</text><text xml:space="preserve" font-family="IowanOldStyle-Roman" font-size="44.0" fill="#5C5C5C" transform="matrix(0.92, 0.40, 0.40, -0.92, 449.3, 508.4)">r</text><text xml:space="preserve" font-family="IowanOldStyle-Roman" font-size="44.0" fill="#5C5C5C" transform="matrix(0.92, 0.40, 0.40, -0.92, 465.0, 515.2)">e</text><text xml:space="preserve" font-family="IowanOldStyle-Roman" font-size="44.0" fill="#5C5C5C" transform="matrix(0.92, 0.40, 0.40, -0.92, 484.7, 523.8)">n</text><text xml:space="preserve" font-family="IowanOldStyle-Roman" font-size="44.0" fill="#5C5C5C" transform="matrix(0.92, 0.40, 0.40, -0.92, 508.2, 534.1)">d</text><text xml:space="preserve" font-family="IowanOldStyle-Roman" font-size="44.0" fill="#5C5C5C" transform="matrix(0.92, 0.40, 0.40, -0.92, 530.9, 544.0)">s</text><image xlink:href="../../21AD16C7-8610-437E-9157-FC2442D804B1/assets/FABF47415C236EDD08EE91969B24B4E2.png" width="861.00" height="618.00" transform="matrix(1.37, 0.00, -0.00, -1.37, 721.0, 866.0)"></image></g></svg>