<?xml version="1.0" encoding="UTF-8" standalone="no"?><svg xmlns="http://www.w3.org/2000/svg" xmlns:xlink="http://www.w3.org/1999/xlink" clip-rule="evenodd" stroke-miterlimit="4.00" viewBox="0 0 1920 1080"><desc>SVG generated by Keynote</desc><defs></defs><g transform="matrix(1.00, 0.00, -0.00, -1.00, 0.0, 1080.0)"><path d="M 0.0 1080.0 L 1920.0 1080.0 L 1920.0 0.0 L 0.0 0.0 Z M 0.0 1080.0 " fill="#FFFFFF"></path><path d="M 1076.8 1069.9 L 1912.4 1069.9 L 1912.4 918.1 L 1076.8 918.1 Z M 1076.8 1069.9 " fill="#FFFFFF"></path><image xlink:href="../../E4793BFA-68B6-4966-AC9B-839D55AB8024/assets/6805D3FD6E710A9365DF74CB3AD9C4D0.png" width="841.00" height="150.00" transform="matrix(1.00, 0.00, -0.00, -1.00, 1107.9, 1033.4)" opacity="0.75"></image><text xml:space="preserve" font-family="DINCondensed-Bold" font-weight="bold" font-size="60.0" fill="#605C68" transform="matrix(1.00, 0.00, -0.00, -1.00, 1234.0, 981.0)">h</text><text xml:space="preserve" font-family="DINCondensed-Bold" font-weight="bold" font-size="60.0" fill="#605C68" transform="matrix(1.00, 0.00, -0.00, -1.00, 1257.3, 981.0)">t</text><text xml:space="preserve" font-family="DINCondensed-Bold" font-weight="bold" font-size="60.0" fill="#605C68" transform="matrix(1.00, 0.00, -0.00, -1.00, 1269.6, 981.0)">t</text><text xml:space="preserve" font-family="DINCondensed-Bold" font-weight="bold" font-size="60.0" fill="#605C68" transform="matrix(1.00, 0.00, -0.00, -1.00, 1281.8, 981.0)">p</text><text xml:space="preserve" font-family="DINCondensed-Bold" font-weight="bold" font-size="60.0" fill="#605C68" transform="matrix(1.00, 0.00, -0.00, -1.00, 1305.2, 981.0)">:</text><text xml:space="preserve" font-family="DINCondensed-Bold" font-weight="bold" font-size="60.0" fill="#605C68" transform="matrix(1.00, 0.00, -0.00, -1.00, 1316.3, 981.0)">/</text><text xml:space="preserve" font-family="DINCondensed-Bold" font-weight="bold" font-size="60.0" fill="#605C68" transform="matrix(1.00, 0.00, -0.00, -1.00, 1329.6, 981.0)">/</text><text xml:space="preserve" font-family="DINCondensed-Bold" font-weight="bold" font-size="60.0" fill="#605C68" transform="matrix(1.00, 0.00, -0.00, -1.00, 1343.0, 981.0)">j</text><text xml:space="preserve" font-family="DINCondensed-Bold" font-weight="bold" font-size="60.0" fill="#605C68" transform="matrix(1.00, 0.00, -0.00, -1.00, 1354.1, 981.0)">o</text><text xml:space="preserve" font-family="DINCondensed-Bold" font-weight="bold" font-size="60.0" fill="#605C68" transform="matrix(1.00, 0.00, -0.00, -1.00, 1376.3, 981.0)">a</text><text xml:space="preserve" font-family="DINCondensed-Bold" font-weight="bold" font-size="60.0" fill="#605C68" transform="matrix(1.00, 0.00, -0.00, -1.00, 1398.5, 981.0)">o</text><text xml:space="preserve" font-family="DINCondensed-Bold" font-weight="bold" font-size="60.0" fill="#605C68" transform="matrix(1.00, 0.00, -0.00, -1.00, 1420.7, 981.0)">-</text><text xml:space="preserve" font-family="DINCondensed-Bold" font-weight="bold" font-size="60.0" fill="#605C68" transform="matrix(1.00, 0.00, -0.00, -1.00, 1444.1, 981.0)">p</text><text xml:space="preserve" font-family="DINCondensed-Bold" font-weight="bold" font-size="60.0" fill="#605C68" transform="matrix(1.00, 0.00, -0.00, -1.00, 1467.4, 981.0)">a</text><text xml:space="preserve" font-family="DINCondensed-Bold" font-weight="bold" font-size="60.0" fill="#605C68" transform="matrix(1.00, 0.00, -0.00, -1.00, 1489.6, 981.0)">r</text><text xml:space="preserve" font-family="DINCondensed-Bold" font-weight="bold" font-size="60.0" fill="#605C68" transform="matrix(1.00, 0.00, -0.00, -1.00, 1505.9, 981.0)">a</text><text xml:space="preserve" font-family="DINCondensed-Bold" font-weight="bold" font-size="60.0" fill="#605C68" transform="matrix(1.00, 0.00, -0.00, -1.00, 1528.1, 981.0)">n</text><text xml:space="preserve" font-family="DINCondensed-Bold" font-weight="bold" font-size="60.0" fill="#605C68" transform="matrix(1.00, 0.00, -0.00, -1.00, 1551.5, 981.0)">a</text><text xml:space="preserve" font-family="DINCondensed-Bold" font-weight="bold" font-size="60.0" fill="#605C68" transform="matrix(1.00, 0.00, -0.00, -1.00, 1573.7, 981.0)">.</text><text xml:space="preserve" font-family="DINCondensed-Bold" font-weight="bold" font-size="60.0" fill="#605C68" transform="matrix(1.00, 0.00, -0.00, -1.00, 1584.8, 981.0)">c</text><text xml:space="preserve" font-family="DINCondensed-Bold" font-weight="bold" font-size="60.0" fill="#605C68" transform="matrix(1.00, 0.00, -0.00, -1.00, 1607.0, 981.0)">o</text><text xml:space="preserve" font-family="DINCondensed-Bold" font-weight="bold" font-size="60.0" fill="#605C68" transform="matrix(1.00, 0.00, -0.00, -1.00, 1629.2, 981.0)">m</text><text xml:space="preserve" font-family="DINCondensed-Bold" font-weight="bold" font-size="60.0" fill="#605C68" transform="matrix(1.00, 0.00, -0.00, -1.00, 1664.7, 981.0)">.</text><text xml:space="preserve" font-family="DINCondensed-Bold" font-weight="bold" font-size="60.0" fill="#605C68" transform="matrix(1.00, 0.00, -0.00, -1.00, 1675.9, 981.0)">b</text><text xml:space="preserve" font-family="DINCondensed-Bold" font-weight="bold" font-size="60.0" fill="#605C68" transform="matrix(1.00, 0.00, -0.00, -1.00, 1699.2, 981.0)">r</text><text xml:space="preserve" font-family="DINCondensed-Bold" font-weight="bold" font-size="60.0" fill="#605C68" transform="matrix(1.00, 0.00, -0.00, -1.00, 1715.9, 981.0)">/</text><text xml:space="preserve" font-family="DINCondensed-Bold" font-weight="bold" font-size="60.0" fill="#605C68" transform="matrix(1.00, 0.00, -0.00, -1.00, 1729.2, 981.0)">b</text><text xml:space="preserve" font-family="DINCondensed-Bold" font-weight="bold" font-size="60.0" fill="#605C68" transform="matrix(1.00, 0.00, -0.00, -1.00, 1752.6, 981.0)">l</text><text xml:space="preserve" font-family="DINCondensed-Bold" font-weight="bold" font-size="60.0" fill="#605C68" transform="matrix(1.00, 0.00, -0.00, -1.00, 1763.7, 981.0)">o</text><text xml:space="preserve" font-family="DINCondensed-Bold" font-weight="bold" font-size="60.0" fill="#605C68" transform="matrix(1.00, 0.00, -0.00, -1.00, 1785.9, 981.0)">g</text><text xml:space="preserve" font-family="DINCondensed-Bold" font-weight="bold" font-size="60.0" fill="#605C68" transform="matrix(1.00, 0.00, -0.00, -1.00, 1809.3, 981.0)">/</text><path d="M 0.0 0.0 L 1898.4 0.0 " fill="none" stroke="#747676" stroke-width="4.00" stroke-linecap="round" stroke-linejoin="round" stroke-dasharray="0.0, 12.0" transform="matrix(1.00, 0.00, 0.00, -1.00, 10.8, 905.6)"></path><image xlink:href="FCC65B8C309D400D0EB2E0FB5214C89A.png" width="996.00" height="96.00" transform="matrix(1.00, 0.00, -0.00, -1.00, 28.0, 1043.0)"></image><text xml:space="preserve" font-family="DINCondensed-Bold" font-weight="bold" font-size="86.0" fill="#747676" transform="matrix(1.00, 0.00, -0.00, -1.00, 31.0, 976.0)">M</text><text xml:space="preserve" font-family="DINCondensed-Bold" font-weight="bold" font-size="86.0" fill="#747676" transform="matrix(1.00, 0.00, -0.00, -1.00, 78.8, 976.0)">o</text><text xml:space="preserve" font-family="DINCondensed-Bold" font-weight="bold" font-size="86.0" fill="#747676" transform="matrix(1.00, 0.00, -0.00, -1.00, 110.6, 976.0)">d</text><text xml:space="preserve" font-family="DINCondensed-Bold" font-weight="bold" font-size="86.0" fill="#747676" transform="matrix(1.00, 0.00, -0.00, -1.00, 144.1, 976.0)">e</text><text xml:space="preserve" font-family="DINCondensed-Bold" font-weight="bold" font-size="86.0" fill="#747676" transform="matrix(1.00, 0.00, -0.00, -1.00, 175.9, 976.0)">l</text><text xml:space="preserve" font-family="DINCondensed-Bold" font-weight="bold" font-size="86.0" fill="#747676" transform="matrix(1.00, 0.00, -0.00, -1.00, 191.9, 976.0)">o</text><text xml:space="preserve" font-family="DINCondensed-Bold" font-weight="bold" font-size="86.0" fill="#747676" transform="matrix(1.00, 0.00, -0.00, -1.00, 223.7, 976.0)"> </text><text xml:space="preserve" font-family="DINCondensed-Bold" font-weight="bold" font-size="86.0" fill="#747676" transform="matrix(1.00, 0.00, -0.00, -1.00, 239.7, 976.0)">d</text><text xml:space="preserve" font-family="DINCondensed-Bold" font-weight="bold" font-size="86.0" fill="#747676" transform="matrix(1.00, 0.00, -0.00, -1.00, 273.2, 976.0)">e</text><text xml:space="preserve" font-family="DINCondensed-Bold" font-weight="bold" font-size="86.0" fill="#747676" transform="matrix(1.00, 0.00, -0.00, -1.00, 305.0, 976.0)"> </text><text xml:space="preserve" font-family="DINCondensed-Bold" font-weight="bold" font-size="86.0" fill="#747676" transform="matrix(1.00, 0.00, -0.00, -1.00, 321.0, 976.0)">I</text><text xml:space="preserve" font-family="DINCondensed-Bold" font-weight="bold" font-size="86.0" fill="#747676" transform="matrix(1.00, 0.00, -0.00, -1.00, 338.5, 976.0)">m</text><text xml:space="preserve" font-family="DINCondensed-Bold" font-weight="bold" font-size="86.0" fill="#747676" transform="matrix(1.00, 0.00, -0.00, -1.00, 389.4, 976.0)">p</text><text xml:space="preserve" font-family="DINCondensed-Bold" font-weight="bold" font-size="86.0" fill="#747676" transform="matrix(1.00, 0.00, -0.00, -1.00, 422.9, 976.0)">l</text><text xml:space="preserve" font-family="DINCondensed-Bold" font-weight="bold" font-size="86.0" fill="#747676" transform="matrix(1.00, 0.00, -0.00, -1.00, 438.9, 976.0)">e</text><text xml:space="preserve" font-family="DINCondensed-Bold" font-weight="bold" font-size="86.0" fill="#747676" transform="matrix(1.00, 0.00, -0.00, -1.00, 470.7, 976.0)">m</text><text xml:space="preserve" font-family="DINCondensed-Bold" font-weight="bold" font-size="86.0" fill="#747676" transform="matrix(1.00, 0.00, -0.00, -1.00, 521.6, 976.0)">e</text><text xml:space="preserve" font-family="DINCondensed-Bold" font-weight="bold" font-size="86.0" fill="#747676" transform="matrix(1.00, 0.00, -0.00, -1.00, 553.4, 976.0)">n</text><text xml:space="preserve" font-family="DINCondensed-Bold" font-weight="bold" font-size="86.0" fill="#747676" transform="matrix(1.00, 0.00, -0.00, -1.00, 586.9, 976.0)">t</text><text xml:space="preserve" font-family="DINCondensed-Bold" font-weight="bold" font-size="86.0" fill="#747676" transform="matrix(1.00, 0.00, -0.00, -1.00, 604.4, 976.0)">a</text><text xml:space="preserve" font-family="DINCondensed-Bold" font-weight="bold" font-size="86.0" fill="#747676" transform="matrix(1.00, 0.00, -0.00, -1.00, 636.3, 976.0)">รง</text><text xml:space="preserve" font-family="DINCondensed-Bold" font-weight="bold" font-size="86.0" fill="#747676" transform="matrix(1.00, 0.00, -0.00, -1.00, 668.1, 976.0)">รฃ</text><text xml:space="preserve" font-family="DINCondensed-Bold" font-weight="bold" font-size="86.0" fill="#747676" transform="matrix(1.00, 0.00, -0.00, -1.00, 699.9, 976.0)">o</text><text xml:space="preserve" font-family="DINCondensed-Bold" font-weight="bold" font-size="86.0" fill="#747676" transform="matrix(1.00, 0.00, -0.00, -1.00, 731.7, 976.0)"> </text><text xml:space="preserve" font-family="DINCondensed-Bold" font-weight="bold" font-size="86.0" fill="#747676" transform="matrix(1.00, 0.00, -0.00, -1.00, 747.7, 976.0)">d</text><text xml:space="preserve" font-family="DINCondensed-Bold" font-weight="bold" font-size="86.0" fill="#747676" transform="matrix(1.00, 0.00, -0.00, -1.00, 781.2, 976.0)">o</text><text xml:space="preserve" font-family="DINCondensed-Bold" font-weight="bold" font-size="86.0" fill="#747676" transform="matrix(1.00, 0.00, -0.00, -1.00, 813.0, 976.0)"> </text><text xml:space="preserve" font-family="DINCondensed-Bold" font-weight="bold" font-size="86.0" fill="#747676" transform="matrix(1.00, 0.00, -0.00, -1.00, 829.0, 976.0)">D</text><text xml:space="preserve" font-family="DINCondensed-Bold" font-weight="bold" font-size="86.0" fill="#747676" transform="matrix(1.00, 0.00, -0.00, -1.00, 865.6, 976.0)">o</text><text xml:space="preserve" font-family="DINCondensed-Bold" font-weight="bold" font-size="86.0" fill="#747676" transform="matrix(1.00, 0.00, -0.00, -1.00, 897.5, 976.0)">c</text><text xml:space="preserve" font-family="DINCondensed-Bold" font-weight="bold" font-size="86.0" fill="#747676" transform="matrix(1.00, 0.00, -0.00, -1.00, 928.2, 976.0)">k</text><text xml:space="preserve" font-family="DINCondensed-Bold" font-weight="bold" font-size="86.0" fill="#747676" transform="matrix(1.00, 0.00, -0.00, -1.00, 960.7, 976.0)">e</text><text xml:space="preserve" font-family="DINCondensed-Bold" font-weight="bold" font-size="86.0" fill="#747676" transform="matrix(1.00, 0.00, -0.00, -1.00, 992.5, 976.0)">r</text></g></svg>