<?xml version="1.0" encoding="UTF-8" standalone="no"?><svg xmlns="http://www.w3.org/2000/svg" xmlns:xlink="http://www.w3.org/1999/xlink" clip-rule="evenodd" stroke-miterlimit="4.00" viewBox="0 0 486 258"><desc>SVG generated by Keynote</desc><defs></defs><g transform="matrix(1.00, 0.00, -0.00, -1.00, 0.0, 258.0)"><image xlink:href="1F3B1D56C938478523CBE8B7DFB8B301.png" width="469.00" height="232.00" transform="matrix(1.00, 0.00, -0.00, -1.00, 6.0, 246.0)"></image><text xml:space="preserve" font-family="IowanOldStyle-Roman" font-size="44.0" fill="#5C5C5C" transform="matrix(0.92, 0.40, 0.40, -0.92, 23.5, 23.0)">R</text><text xml:space="preserve" font-family="IowanOldStyle-Roman" font-size="44.0" fill="#5C5C5C" transform="matrix(0.92, 0.40, 0.40, -0.92, 50.8, 34.9)">e</text><text xml:space="preserve" font-family="IowanOldStyle-Roman" font-size="44.0" fill="#5C5C5C" transform="matrix(0.92, 0.40, 0.40, -0.92, 70.4, 43.5)">s</text><text xml:space="preserve" font-family="IowanOldStyle-Roman" font-size="44.0" fill="#5C5C5C" transform="matrix(0.92, 0.40, 0.40, -0.92, 88.3, 51.3)">u</text><text xml:space="preserve" font-family="IowanOldStyle-Roman" font-size="44.0" fill="#5C5C5C" transform="matrix(0.92, 0.40, 0.40, -0.92, 112.0, 61.7)">l</text><text xml:space="preserve" font-family="IowanOldStyle-Roman" font-size="44.0" fill="#5C5C5C" transform="matrix(0.92, 0.40, 0.40, -0.92, 123.8, 66.8)">t</text><text xml:space="preserve" font-family="IowanOldStyle-Roman" font-size="44.0" fill="#5C5C5C" transform="matrix(0.92, 0.40, 0.40, -0.92, 138.3, 73.1)">a</text><text xml:space="preserve" font-family="IowanOldStyle-Roman" font-size="44.0" fill="#5C5C5C" transform="matrix(0.92, 0.40, 0.40, -0.92, 157.7, 81.6)">d</text><text xml:space="preserve" font-family="IowanOldStyle-Roman" font-size="44.0" fill="#5C5C5C" transform="matrix(0.92, 0.40, 0.40, -0.92, 180.3, 91.5)">o</text><text xml:space="preserve" font-family="IowanOldStyle-Roman" font-size="44.0" fill="#5C5C5C" transform="matrix(0.92, 0.40, 0.40, -0.92, 202.5, 101.2)"> </text><text xml:space="preserve" font-family="IowanOldStyle-Roman" font-size="44.0" fill="#5C5C5C" transform="matrix(0.92, 0.40, 0.40, -0.92, 213.7, 106.1)">G</text><text xml:space="preserve" font-family="IowanOldStyle-Roman" font-size="44.0" fill="#5C5C5C" transform="matrix(0.92, 0.40, 0.40, -0.92, 243.6, 119.2)">o</text><text xml:space="preserve" font-family="IowanOldStyle-Roman" font-size="44.0" fill="#5C5C5C" transform="matrix(0.92, 0.40, 0.40, -0.92, 265.8, 128.9)">o</text><text xml:space="preserve" font-family="IowanOldStyle-Roman" font-size="44.0" fill="#5C5C5C" transform="matrix(0.92, 0.40, 0.40, -0.92, 288.0, 138.6)">g</text><text xml:space="preserve" font-family="IowanOldStyle-Roman" font-size="44.0" fill="#5C5C5C" transform="matrix(0.92, 0.40, 0.40, -0.92, 308.9, 147.7)">l</text><text xml:space="preserve" font-family="IowanOldStyle-Roman" font-size="44.0" fill="#5C5C5C" transform="matrix(0.92, 0.40, 0.40, -0.92, 320.6, 152.8)">e</text><text xml:space="preserve" font-family="IowanOldStyle-Roman" font-size="44.0" fill="#5C5C5C" transform="matrix(0.92, 0.40, 0.40, -0.92, 340.3, 161.4)"> </text><text xml:space="preserve" font-family="IowanOldStyle-Roman" font-size="44.0" fill="#5C5C5C" transform="matrix(0.92, 0.40, 0.40, -0.92, 351.5, 166.3)">T</text><text xml:space="preserve" font-family="IowanOldStyle-Roman" font-size="44.0" fill="#5C5C5C" transform="matrix(0.92, 0.40, 0.40, -0.92, 372.3, 175.4)">r</text><text xml:space="preserve" font-family="IowanOldStyle-Roman" font-size="44.0" fill="#5C5C5C" transform="matrix(0.92, 0.40, 0.40, -0.92, 388.0, 182.2)">e</text><text xml:space="preserve" font-family="IowanOldStyle-Roman" font-size="44.0" fill="#5C5C5C" transform="matrix(0.92, 0.40, 0.40, -0.92, 407.7, 190.8)">n</text><text xml:space="preserve" font-family="IowanOldStyle-Roman" font-size="44.0" fill="#5C5C5C" transform="matrix(0.92, 0.40, 0.40, -0.92, 431.2, 201.1)">d</text><text xml:space="preserve" font-family="IowanOldStyle-Roman" font-size="44.0" fill="#5C5C5C" transform="matrix(0.92, 0.40, 0.40, -0.92, 453.9, 211.0)">s</text></g></svg>